<?xml version="1.0" encoding="utf-8"?>
<!-- Generator: Adobe Illustrator 27.5.0, SVG Export Plug-In . SVG Version: 6.00 Build 0)  -->
<svg version="1.1" xmlns="http://www.w3.org/2000/svg" xmlns:xlink="http://www.w3.org/1999/xlink" x="0px" y="0px"
	 viewBox="0 0 750 500" style="enable-background:new 0 0 750 500;" xml:space="preserve">
<g id="BACKGROUND">
	<rect style="fill:#FFFFFF;" width="749.992" height="499.995"/>
</g>
<g id="OBJECTS">
	<g>
		<ellipse style="fill:#D3E7E0;" cx="378.196" cy="452.424" rx="329.065" ry="14.265"/>
	</g>
	<g>
		<g>
			<g style="opacity:0.5;">
				<g>
					<path style="fill:#D3E7E0;" d="M650.822,397.095c-0.34-2.783-0.059-7.472,2.511-11.257c4.673-6.883,25.434-30.254,35.65-34.376
						c11.663-4.706-7.366,45.016-20.257,52.178C658.826,409.139,651.654,403.9,650.822,397.095z"/>
				</g>
			</g>
			<g>
				<g>
					<g>
						<path style="fill:#D3E7E0;" d="M640.918,452.217h-0.925c3.951-21.652,12.057-42.5,23.816-61.127
							c3.775-5.979,7.927-11.711,12.409-17.179c0.376-0.459,1.024,0.196,0.651,0.651c-15.808,19.286-27.274,42.025-33.448,66.183
							C642.452,444.539,641.621,448.366,640.918,452.217z"/>
					</g>
				</g>
			</g>
		</g>
		<g>
			<g style="opacity:0.5;">
				<g>
					<path style="fill:#D3E7E0;" d="M659.09,415.87c1.073-2.041,2.738-3.709,4.88-4.564c6.357-2.536,32.509-12.657,41.45-11.185
						c10.209,1.68-24.827,29.025-36.948,28.545C659.164,428.297,656.08,421.594,659.09,415.87z"/>
				</g>
			</g>
			<g>
				<g>
					<g>
						<path style="fill:#D3E7E0;" d="M680.395,415.394c-10.138,4.92-20.928,8.34-32.053,10.138c-0.58,0.094-0.829-0.793-0.245-0.888
							c11.045-1.785,21.767-5.161,31.833-10.045C680.461,414.341,680.929,415.135,680.395,415.394L680.395,415.394z"/>
					</g>
				</g>
			</g>
		</g>
	</g>
	<g>
		<g>
			<g style="opacity:0.5;">
				<g>
					<path style="fill:#D3E7E0;" d="M92.366,397.095c0.34-2.783,0.059-7.472-2.511-11.257c-4.673-6.883-25.434-30.254-35.65-34.376
						c-11.663-4.706,7.366,45.016,20.257,52.178C84.362,409.139,91.534,403.9,92.366,397.095z"/>
				</g>
			</g>
			<g>
				<g>
					<g>
						<path style="fill:#D3E7E0;" d="M102.27,452.217h0.925c-3.951-21.652-12.057-42.5-23.816-61.127
							c-3.775-5.979-7.927-11.711-12.409-17.179c-0.376-0.459-1.024,0.196-0.651,0.651c15.808,19.286,27.274,42.025,33.448,66.183
							C100.736,444.539,101.567,448.366,102.27,452.217z"/>
					</g>
				</g>
			</g>
		</g>
		<g>
			<g style="opacity:0.5;">
				<g>
					<path style="fill:#D3E7E0;" d="M84.098,415.87c-1.074-2.041-2.738-3.709-4.88-4.564c-6.357-2.536-32.509-12.657-41.45-11.185
						c-10.209,1.68,24.827,29.025,36.948,28.545C84.023,428.297,87.108,421.594,84.098,415.87z"/>
				</g>
			</g>
			<g>
				<g>
					<g>
						<path style="fill:#D3E7E0;" d="M62.793,415.394c10.138,4.92,20.928,8.34,32.053,10.138c0.58,0.094,0.829-0.793,0.245-0.888
							c-11.045-1.785-21.767-5.161-31.833-10.045C62.727,414.341,62.259,415.135,62.793,415.394L62.793,415.394z"/>
					</g>
				</g>
			</g>
		</g>
	</g>
	<g>
		<g>
			<g>
				<g>
					<g>
						<g>
							<g>
								<g>
									<g>
										<path style="fill:#272327;" d="M613.064,160.287v247.439c0,9.51-7.709,17.22-17.22,17.22h-420.16
											c-9.51,0-17.219-7.709-17.219-17.22V160.287c0-9.51,7.709-17.219,17.219-17.219h420.16
											C605.354,143.068,613.064,150.777,613.064,160.287z"/>
									</g>
								</g>
							</g>
						</g>
					</g>
				</g>
				<g>
					<path style="fill:#272327;" d="M316.81,139.305h-79.486c-0.306,0-0.553-0.247-0.553-0.553s0.247-0.553,0.553-0.553h79.486
						c0.306,0,0.553,0.247,0.553,0.553S317.116,139.305,316.81,139.305z"/>
				</g>
				<g>
					<path style="fill:#FFFFFF;" d="M592.869,173.101v206.381c0,6.072-5.253,10.999-11.735,10.999H190.4
						c-3.464,0-6.581-1.408-8.731-3.652c-1.873-1.942-3.01-4.523-3.01-7.347V173.101c0-6.072,5.259-10.999,11.74-10.999h390.734
						c2.169,0,4.197,0.551,5.937,1.513C590.54,165.524,592.869,169.059,592.869,173.101z"/>
				</g>
				<g>
					<path style="fill:#ADD1C8;" d="M329.038,228.211h-23.486c-0.571,0-1.083,0.428-1.113,0.998
						c-0.032,0.608,0.452,1.111,1.053,1.111h23.546c0.582,0,1.054-0.472,1.054-1.054l0,0
						C330.092,228.683,329.62,228.211,329.038,228.211z"/>
				</g>
				<g>
					<path style="fill:#ADD1C8;" d="M329.038,235.154h-23.486c-0.571,0-1.083,0.427-1.113,0.998
						c-0.032,0.608,0.452,1.111,1.053,1.111h23.546c0.582,0,1.054-0.472,1.054-1.055l0,0
						C330.092,235.626,329.62,235.154,329.038,235.154z"/>
				</g>
				<g>
					<path style="fill:#ADD1C8;" d="M329.038,242.098h-23.486c-0.571,0-1.083,0.427-1.113,0.998
						c-0.032,0.608,0.452,1.111,1.053,1.111h23.546c0.582,0,1.054-0.472,1.054-1.055l0,0
						C330.092,242.57,329.62,242.098,329.038,242.098z"/>
				</g>
				<g>
					<path style="fill:#ADD1C8;" d="M329.038,249.041h-23.486c-0.571,0-1.083,0.427-1.113,0.998
						c-0.032,0.608,0.452,1.111,1.053,1.111h23.546c0.582,0,1.054-0.472,1.054-1.055l0,0
						C330.092,249.513,329.62,249.041,329.038,249.041z"/>
				</g>
				<g>
					<path style="fill:#ADD1C8;" d="M329.038,255.984h-23.486c-0.571,0-1.083,0.428-1.113,0.998
						c-0.032,0.608,0.452,1.111,1.053,1.111h23.546c0.582,0,1.054-0.472,1.054-1.055l0,0
						C330.092,256.456,329.62,255.984,329.038,255.984z"/>
				</g>
				<g>
					<g>
						<g>
							<rect x="306.436" y="333.914" style="fill:#E59C25;" width="25.052" height="38.586"/>
						</g>
						<g>
							<rect x="348.723" y="311.064" style="fill:#6337C7;" width="25.052" height="61.436"/>
						</g>
						<g>
							<rect x="391.01" y="280.235" style="fill:#CB462A;" width="25.052" height="92.265"/>
						</g>
						<g>
							<rect x="433.297" y="258.396" style="fill:#6AB886;" width="25.052" height="114.104"/>
						</g>
					</g>
					<g>
						<g>
							<path style="fill:#272327;" d="M318.102,315.676c-0.228,0-0.454-0.092-0.619-0.274c-0.311-0.342-0.286-0.871,0.056-1.182
								l28.386-25.802c0.309-0.281,0.778-0.291,1.099-0.023l9.707,8.102l35.493-35.359c0.157-0.157,0.371-0.242,0.594-0.244
								c0.222,0.001,0.435,0.09,0.592,0.248l7.905,7.999l31.823-31.409c0.158-0.156,0.367-0.252,0.594-0.241
								c0.222,0.002,0.434,0.092,0.59,0.25l8.591,8.733l20.682-17.844c0.35-0.302,0.878-0.263,1.18,0.087
								c0.302,0.35,0.263,0.878-0.087,1.18l-21.276,18.356c-0.334,0.288-0.834,0.267-1.143-0.046l-8.553-8.694l-31.822,31.408
								c-0.329,0.324-0.858,0.321-1.183-0.007l-7.903-7.996l-35.438,35.305c-0.306,0.305-0.795,0.326-1.126,0.05l-9.733-8.125
								l-27.847,25.312C318.504,315.604,318.303,315.676,318.102,315.676z"/>
						</g>
						<g>
							<path style="fill:#272327;" d="M349.933,289.037c0,1.903-1.543,3.446-3.445,3.446c-1.903,0-3.446-1.543-3.446-3.446
								c0-1.903,1.543-3.446,3.446-3.446C348.391,285.591,349.933,287.134,349.933,289.037z"/>
						</g>
						<g>
							<path style="fill:#272327;" d="M321.547,314.545c0,1.903-1.543,3.446-3.445,3.446c-1.903,0-3.446-1.543-3.446-3.446
								c0-1.903,1.543-3.446,3.446-3.446C320.004,311.1,321.547,312.642,321.547,314.545z"/>
						</g>
						<g>
							<circle style="fill:#272327;" cx="392.391" cy="261.842" r="3.446"/>
						</g>
						<g>
							<path style="fill:#272327;" d="M436.743,237.841c0,1.903-1.543,3.446-3.446,3.446c-1.903,0-3.445-1.543-3.445-3.446
								c0-1.903,1.543-3.446,3.445-3.446C435.2,234.395,436.743,235.938,436.743,237.841z"/>
						</g>
						<g>
							<path style="fill:#272327;" d="M468.856,227.541c0,1.903-1.543,3.446-3.445,3.446c-1.903,0-3.446-1.543-3.446-3.446
								c0-1.903,1.543-3.446,3.446-3.446C467.313,224.095,468.856,225.638,468.856,227.541z"/>
						</g>
					</g>
					<g>
						<path style="fill:#272327;" d="M473.349,373.388H295.833c-0.43,0-0.778-0.348-0.778-0.778v-0.612
							c0-0.43,0.348-0.778,0.778-0.778h177.516c0.43,0,0.778,0.348,0.778,0.778v0.612
							C474.127,373.039,473.779,373.388,473.349,373.388z"/>
					</g>
				</g>
				<g>
					<g>
						<g>
							<path style="fill:#6AB886;" d="M274.283,361.999c0,0-0.528-21.941-5.985-21.101c-5.457,0.84-2.791,8.076-9.136,8.495
								c-6.345,0.419-6.779-22.259-13.452-23.043c-8.893-1.046-5.753,19.971-12.443,21.788c-6.689,1.817-6.67-27.537-16.526-27.537
								c-9.856,0-10.935,41.398-10.935,41.398H274.283z"/>
						</g>
					</g>
					<g>
						<g>
							<path style="fill:#272327;" d="M202.705,362.963h75.156c0.191,0,0.346-0.155,0.346-0.346v-0.272
								c0-0.191-0.155-0.346-0.346-0.346h-75.156c-0.191,0-0.346,0.155-0.346,0.346v0.272
								C202.359,362.809,202.514,362.963,202.705,362.963z"/>
						</g>
					</g>
				</g>
				<g>
					<g>
						<g>
							<path style="fill:#ADD1C8;" d="M574.136,307.774H550.65c-0.571,0-1.083,0.428-1.112,0.998
								c-0.032,0.608,0.452,1.111,1.053,1.111h23.546c0.582,0,1.054-0.472,1.054-1.054l0,0
								C575.19,308.246,574.718,307.774,574.136,307.774z"/>
						</g>
						<g>
							<path style="fill:#ADD1C8;" d="M574.136,314.717H550.65c-0.571,0-1.083,0.427-1.112,0.998
								c-0.032,0.608,0.452,1.111,1.053,1.111h23.546c0.582,0,1.054-0.472,1.054-1.055l0,0
								C575.19,315.189,574.718,314.717,574.136,314.717z"/>
						</g>
						<g>
							<path style="fill:#ADD1C8;" d="M574.136,321.66H550.65c-0.571,0-1.083,0.428-1.112,0.998
								c-0.032,0.608,0.452,1.111,1.053,1.111h23.546c0.582,0,1.054-0.472,1.054-1.055l0,0
								C575.19,322.133,574.718,321.66,574.136,321.66z"/>
						</g>
						<g>
							<path style="fill:#ADD1C8;" d="M574.136,328.604H550.65c-0.571,0-1.083,0.427-1.112,0.998
								c-0.032,0.608,0.452,1.111,1.053,1.111h23.546c0.582,0,1.054-0.472,1.054-1.054l0,0
								C575.19,329.076,574.718,328.604,574.136,328.604z"/>
						</g>
						<g>
							<path style="fill:#ADD1C8;" d="M574.136,335.547H550.65c-0.571,0-1.083,0.428-1.112,0.998
								c-0.032,0.608,0.452,1.111,1.053,1.111h23.546c0.582,0,1.054-0.472,1.054-1.055l0,0
								C575.19,336.019,574.718,335.547,574.136,335.547z"/>
						</g>
						<g>
							<path style="fill:#ADD1C8;" d="M574.136,342.49H550.65c-0.571,0-1.083,0.428-1.112,0.998
								c-0.032,0.608,0.452,1.111,1.053,1.111h23.546c0.582,0,1.054-0.472,1.054-1.054l0,0
								C575.19,342.962,574.718,342.49,574.136,342.49z"/>
						</g>
						<g>
							<path style="fill:#ADD1C8;" d="M574.136,349.434H550.65c-0.571,0-1.083,0.427-1.112,0.998
								c-0.032,0.608,0.452,1.111,1.053,1.111h23.546c0.582,0,1.054-0.472,1.054-1.054l0,0
								C575.19,349.906,574.718,349.434,574.136,349.434z"/>
						</g>
					</g>
				</g>
				<g>
					<g>
						<g>
							<g>
								<g>
									<path style="fill:#6337C7;" d="M536.74,328.816c0,15.436-12.512,27.944-27.944,27.944
										c-15.436,0-27.948-12.508-27.948-27.944c0-3.826,0.772-7.476,2.165-10.8l25.784,10.8l-1.324-27.91
										c0.434-0.027,0.879-0.035,1.324-0.035C524.229,300.872,536.74,313.383,536.74,328.816z"/>
								</g>
							</g>
						</g>
					</g>
					<g>
						<g>
							<g>
								<g>
									<g>
										<g>
											<path style="fill:#E59C25;" d="M504.947,296.5c-8.351,0.387-15.738,4.437-20.6,10.583
												c-1.564,1.976-2.867,4.169-3.856,6.528l25.781,10.8L504.947,296.5z"/>
										</g>
									</g>
								</g>
							</g>
						</g>
					</g>
				</g>
			</g>
			<g>
				<g>
					<g>
						<g>
							<g>
								<g>
									<path style="fill:#323E3D;" d="M634.997,452.389H136.071c-7.844,0-12.267-9.012-7.468-15.217l17.037-22.029h479.786
										l17.039,22.029C647.264,443.377,642.842,452.389,634.997,452.389z"/>
								</g>
							</g>
						</g>
					</g>
				</g>
			</g>
			<g>
				<g>
					<g>
						<g>
							<g>
								<g>
									<g>
										<path style="fill:#44584F;" d="M238.045,433.766c0,2.848-2.309,5.157-5.157,5.157c-2.848,0-5.157-2.309-5.157-5.157
											s2.309-5.157,5.157-5.157C235.737,428.609,238.045,430.918,238.045,433.766z"/>
									</g>
								</g>
							</g>
						</g>
					</g>
				</g>
				<g>
					<g>
						<g>
							<g>
								<g>
									<g>
										<g>
											<path style="fill:#44584F;" d="M219.829,433.766c0,2.848-2.309,5.157-5.157,5.157c-2.848,0-5.157-2.309-5.157-5.157
												s2.309-5.157,5.157-5.157C217.52,428.609,219.829,430.918,219.829,433.766z"/>
										</g>
									</g>
								</g>
							</g>
						</g>
					</g>
					<g>
						<g>
							<g>
								<g>
									<g>
										<g>
											<path style="fill:#44584F;" d="M256.262,433.766c0,2.848-2.309,5.157-5.157,5.157c-2.848,0-5.157-2.309-5.157-5.157
												s2.309-5.157,5.157-5.157C253.953,428.609,256.262,430.918,256.262,433.766z"/>
										</g>
									</g>
								</g>
							</g>
						</g>
					</g>
				</g>
			</g>
			<g>
				<g>
					<g>
						<g>
							<g>
								<g>
									<path style="fill:#44584F;" d="M325.295,415.144v0.358c0,2.825,1.892,5.115,4.225,5.115h110.142
										c2.333,0,4.225-2.29,4.225-5.115v-0.358H325.295z"/>
								</g>
							</g>
						</g>
					</g>
				</g>
			</g>
			<g>
				<g>
					<g>
						<g>
							<g>
								<g>
									<g>
										<path style="fill:#D3E7E0;" d="M592.869,173.844v12.998H178.66v-12.998c0-2.502,0.779-4.816,2.117-6.717
											c2.117-3.037,5.638-5.023,9.623-5.023h390.733c3.985,0,7.506,1.986,9.619,5.023
											C592.09,169.027,592.869,171.341,592.869,173.844z"/>
									</g>
								</g>
							</g>
						</g>
					</g>
				</g>
				<g>
					<g>
						<g>
							<g>
								<g>
									<g>
										<g>
											<path style="fill:#E59C25;" d="M550.623,173.718c0,2.386-1.934,4.321-4.321,4.321c-2.386,0-4.32-1.934-4.32-4.321
												c0-2.386,1.935-4.321,4.32-4.321C548.689,169.398,550.623,171.332,550.623,173.718z"/>
										</g>
									</g>
								</g>
							</g>
						</g>
					</g>
					<g>
						<g>
							<g>
								<g>
									<g>
										<g>
											<path style="fill:#6AB886;" d="M564.626,173.718c0,2.386-1.935,4.321-4.321,4.321c-2.386,0-4.32-1.934-4.32-4.321
												c0-2.386,1.935-4.321,4.32-4.321C562.691,169.398,564.626,171.332,564.626,173.718z"/>
										</g>
									</g>
								</g>
							</g>
						</g>
					</g>
					<g>
						<g>
							<g>
								<g>
									<g>
										<g>
											<path style="fill:#CB462A;" d="M577.951,173.718c0,2.386-1.935,4.321-4.32,4.321c-2.386,0-4.32-1.934-4.32-4.321
												c0-2.386,1.934-4.321,4.32-4.321C576.017,169.398,577.951,171.332,577.951,173.718z"/>
										</g>
									</g>
								</g>
							</g>
						</g>
					</g>
				</g>
			</g>
		</g>
		<g>
			<g>
				<g>
					<g>
						<g>
							<rect x="178.66" y="192.379" style="fill:#D3E7E0;" width="414.209" height="1.66"/>
						</g>
					</g>
				</g>
			</g>
		</g>
		<g>
			<g>
				<g>
					<g>
						<g>
							<path style="fill:#D3E7E0;" d="M577.394,206.974v57.857c0,2.143-1.74,3.882-3.885,3.882h-91.874
								c-2.143,0-3.882-1.74-3.882-3.882v-57.857c0-2.146,1.74-3.885,3.882-3.885h91.874
								C575.655,203.089,577.394,204.828,577.394,206.974z"/>
						</g>
					</g>
				</g>
			</g>
			<g>
				<g>
					<g>
						<g>
							<g>
								<path style="fill:#ADD1C8;" d="M516.821,225.744h-25.892c-0.685,0-1.241,0.555-1.241,1.24l0,0
									c0,0.685,0.555,1.24,1.241,1.24h25.892c0.685,0,1.24-0.555,1.24-1.24l0,0C518.061,226.299,517.506,225.744,516.821,225.744z
									"/>
							</g>
						</g>
					</g>
				</g>
				<g>
					<g>
						<g>
							<g>
								<path style="fill:#ADD1C8;" d="M516.821,234.815h-25.892c-0.685,0-1.241,0.555-1.241,1.241l0,0
									c0,0.685,0.555,1.24,1.241,1.24h25.892c0.685,0,1.24-0.555,1.24-1.24l0,0C518.061,235.37,517.506,234.815,516.821,234.815z"
									/>
							</g>
						</g>
					</g>
				</g>
				<g>
					<g>
						<g>
							<g>
								<path style="fill:#ADD1C8;" d="M516.821,243.886h-25.892c-0.685,0-1.241,0.555-1.241,1.24l0,0
									c0,0.685,0.555,1.24,1.241,1.24h25.892c0.685,0,1.24-0.555,1.24-1.24l0,0C518.061,244.441,517.506,243.886,516.821,243.886z
									"/>
							</g>
						</g>
					</g>
				</g>
				<g>
					<g>
						<g>
							<g>
								<path style="fill:#ADD1C8;" d="M516.821,252.957h-25.892c-0.685,0-1.241,0.555-1.241,1.24l0,0
									c0,0.685,0.555,1.24,1.241,1.24h25.892c0.685,0,1.24-0.555,1.24-1.24l0,0C518.061,253.512,517.506,252.957,516.821,252.957z
									"/>
							</g>
						</g>
					</g>
				</g>
			</g>
			<g>
				<g>
					<g>
						<g>
							<polygon style="fill:#6AB886;" points="540.484,255.457 534.127,255.457 534.341,245.233 540.698,245.233 							"/>
						</g>
					</g>
				</g>
			</g>
			<g>
				<g>
					<g>
						<g>
							<polygon style="fill:#CB462A;" points="550.717,255.457 544.36,255.457 544.574,231.749 550.93,231.749 							"/>
						</g>
					</g>
				</g>
			</g>
			<g>
				<g>
					<g>
						<g>
							<polygon style="fill:#6337C7;" points="561.428,255.457 555.071,255.457 555.284,222.643 561.641,222.643 							"/>
						</g>
					</g>
				</g>
			</g>
			<g>
				<g>
					<g>
						<g>
							<path style="fill:#272327;" d="M577.394,206.974v9.309h-99.641v-9.309c0-2.146,1.74-3.885,3.882-3.885h91.874
								C575.655,203.089,577.394,204.828,577.394,206.974z"/>
						</g>
					</g>
				</g>
			</g>
			<g>
				<g>
					<g>
						<g>
							<g>
								<g>
									<g>
										<path style="fill:#E59C25;" d="M558.356,209.686c0,1.149-0.932,2.081-2.081,2.081c-1.149,0-2.081-0.932-2.081-2.081
											s0.932-2.081,2.081-2.081C557.424,207.605,558.356,208.536,558.356,209.686z"/>
									</g>
								</g>
							</g>
						</g>
					</g>
				</g>
				<g>
					<g>
						<g>
							<g>
								<g>
									<g>
										<path style="fill:#6AB886;" d="M565.101,209.686c0,1.149-0.932,2.081-2.081,2.081c-1.149,0-2.081-0.932-2.081-2.081
											s0.932-2.081,2.081-2.081C564.169,207.605,565.101,208.536,565.101,209.686z"/>
									</g>
								</g>
							</g>
						</g>
					</g>
				</g>
				<g>
					<g>
						<g>
							<g>
								<g>
									<g>
										<path style="fill:#CB462A;" d="M571.52,209.686c0,1.149-0.932,2.081-2.081,2.081c-1.15,0-2.081-0.932-2.081-2.081
											s0.932-2.081,2.081-2.081C570.588,207.605,571.52,208.536,571.52,209.686z"/>
									</g>
								</g>
							</g>
						</g>
					</g>
				</g>
			</g>
		</g>
		<g>
			<g>
				<g>
					<g>
						<g>
							<path style="fill:#D3E7E0;" d="M280.999,207.826v88.34c0,1.308-1.061,2.369-2.37,2.369h-76.106
								c-1.308,0-2.369-1.061-2.369-2.369v-88.34c0-1.309,1.061-2.369,2.369-2.369h76.106
								C279.938,205.456,280.999,206.517,280.999,207.826z"/>
						</g>
					</g>
				</g>
			</g>
			<g>
				<g>
					<g>
						<g>
							<g>
								<path style="fill:#6AB886;" d="M259.108,254.538c0,1.707-0.235,3.36-0.668,4.932c3.576-0.373,7.138-0.863,10.692-1.406
									c0.141-1.156,0.215-2.332,0.215-3.526c0-15.92-12.952-28.872-28.872-28.872c-0.786,0-1.565,0.033-2.336,0.095
									c-0.026,3.441-0.097,6.881-0.186,10.321c0.825-0.112,1.666-0.175,2.522-0.175
									C250.75,235.906,259.108,244.264,259.108,254.538z"/>
							</g>
						</g>
					</g>
				</g>
				<g>
					<g>
						<g>
							<g>
								<path style="fill:#6337C7;" d="M258.073,260.652c-2.536,7.279-9.464,12.519-17.597,12.519
									c-10.274,0-18.632-8.358-18.632-18.632c0-9.021,6.445-16.563,14.971-18.269c0.09-3.464,0.162-6.928,0.188-10.394
									c-14.289,1.721-25.4,13.918-25.4,28.663c0,15.92,12.952,28.872,28.872,28.872c14.321,0,26.238-10.481,28.488-24.174
									C265.344,259.788,261.716,260.281,258.073,260.652z"/>
							</g>
						</g>
					</g>
				</g>
			</g>
			<g>
				<g>
					<g>
						<g>
							<path style="fill:#272327;" d="M280.999,207.826v9.734h-80.845v-9.734c0-1.309,1.061-2.369,2.369-2.369h76.106
								C279.938,205.456,280.999,206.517,280.999,207.826z"/>
						</g>
					</g>
				</g>
			</g>
			<g>
				<g>
					<g>
						<g>
							<g>
								<g>
									<g>
										<path style="fill:#E59C25;" d="M264.905,211.508c0,1.055-0.855,1.909-1.909,1.909c-1.054,0-1.909-0.855-1.909-1.909
											c0-1.054,0.855-1.909,1.909-1.909C264.05,209.599,264.905,210.453,264.905,211.508z"/>
									</g>
								</g>
							</g>
						</g>
					</g>
				</g>
				<g>
					<g>
						<g>
							<g>
								<g>
									<g>
										<path style="fill:#6AB886;" d="M271.092,211.508c0,1.055-0.855,1.909-1.909,1.909c-1.054,0-1.909-0.855-1.909-1.909
											c0-1.054,0.855-1.909,1.909-1.909C270.237,209.599,271.092,210.453,271.092,211.508z"/>
									</g>
								</g>
							</g>
						</g>
					</g>
				</g>
				<g>
					<g>
						<g>
							<g>
								<g>
									<g>
										<path style="fill:#CB462A;" d="M276.98,211.508c0,1.055-0.855,1.909-1.909,1.909c-1.054,0-1.909-0.855-1.909-1.909
											c0-1.054,0.855-1.909,1.909-1.909C276.125,209.599,276.98,210.453,276.98,211.508z"/>
									</g>
								</g>
							</g>
						</g>
					</g>
				</g>
			</g>
		</g>
	</g>
	<g>
		<g>
			<g>
				<path style="fill:#272327;" d="M618.833,123.692h1.307l0.395-1.655l0.385,1.655h25.026l2.181-2.212l-0.192,2.212h3.796
					c0,0,11.698-25.927-2.235-36.163c0,0,2.04,1.54,0,0c-9.843-7.431-23.982-1.857-27.359,5.644
					C617.872,102.647,618.833,123.692,618.833,123.692z"/>
			</g>
			<g>
				<path style="fill:#FFFFFF;" d="M624.6,121.055c-2.661,0-4.826-2.165-4.826-4.826c0-2.661,2.165-4.826,4.826-4.826
					c2.661,0,4.826,2.165,4.826,4.826C629.426,118.89,627.261,121.055,624.6,121.055z M624.6,111.916
					c-2.378,0-4.313,1.935-4.313,4.313c0,2.378,1.935,4.313,4.313,4.313s4.313-1.935,4.313-4.313
					C628.913,113.851,626.979,111.916,624.6,111.916z"/>
			</g>
			<g>
				<path style="fill:#A33D31;" d="M603.227,148.137c0,0-13.134,16.757-15.727,16.828c-2.593,0.07-23.553-11.784-23.553-11.784
					l-4.338,2.021c0,0,15.263,22.346,29.458,27.72c10.171,3.851,25.932-21.008,25.932-21.008L603.227,148.137z"/>
				<path style="fill:#6AB886;" d="M612.357,148.137c0,0-5.163,5.099-5.657,9.611c-0.494,4.513,0.02,8.458,4.088,13.2
					c4.068,4.742,4.211,5.391,4.211,5.391v-14.426L612.357,148.137z"/>
				<g>
					<g>
						<g>
							<g>
								<g>
									<g>
										<polygon style="fill:#A33D31;" points="580.449,414.008 580.638,441.658 589.211,441.806 595.197,414.008 										"/>
									</g>
								</g>
							</g>
						</g>
					</g>
					<g>
						<path style="fill:#E59C25;" d="M590.526,450.207c-0.36,0.717-0.821,1.437-1.422,2.125c-2.209,2.534-13.401,0.729-18.277,0.875
							c-4.875,0.151-8.187,1.206-11.873-0.336c-3.688-1.54-4.191-3.522-3.114-5.845c0.264-0.57,0.971-0.951,1.932-1.21
							c2.962-0.805,8.337-0.474,10.598-1.031c2.996-0.738,10.419-8.708,10.419-8.708s3.163-2.745,3.253-0.465
							c0.092,2.278,2.224,5.725,2.224,5.725s2.597,1.419,3.526-0.381c0.929-1.801,1.744-5.047,2.905-5.021
							c1.161,0.026,2.381,1.071,1.626,2.291c-0.755,1.22-1.539,2.265-1.728,3.601C590.407,443.165,590.526,450.207,590.526,450.207"
							/>
					</g>
					<g>
						<path style="fill:#FFFFFF;" d="M555.608,447.026c0.264-0.57,0.971-0.951,1.932-1.21c-0.174,0.148-0.377,0.356-0.558,0.606
							c0.06,0.035,0.11,0.091,0.151,0.181c0.291,0.632-0.139,1.14-0.184,1.344c-0.152,0.712,0.215,1.362,0.215,1.362
							c0.935,0.975,2.825,2.103,5.281,2.289c2.996,0.227,7.174-1.092,9.155-1.944c1.976-0.852,4.932,0.656,7.669,1.299
							c2.732,0.644,6.158-3.342,8.416-3.078c1.595,0.192,2.32,1.547,2.609,2.33c0.295,0.705-0.4,1.79-1.002,2.478
							c-2.207,2.532-13.822,0.376-18.698,0.522c-4.875,0.151-8.187,1.206-11.873-0.336
							C555.034,451.332,554.53,449.349,555.608,447.026z"/>
					</g>
					<g>
						<g>
							<g>
								<g>
									<path style="fill:#272327;" d="M595.569,414.522c0,0,0.952,2.282,0.362,4.874c-0.764,3.358-2.749,4.559-2.749,4.559
										l-12.426-0.768c0,0-4.164-3.834-0.877-9.858L595.569,414.522z"/>
								</g>
							</g>
						</g>
					</g>
				</g>
				<g>
					<g>
						<g>
							<g>
								<g>
									<g>
										<polygon style="fill:#A33D31;" points="636.146,414.008 635.948,439.914 644.511,440.342 650.972,415.368 										"/>
									</g>
								</g>
							</g>
						</g>
					</g>
					<g>
						<g>
							<g>
								<g>
									<g>
										<g>
											<path style="fill:#E59C25;" d="M652.792,452.424H633.02c0,0-0.574-1.107,0.363-4.176c0.19-0.623,0.409-1.398,0.642-2.237
												c0.905-3.31,1.971-7.635,1.971-7.635s1.819-3.555,5.941-4.511c4.122-0.958,3.771,5.185,3.771,5.185
												s0.331,2.591,2.89,4.875c1.878,1.675,3.744,2.903,4.248,5.318C653.029,450.119,653.032,451.155,652.792,452.424z"/>
										</g>
									</g>
								</g>
							</g>
						</g>
						<g>
							<path style="fill:#FFFFFF;" d="M652.792,452.424h-20.003c0,0-0.574-1.107,0.363-4.176c0.19-0.623,0.409-1.398,0.641-2.237
								c0.661-0.108,1.563,0.006,2.026,1.212c0.783,2.043,2.402,2.315,3.798,2.247c1.394-0.067,3.736-2.597,7.499-2.315
								c3.238,0.241,3.437,2.683,5.729,2.088C653.433,450.073,653.393,451.559,652.792,452.424z"/>
						</g>
					</g>
					<g>
						<g>
							<g>
								<g>
									<path style="fill:#272327;" d="M650.88,415.726c0,0,0.952,2.283,0.362,4.874c-0.764,3.359-2.748,4.559-2.748,4.559
										l-12.427-0.768c0,0-4.164-3.834-0.877-9.858L650.88,415.726z"/>
								</g>
							</g>
						</g>
					</g>
				</g>
				<g>
					<g>
						<g>
							<g>
								<g>
									<path style="fill:#A33D31;" d="M617.493,182.183l0.159,0.908l0.544,3.105l1.041,5.95
										c19.945,7.68,36.592-2.444,36.592-2.444c-0.402-0.884-0.639-2.158-0.772-3.506c-0.195-1.939-0.178-4.031-0.136-5.32
										c0.023-0.768,0.055-1.253,0.055-1.253L617.493,182.183z"/>
								</g>
							</g>
						</g>
					</g>
					<g>
						<g>
							<g>
								<g>
									<path style="fill:#602E0B;" d="M617.653,183.091l0.544,3.105c9.998,1.502,22.491,1.367,36.861,0
										c-0.195-1.939-0.178-4.031-0.136-5.32L617.653,183.091z"/>
								</g>
							</g>
						</g>
					</g>
					<g>
						<g>
							<g>
								<g>
									<path style="fill:#272327;" d="M658.394,195.024c0,0,10.063,10.43,10.538,26.384c0.644,21.667-5.225,104.326-6.237,120.13
										c-0.976,15.24-3.762,50.871-5.052,67.204c-0.371,4.701-4.425,8.247-9.133,7.99l-13.22-0.721
										c-4.778-0.26-8.446-4.334-8.203-9.113c1.799-35.464,8.485-168.48,8.086-179.455c-0.461-12.673,0.461-28.112,0.461-28.112
										L658.394,195.024z"/>
								</g>
							</g>
						</g>
					</g>
					<g>
						<g>
							<g>
								<g>
									<g>
										<path style="fill:#44584F;" d="M652.869,312.111c-4.875,1.994-10.361,1.806-15.108-0.459
											c-0.413-0.197-0.052-0.811,0.359-0.615c4.582,2.187,9.867,2.307,14.56,0.388
											C653.104,311.251,653.288,311.939,652.869,312.111L652.869,312.111z"/>
									</g>
								</g>
							</g>
						</g>
					</g>
					<g>
						<g>
							<g>
								<g>
									<path style="fill:#272327;" d="M597.253,250.893c3.131-12.004,3.531-17.954,5.974-26.798
										c2.066-0.833,6.694-13.036,8.646-14.119c2.741-1.521,5.409-3.177,8.154-4.693c2.06-1.139,4.099-2.315,6.089-3.573
										c4.036-2.552,8.237-5.536,10.987-9.563c2.117,3.207,3.431,8.96,3.369,18.475l-36.684,199.825
										c-0.555,3.025-3.174,5.234-6.25,5.266c-5.437,0.058-13.9-0.051-19.755-1.074c-3.42-0.598-5.747-3.803-5.255-7.24
										C576.154,382.05,592.353,269.679,597.253,250.893z"/>
								</g>
							</g>
						</g>
					</g>
					<g>
						<g>
							<g>
								<g>
									<g>
										<path style="fill:#44584F;" d="M602.28,310.279c-4.488,1.662-9.43,1.119-13.472-1.433c-0.386-0.244-0.03-0.86,0.359-0.614
											c3.895,2.459,8.603,2.961,12.923,1.361C602.521,309.433,602.707,310.121,602.28,310.279L602.28,310.279z"/>
									</g>
								</g>
							</g>
						</g>
					</g>
					<g>
						<g>
							<g>
								<g>
									
										<rect x="526.413" y="323.954" transform="matrix(0.1865 -0.9825 0.9825 0.1865 182.6381 869.1828)" style="fill:#44584F;" width="179.479" height="0.712"/>
								</g>
							</g>
						</g>
					</g>
					<g>
						<g>
							<g>
								<g>
									<path style="fill:#272327;" d="M661.96,201.745c0,0-3.748-5.913-6.13-13.843c0,0-14.242,6.642-37.429,2.855
										c0,0-8.15,13.347-15.174,33.337C603.227,224.095,656.809,211.354,661.96,201.745z"/>
								</g>
							</g>
						</g>
					</g>
					<g>
						<g>
							<g>
								<path style="fill:#44584F;" d="M623.839,197.894c-0.842,11.301-9.498,20.615-19.795,24.523
									c-0.429,0.163-0.614-0.525-0.189-0.686c9.98-3.788,18.456-12.876,19.272-23.837
									C623.161,197.44,623.873,197.436,623.839,197.894L623.839,197.894z"/>
							</g>
						</g>
					</g>
					<g>
						<g>
							<g>
								<g>
									<g>
										<path style="fill:#44584F;" d="M647.65,197.695c0.145,5.38,2.401,10.614,6.325,14.321
											c3.926,3.709,9.285,5.648,14.662,5.487c0.458-0.014,0.458,0.698,0,0.712c-5.567,0.167-11.104-1.864-15.166-5.695
											c-4.061-3.831-6.384-9.266-6.533-14.824C646.926,197.237,647.638,197.238,647.65,197.695L647.65,197.695z"/>
									</g>
								</g>
							</g>
						</g>
					</g>
					<g>
						<g>
							<g>
								<g>
									<g>
										<g>
											<path style="fill:#44584F;" d="M637.952,213.845c-0.708,8.617-1.637,17.215-2.345,25.833
												c-0.037,0.453-0.749,0.457-0.712,0c0.708-8.618,1.637-17.215,2.345-25.833
												C637.277,213.391,637.989,213.387,637.952,213.845L637.952,213.845z"/>
										</g>
									</g>
								</g>
							</g>
						</g>
						<g>
							<g>
								<g>
									<g>
										<g>
											<path style="fill:#44584F;" d="M634.511,214.513c-0.404,2.446-0.69,4.907-0.836,7.382
												c-0.064,1.08-0.149,2.18-0.107,3.262c0.048,1.238,0.747,3.565,2.509,2.707c0.41-0.2,0.771,0.414,0.359,0.615
												c-2.355,1.147-3.559-1.623-3.581-3.511c-0.042-3.551,0.392-7.147,0.97-10.644
												C633.9,213.873,634.586,214.064,634.511,214.513L634.511,214.513z"/>
										</g>
									</g>
								</g>
							</g>
						</g>
					</g>
					<g>
						<g>
							<g>
								<g>
									<g>
										<path style="fill:#44584F;" d="M657.08,194.602c-2.184,2.185-5.828,2.495-8.71,3.019
											c-3.686,0.67-7.404,1.192-11.145,1.418c-7.162,0.433-14.541-0.219-21.193-3.06c-0.42-0.179-0.058-0.792,0.359-0.615
											c6.389,2.728,13.5,3.359,20.378,2.989c3.606-0.194,7.189-0.671,10.743-1.299c2.892-0.511,6.873-0.763,9.065-2.956
											C656.901,193.774,657.404,194.277,657.08,194.602L657.08,194.602z"/>
									</g>
								</g>
							</g>
						</g>
					</g>
				</g>
				<g>
					<g>
						<g>
							<path style="fill:#6AB886;" d="M610.612,146.852c0,0.997,0.013,2,0.04,2.999c0.201,8.003,1.164,15.877,2.051,20.49
								c0.618,3.214,1.458,7.806,2.01,10.837c0.339,1.866,0.569,3.142,0.569,3.142c5.191,1.831,24.568-0.186,41.868-0.938
								c0,0,0.482-9.51,2.222-17.65c0.59-2.753,1.323-5.348,2.232-7.366c2.006-4.457,4.385-10.286,4.636-15.016
								c0.102-1.913-0.144-3.646-0.906-5.036c-0.726-1.327-1.92-2.344-3.729-2.903c-6.636-2.055-14.148-5.235-16.99-6.471
								c-0.749-0.324-1.173-0.516-1.173-0.516s-9.734-1.558-17.464-1.858c-3.788-0.148-7.093,0.006-8.537,0.794
								c-2.808,1.532-4.818,5.403-5.9,10.344C610.928,140.489,610.612,143.613,610.612,146.852z"/>
						</g>
					</g>
				</g>
				<path style="fill:#6AB886;" d="M615.205,129.618l-18.498,22.282c0,0,9.35,9.603,17.89,11.442l6.374-30.311L615.205,129.618z"/>
				<g>
					<path style="fill:#467B5B;" d="M612.011,138.792c0.335,4.103-0.174,7.96-2.302,11.55c-0.247,0.416,0.401,0.794,0.648,0.379
						c2.194-3.702,2.75-7.691,2.404-11.929C612.722,138.315,611.972,138.311,612.011,138.792L612.011,138.792z"/>
				</g>
				<g>
					<g>
						<path style="fill:#A33D31;" d="M644.439,129.418c0,0-5.045,8.451-12.399,9.637c-7.354,1.186-3.971-9.162-3.971-9.162
							S642.304,126.808,644.439,129.418z"/>
					</g>
				</g>
				<g>
					<g>
						<g>
							<g>
								<g>
									<path style="fill:#467B5B;" d="M614.428,181.806c6.916,0.663,13.762,0.403,20.682-0.017
										c7.123-0.433,14.257-0.666,21.378-1.136c0.457-0.03,0.455,0.682,0,0.712c-7.121,0.47-14.255,0.703-21.378,1.136
										c-6.92,0.421-13.766,0.681-20.682,0.017C613.976,182.475,613.972,181.762,614.428,181.806L614.428,181.806z"/>
								</g>
							</g>
						</g>
					</g>
				</g>
				<g>
					<g>
						<g>
							<g>
								<g>
									<path style="fill:#467B5B;" d="M657.147,157.533c-2.041,7.688-2.965,15.613-2.752,23.564c0.012,0.458-0.699,0.458-0.712,0
										c-0.215-8.012,0.72-16.007,2.777-23.753C656.578,156.901,657.265,157.089,657.147,157.533L657.147,157.533z"/>
								</g>
							</g>
						</g>
					</g>
				</g>
				<g>
					<g>
						<g>
							<path style="fill:#467B5B;" d="M609.535,150.629c0.137-0.231,0.275-0.462,0.413-0.695c0.338-0.117,0.685-0.202,1.033-0.29
								c-2.031,3.508-4.26,6.976-4.178,11.134c0.087,4.388,2.492,7.593,5.158,10.839c1.053,1.281,2.036,2.516,2.522,4.128
								c0.514,1.703,0.509,3.503,0.425,5.263c-0.022,0.456-0.734,0.459-0.712,0c0.09-1.879,0.1-3.821-0.577-5.606
								c-0.727-1.915-2.316-3.428-3.574-5.004c-2.261-2.832-3.881-5.921-3.954-9.619
								C606.017,157.031,607.669,153.77,609.535,150.629z"/>
						</g>
					</g>
				</g>
			</g>
			<g>
				<g>
					<g>
						<g>
							<g>
								<path style="fill:#A33D31;" d="M644.525,129.395c0,0-8.635,7.242-16.397,0.559l1.061-4.817l1.158-5.257l0.81-3.68
									l11.528-6.025L644.525,129.395z"/>
							</g>
						</g>
					</g>
					<g>
						<g>
							<g>
								<g>
									<g>
										<path style="fill:#272327;" d="M639.98,116.151c-5.141,8.968-9.897,12.024-11.401,11.756l1.791-8.133L639.98,116.151z"/>
									</g>
								</g>
							</g>
						</g>
					</g>
				</g>
				<g>
					<g>
						<g>
							<g>
								<g>
									<g>
										<path style="fill:#A33D31;" d="M646.799,107.795c-1.43,3.559-2.591,4.664-5.654,7.956
											c-2.734,2.938-7.038,4.132-9.173,4.089c-7.757-0.156-11.024-3.631-9.03-13.974c1.239-6.422-0.19-10.218,1.707-12.556
											l0.003,0c0.122-0.104,0.245-0.205,0.367-0.304c2.95-2.366,6.74-3.43,10.506-3.091
											C654.243,91.604,648.852,102.687,646.799,107.795z"/>
									</g>
								</g>
							</g>
						</g>
					</g>
					<g>
						<path style="fill:#272327;" d="M625.971,110.461c0.236,1.326,1.773,1.636,2.929,1.53c1.358-0.125,2.5-0.83,3.302-1.913
							c0.295-0.398-0.372-0.782-0.664-0.388c-0.531,0.717-1.263,1.224-2.134,1.44c-0.818,0.202-2.487,0.271-2.691-0.873
							C626.626,109.77,625.884,109.976,625.971,110.461L625.971,110.461z"/>
					</g>
					<g>
						<g>
							<g>
								<g>
									<path style="fill:#272327;" d="M648.219,106.669c0,0-4.305,0.729-6.323-0.958c-2.018-1.687-0.02-4.781-1.919-4.726
										c-6.644,0.192,0.31-5.639-2.409-5.374c-2.719,0.265-6.156,1.873-8.681,1.472c0,0,2.336-1.423,2.353-3.069
										c0,0-5.909,4.168-8.859,3.564c0,0,1.168-6.342,7.25-8.227c6.082-1.885,17.197,0.23,20.036,3.6
										C652.507,96.321,648.219,106.669,648.219,106.669z"/>
								</g>
							</g>
						</g>
					</g>
					<g>
						<g>
							<g>
								<g>
									<g>
										<g>
											<path style="fill:#602E0B;" d="M627.275,114.637c0.732,0.352,1.545,0.457,2.234-0.043
												c0.349-0.253-0.061-0.782-0.409-0.529c-0.492,0.357-1.061,0.198-1.566-0.045
												C627.144,113.832,626.888,114.451,627.275,114.637L627.275,114.637z"/>
										</g>
									</g>
								</g>
							</g>
						</g>
					</g>
					<g>
						<g>
							<g>
								<g>
									<g>
										<g>
											<path style="fill:#602E0B;" d="M636.881,107.831c-0.071,0.555-0.992,0.894-2.057,0.758
												c-1.065-0.136-1.87-0.697-1.799-1.252c0.071-0.555,0.992-0.894,2.057-0.758
												C636.146,106.716,636.952,107.276,636.881,107.831z"/>
										</g>
									</g>
								</g>
							</g>
						</g>
					</g>
					<g>
						<g>
							<g>
								<path style="fill:#602E0B;" d="M625.778,106.986c-0.071,0.557-0.992,0.895-2.056,0.759
									c-0.501-0.064-0.945-0.223-1.266-0.429c0.073-0.468,0.156-0.951,0.252-1.448c0.003-0.021,0.008-0.042,0.01-0.06
									c0.352-0.099,0.793-0.131,1.26-0.071C625.043,105.873,625.849,106.432,625.778,106.986z"/>
							</g>
						</g>
					</g>
					<g>
						<g>
							<g>
								<g>
									<g>
										<path style="fill:#272327;" d="M633.297,105.013c-0.067,0.522-0.438,0.904-0.829,0.854
											c-0.391-0.05-0.654-0.514-0.588-1.035c0.067-0.522,0.438-0.904,0.829-0.854
											C633.101,104.028,633.364,104.491,633.297,105.013z"/>
									</g>
								</g>
							</g>
						</g>
					</g>
					<g>
						<g>
							<g>
								<g>
									<g>
										<path style="fill:#272327;" d="M626.908,104.488c-0.067,0.522-0.438,0.904-0.83,0.854
											c-0.391-0.05-0.654-0.514-0.587-1.035c0.067-0.522,0.438-0.904,0.829-0.854
											C626.712,103.502,626.975,103.966,626.908,104.488z"/>
									</g>
								</g>
							</g>
						</g>
					</g>
					<g>
						<g>
							<g>
								<g>
									<g>
										<g>
											<path style="fill:#272327;" d="M632.972,100.58c0.79-0.191,1.777,0.066,1.996,0.953c0.205,0.827,1.532,0.649,1.325-0.189
												c-0.386-1.562-1.94-2.47-3.51-2.089C631.954,99.456,632.132,100.784,632.972,100.58L632.972,100.58z"/>
										</g>
									</g>
								</g>
							</g>
						</g>
					</g>
					<g>
						<g>
							<g>
								<g>
									<g>
										<g>
											<path style="fill:#272327;" d="M624.849,101.166c0.591-0.565,1.347-1.392,2.243-1.046
												c0.803,0.31,1.321-0.925,0.517-1.235c-1.427-0.55-2.581,0.269-3.578,1.222
												C623.413,100.697,624.226,101.762,624.849,101.166L624.849,101.166z"/>
										</g>
									</g>
								</g>
							</g>
						</g>
					</g>
					<g>
						<g>
							<g>
								<g>
									<g>
										<path style="fill:#272327;" d="M628.236,108.179c0.285,0.1,0.627,0.181,1.026,0.211c0.181,0.014,0.339-0.122,0.353-0.303
											c0.014-0.181-0.123-0.339-0.303-0.352c-0.631-0.047-1.08-0.242-1.354-0.403c1.021-0.862,1.505-2.17,1.528-2.231
											c0.062-0.17-0.026-0.359-0.196-0.421c-0.161-0.06-0.359,0.026-0.422,0.196c-0.005,0.015-0.551,1.48-1.639,2.18
											c-0.083,0.054-0.138,0.142-0.149,0.24c-0.011,0.098,0.023,0.196,0.092,0.267
											C627.192,107.582,627.549,107.937,628.236,108.179z"/>
									</g>
								</g>
							</g>
						</g>
					</g>
				</g>
				<g>
					<g>
						<g>
							<g>
								<g>
									<g>
										<g>
											<path style="fill:#A33D31;" d="M638.901,109.809c-0.284-1.402,0.153-2.849,1.081-3.938
												c1.202-1.411,3.364-3.542,5.118-3.07c2.578,0.694,2.597,3.067,2.04,5.411c-0.557,2.344-2.51,5.26-5.722,4.346
												C639.812,112.101,639.133,110.957,638.901,109.809z"/>
										</g>
									</g>
								</g>
							</g>
						</g>
					</g>
					<g>
						<path style="fill:#FFFFFF;" d="M645.381,111.464c-0.125,0.167-0.356,0.341-0.506,0.481c2.104,0.285,3.851,2.103,3.851,4.283
							c0,2.378-1.935,4.313-4.313,4.313s-4.313-1.935-4.313-4.313c0-2.129,1.552-3.898,3.584-4.246
							c0.19-0.155,0.226-0.33,0.16-0.518c-2.315,0.353-4.257,2.352-4.257,4.764c0,2.661,2.165,4.826,4.826,4.826
							s4.826-2.165,4.826-4.826C649.238,113.912,647.562,111.927,645.381,111.464z"/>
					</g>
					<g>
						<path style="fill:#272327;" d="M639.978,100.984c0,0,1.126,1.187-0.267,4.235c-1.068,2.336-1.226,3.638-1.226,3.638
							s1.807-0.807,4.349-5.484C643.272,102.958,642.286,100.861,639.978,100.984z"/>
					</g>
					<g>
						<g>
							<g>
								<g>
									<g>
										<g>
											<g>
												<path style="fill:#272327;" d="M642.519,109.935c-0.027-0.987,0.013-2.013,0.472-2.912
													c0.41-0.803,1.468-1.92,2.503-1.459c0.347,0.155,0.648-0.36,0.298-0.516c-0.998-0.444-2.043,0.064-2.738,0.833
													c-1.002,1.11-1.171,2.627-1.131,4.061C641.934,110.326,642.53,110.32,642.519,109.935L642.519,109.935z"/>
											</g>
										</g>
									</g>
								</g>
							</g>
						</g>
					</g>
				</g>
			</g>
		</g>
		<path style="fill:#272327;" d="M672.485,153.899c0,0,0.321,6.064-7.71,9.361c-8.031,3.296-11.122,2.691-11.122,2.691
			s-4.149-8.842,3.177-13.199C664.155,148.394,671.076,149.793,672.485,153.899z"/>
		<path style="fill:#A33D31;" d="M666.475,142.239c0,0,13.92,35.819,6.939,40.664c-14.905,10.345-45.633,9.034-45.633,9.034
			l-0.481-5.768c0,0,30.979-10.84,31.602-12.25c0.707-1.602-6.113-16.692-6.113-16.692L666.475,142.239z"/>
		<g>
			<path style="fill:#602E0B;" d="M659.006,173.899c2.287,0.007,4.516,0.458,6.626,1.34c0.312,0.131,0.142,0.631-0.173,0.5
				c-2.07-0.865-4.248-1.306-6.492-1.313C658.628,174.425,658.667,173.898,659.006,173.899L659.006,173.899z"/>
		</g>
		<g>
			<path style="fill:#602E0B;" d="M660.808,174.079c1.012-1.048,2.251-1.754,3.662-2.11c0.33-0.083,0.432,0.435,0.103,0.518
				c-1.326,0.335-2.465,1.005-3.414,1.988C660.922,174.72,660.573,174.322,660.808,174.079L660.808,174.079z"/>
		</g>
		<path style="fill:#6AB886;" d="M664.368,137.267c0,0,6.299,7.913,8.349,16.632c-3.726-5.822-22.558,6.229-18.832,12.052
			l-7.705-12.557C646.18,153.394,653.033,134.301,664.368,137.267z"/>
		<g>
			<path style="fill:#467B5B;" d="M659.662,135.125c-5.278,0.61-10.664,5.093-11.757,10.885c-0.089,0.471,0.633,0.673,0.722,0.199
				c1.041-5.511,5.444-9.688,11.035-10.335C660.135,135.82,660.141,135.07,659.662,135.125L659.662,135.125z"/>
		</g>
		<g>
			<path style="fill:#6337C7;" d="M580.385,152.772l-7.543,9.834c-0.954,1.242-2.735,1.477-3.977,0.523l-24.909-19.106l-10.301-7.9
				l10.994-14.336l6.102,4.681l29.109,22.329C581.104,149.747,581.339,151.528,580.385,152.772z"/>
			<g>
				<g>
					<path style="fill:#A33D31;" d="M554.38,150.629c0,0,4.523-3.866,6.007-3.469c1.484,0.398-2.525,4.952-2.525,4.952
						s2.729-2.215,3.943-2.093c1.213,0.122-1.441,3.834-1.441,3.834s1.884-1.405,2.734-0.436c0.85,0.969,0.422,1.879-0.423,2.921
						c-0.845,1.042-2.181,1.411-2.902,1.315c-0.721-0.096-1.169-1.409-1.169-1.409s-2.447,0.476-3.03-0.153
						c-0.583-0.629-0.443-1.456-0.443-1.456s-0.942,0.506-1.864-0.077c-0.922-0.583-0.904-1.378-0.904-1.378
						s-1.868-0.971-2.768-1.681c-0.9-0.71,0.128-2.599,0.651-3.873c0.524-1.274,3.704-0.636,5.528-1.48c0,0,1.166-0.12,0.768,1.125
						c-0.398,1.245-2.902,1.743-3.272,2.079C552.9,149.689,554.38,150.629,554.38,150.629z"/>
				</g>
			</g>
			<path style="fill:#371880;" d="M550.752,126.467c-0.707,5.047-2.485,11.63-6.795,17.555l-10.301-7.9l10.994-14.336
				L550.752,126.467z"/>
			<path style="fill:#E59C25;" d="M647.383,205.359l-67.799-52.178l-6.826,8.898l67.875,52.064c2.326,1.784,5.64,1.447,7.559-0.769
				v0C650.277,210.966,649.907,207.301,647.383,205.359z"/>
			<path style="fill:#A33D31;" d="M630.573,185.324l-1.598,0.665c-1.428,0.594-2.864,0.205-4.036-0.805
				c-0.518-0.446-1.333-1.318-1.746-1.563c-1.162-0.686-3.896-1.51-4.681-1.242c-0.785,0.267-0.053,1.629,0.746,2.027
				c0.799,0.398,1.98,0.837,2.802,1.527c0.823,0.69-2.627,4.22-4.157,5.343c-1.529,1.123-4.898,1.453-4.602,2.986
				c0.297,1.532,2.625,0.807,2.625,0.807s-0.128,1.545,2.171,1.824c0,0,0.186,1.384,1.666,1.547c0,0,0.519,1.635,2.089,1.468
				c1.57-0.166,6.455-0.715,12.848-9.462L630.573,185.324z"/>
			<g>
				<path style="fill:#272327;" d="M462.36,70.376c-16.965,22.353-12.596,54.225,9.756,71.19
					c22.35,16.964,54.223,12.599,71.189-9.754c16.966-22.353,12.596-54.225-9.754-71.189
					C511.199,43.659,479.326,48.024,462.36,70.376z M537.098,127.102c-14.341,18.895-41.379,22.597-60.271,8.258
					c-18.894-14.341-22.601-41.378-8.26-60.273c14.341-18.894,41.379-22.597,60.274-8.256
					C547.733,81.17,551.439,108.207,537.098,127.102z"/>
				<path style="opacity:0.5;fill:#FFFFFF;" d="M540.093,79.598c11.853,20.544,4.784,46.903-15.763,58.757
					c-1.762,1.017-3.568,1.895-5.405,2.637c-4.757,1.922-9.716,2.933-14.654,3.089c-5.149,0.163-10.274-0.601-15.118-2.226
					c-7.616-2.548-14.543-7.22-19.804-13.749c-1.379-1.71-2.643-3.551-3.775-5.513c-11.854-20.546-4.785-46.905,15.761-58.759
					c1.962-1.132,3.978-2.093,6.03-2.885c7.822-3.019,16.161-3.596,24.028-1.989c5.008,1.018,9.827,2.921,14.201,5.641
					c4.196,2.607,7.984,5.964,11.14,10.009C537.952,76.172,539.076,77.837,540.093,79.598z"/>
				<path style="opacity:0.5;fill:#FFFFFF;" d="M511.393,58.96l-22.24,82.895c-7.616-2.548-14.543-7.22-19.804-13.749l18.016-67.157
					C495.187,57.93,503.526,57.353,511.393,58.96z"/>
				<path style="opacity:0.5;fill:#FFFFFF;" d="M536.733,74.61l-17.808,66.382c-4.757,1.922-9.716,2.933-14.654,3.089l21.322-79.48
					C529.789,67.208,533.577,70.565,536.733,74.61z"/>
			</g>
		</g>
	</g>
	<g>
		<path style="fill:#272327;" d="M110.205,138.699c0,0-9.712,38.857-17.063,46.963c-5.973,6.586-28.614,27.911-28.614,27.911
			s0.998,30.406,17.301,22.18s38.215-42.862,38.215-42.862L110.205,138.699z"/>
		<g>
			<path style="fill:#44584F;" d="M95.34,183.822c2.505,0.654,4.731,1.89,6.605,3.677c0.355,0.339,0.895-0.2,0.539-0.539
				c-1.967-1.875-4.312-3.186-6.941-3.873C95.067,182.963,94.864,183.698,95.34,183.822L95.34,183.822z"/>
		</g>
		<g>
			<path style="fill:#44584F;" d="M113.179,201.327c-7.184-0.052-12.414,6.717-10.573,13.66c0.126,0.474,0.862,0.273,0.735-0.203
				c-1.716-6.467,3.153-12.743,9.837-12.695C113.67,202.094,113.67,201.331,113.179,201.327L113.179,201.327z"/>
		</g>
		<g>
			<g>
				<g>
					<path style="fill:#272327;" d="M176.11,168.347c0,0,16.596,6.143,30.038,3.65c11.721-2.174,9.29-12.904,14.863-26.424
						c5.573-13.52,8.999-22.942-4.481-26.219c-13.951-3.391-15.497,20.174-17.017,20.603c-3.116,0.88-6.663-2.702-22.108-10.782
						C164.876,122.618,176.11,168.347,176.11,168.347z"/>
				</g>
			</g>
			<g>
				<g>
					<g>
						<path style="fill:#DE7878;" d="M215.1,115.378l-4.43,8.519c-0.145,2.873,3.758,7.002,9.256,5.356l3.102-7.055L215.1,115.378z"
							/>
					</g>
				</g>
				<g>
					<g>
						<g>
							<g>
								<path style="fill:#DE7878;" d="M214.428,116.221c0,0,0.111-3.776,2.408-5.893c2.297-2.117,3.568-4.419,5.385-5.874
									c1.817-1.455,1.246,1.634,0.609,3.216c-0.636,1.582-1.342,3.382-0.076,3.668c1.266,0.286,11.931-2.996,13.641-2.4
									c1.71,0.596,0.15,1.666,0.15,1.666s2.397-0.718,3.182,0.229c0.785,0.947-0.586,1.85-0.586,1.85s1.626-0.426,1.795,0.755
									c0.169,1.181-8.548,5.159-8.208,5.796c0.341,0.637,4.25-3.145,5.428-2.156c1.178,0.989-1.887,2.536-4.132,4.058
									c-2.244,1.522-5.104,2.416-7.858,2.12c-2.754-0.295-7.529,0.655-9.252-2.043
									C215.193,118.516,214.428,116.221,214.428,116.221z"/>
							</g>
						</g>
						<g>
							<g>
								<g>
									<path style="fill:#9E4950;" d="M239.148,112.363c-2.839,0.873-5.638,1.84-8.384,2.897
										c-0.324,0.125,0.011,0.621,0.332,0.498c2.704-1.04,5.459-1.991,8.254-2.851
										C239.682,112.805,239.484,112.26,239.148,112.363L239.148,112.363z"/>
								</g>
							</g>
						</g>
						<g>
							<g>
								<g>
									<path style="fill:#9E4950;" d="M236.386,110.533c-2.243,0.459-4.366,1.165-6.368,2.116
										c-0.312,0.148,0.022,0.645,0.332,0.498c1.961-0.93,4.041-1.619,6.237-2.069
										C236.936,111.006,236.735,110.462,236.386,110.533L236.386,110.533z"/>
								</g>
							</g>
						</g>
						<g>
							<g>
								<path style="fill:#9E4950;" d="M231.842,117.846c-0.445-2.322-1.412-4.54-2.886-6.575c-0.227-0.313-0.699-0.067-0.472,0.247
									c1.412,1.949,2.357,4.073,2.784,6.299C231.336,118.171,231.911,118.204,231.842,117.846L231.842,117.846z"/>
							</g>
						</g>
						<g>
							<g>
								<g>
									<path style="fill:#9E4950;" d="M227.486,114.583c-3.579-0.77-6.781,0.532-8.319,3.399
										c-0.159,0.296,0.366,0.602,0.525,0.305c1.42-2.647,4.388-3.888,7.703-3.175
										C227.762,115.191,227.858,114.663,227.486,114.583L227.486,114.583z"/>
								</g>
							</g>
						</g>
					</g>
				</g>
			</g>
			<g>
				<g>
					<path style="fill:#44584F;" d="M199.854,140.389c-2.972,6.604-5.036,13.569-6.161,20.722c-0.074,0.471-0.79,0.271-0.717-0.198
						c1.136-7.22,3.237-14.235,6.236-20.899C199.408,139.578,200.049,139.955,199.854,140.389L199.854,140.389z"/>
				</g>
			</g>
			<g>
				<g>
					<path style="fill:#44584F;" d="M195.497,152.488c-1.449,1.696-2.897,3.391-4.346,5.087c-0.311,0.364-0.835-0.163-0.526-0.525
						c1.449-1.696,2.897-3.392,4.346-5.087C195.283,151.598,195.806,152.126,195.497,152.488L195.497,152.488z"/>
				</g>
			</g>
			<g>
				<g>
					<path style="fill:#44584F;" d="M214.343,165.614c-4.509-0.394-8.895,1.937-11.074,5.909c-0.23,0.42-0.872,0.045-0.642-0.375
						c2.293-4.182,6.96-6.692,11.715-6.277C214.816,164.912,214.821,165.655,214.343,165.614L214.343,165.614z"/>
				</g>
			</g>
		</g>
		<g>
			<g>
				<g>
					<polygon style="fill:#DE7878;" points="178.342,418.351 182.841,438.273 197.231,439.173 196.014,418.351 					"/>
				</g>
				<g>
					<path style="fill:#6AB886;" d="M221.318,454.407h-38.742c0,0-0.56-5.616-1.052-10.624c-0.323-3.256-0.614-6.254-0.708-7.286
						c-0.236-2.62,3.557,0.655,3.557,0.655l5.793,0.762c0,0,0.279-1.457,2.398-2.012c0.902-0.236,1.847-0.218,2.746,0.03
						c3.772,1.042,3.793,5.152,3.793,5.152s11.832,4.151,15.026,4.368c2.837,0.195,5.358,1.767,6.728,6.857
						C221.03,452.951,221.183,453.647,221.318,454.407z"/>
				</g>
				<g>
					<path style="fill:#467B5B;" d="M197.231,439.173c0,0.861-1.111,1.559-2.481,1.559c-1.37,0-2.481-0.698-2.481-1.559
						c0-0.861,1.111-1.559,2.481-1.559C196.12,437.613,197.231,438.311,197.231,439.173z"/>
				</g>
				<g>
					<path style="fill:#FFFFFF;" d="M221.318,454.407h-38.742c0,0-0.56-5.616-1.052-10.624c0.588-0.292,3.635-0.67,6.061,1.654
						c2.792,2.672,2.443,4.771,5.932,4.198c3.49-0.572,5.758-2.672,9.597-0.763c3.051,1.517,4.536,3.435,4.536,3.435h13.206
						C221.03,452.951,221.183,453.647,221.318,454.407z"/>
				</g>
			</g>
			<g>
				<g>
					<path style="fill:#6337C7;" d="M201.061,425.084l-25.192-0.793c0,0-7.981-91.959-9.475-96.381
						c-11.266-33.313-29.725-100.177-29.725-100.177l49.018-0.417c0,0,12.654,76.924,15.375,95.352
						c0.152,1.029,0.277,2.648,0.381,4.745c0.079,1.622,0.145,3.528,0.198,5.67C202.321,360.209,201.061,425.084,201.061,425.084z"
						/>
				</g>
			</g>
			<g>
				<path style="fill:#371880;" d="M190.388,322.519c3.203,1.25,6.695,1.087,9.787-0.403c0.426-0.205,0.054-0.84-0.371-0.635
					c-2.921,1.408-6.205,1.505-9.22,0.329C190.142,321.637,189.951,322.348,190.388,322.519L190.388,322.519z"/>
			</g>
			<g>
				<g>
					<path style="fill:#371880;" d="M173.175,238.995c0.883,4.722,1.991,9.645,5.258,13.348c2.845,3.225,7.386,5.007,11.54,3.342
						c0.426-0.171,0.24-0.871-0.192-0.697c-4.266,1.71-8.727-0.394-11.398-3.838c-2.75-3.546-3.704-8.033-4.51-12.347
						C173.787,238.347,173.09,238.54,173.175,238.995L173.175,238.995z"/>
				</g>
			</g>
			<g>
				<path style="fill:#371880;" d="M180.804,424.197c-0.25,0-0.462-0.193-0.48-0.447c-0.063-0.863-6.319-86.442-8.578-95.367
					c-2.266-8.95-17.972-56.804-18.131-57.287c-0.083-0.253,0.055-0.525,0.308-0.608c0.254-0.083,0.525,0.055,0.608,0.307
					c0.159,0.483,15.875,48.369,18.149,57.351c2.28,9.007,8.348,92.005,8.605,95.534c0.019,0.265-0.18,0.496-0.446,0.516
					C180.828,424.197,180.816,424.197,180.804,424.197z"/>
			</g>
			<g>
				<g>
					<g>
						<polygon style="fill:#371880;" points="202.792,422.709 174.068,422.747 174.632,431.073 202.731,430.896 						"/>
					</g>
				</g>
			</g>
		</g>
		<g>
			<g>
				<g>
					<polygon style="fill:#DE7878;" points="120.402,420.079 123.42,439.173 134.379,442.852 136.668,418.351 					"/>
				</g>
				<g>
					<g>
						<g>
							<g>
								<g>
									<path style="fill:#6AB886;" d="M138.788,454.355h-25.021c-0.229-0.708-0.366-1.382-0.427-2.015
										c-0.326-3.471,1.7-5.759,4.168-6.109c1.256-0.176,2.731-1.462,3.809-2.584c0.006-0.147,0.363-6.33,1.307-6.664
										c0.502-0.179,0.939,0.447,1.24,1.084c0.697-1.605,2.286-1.958,3.868-1.849c4.063,0.277,6.406,5.115,6.406,5.115
										s1.489-6.198,2.647-3.099c0.464,1.241,0.878,4.073,1.206,7.023C138.485,449.672,138.788,454.355,138.788,454.355z"/>
								</g>
							</g>
						</g>
					</g>
				</g>
				<g>
					<ellipse style="fill:#467B5B;" cx="126.923" cy="440.476" rx="2.932" ry="1.843"/>
				</g>
				<g>
					<path style="fill:#FFFFFF;" d="M138.788,454.355h-25.021c-0.229-0.708-0.366-1.382-0.427-2.015
						c4.842,0.044,13.872,0.105,15.805-0.033c2.672-0.191,4.771-0.954,5.343-4.198c0.395-2.241,2.34-2.752,3.504-2.853
						C138.485,449.672,138.788,454.355,138.788,454.355z"/>
				</g>
			</g>
			<g>
				<g>
					<polygon style="fill:#6337C7;" points="114.883,219.269 111.092,335.634 116.077,426.639 141.796,426.639 147.339,331.533 
						154.073,235.574 					"/>
				</g>
			</g>
			<g>
				<path style="fill:#371880;" d="M111.482,335.139c3.244,2.249,7.677,2.112,10.76-0.363c0.369-0.296-0.081-0.878-0.451-0.581
					c-2.819,2.263-6.885,2.424-9.861,0.361C111.541,334.286,111.092,334.868,111.482,335.139L111.482,335.139z"/>
			</g>
			<g>
				<g>
					<path style="fill:#371880;" d="M152.043,239.945c0.097,8.434,0.194,16.868,0.291,25.303c0.005,0.465,0.728,0.466,0.723,0
						c-0.097-8.434-0.194-16.868-0.291-25.303C152.76,239.48,152.038,239.479,152.043,239.945L152.043,239.945z"/>
				</g>
			</g>
			<g>
				<g>
					<path style="fill:#371880;" d="M145.068,240.427c0.108,2.366,0.215,4.732,0.323,7.099c0.087,1.9,0.001,3.896,0.364,5.771
						c0.664,3.43,3.799,3.892,6.795,3.737c0.463-0.024,0.466-0.747,0-0.723c-1.384,0.072-2.883,0.138-4.168-0.465
						c-1.804-0.846-2.006-2.762-2.095-4.534c-0.183-3.627-0.33-7.256-0.495-10.884C145.77,239.964,145.047,239.961,145.068,240.427
						L145.068,240.427z"/>
				</g>
			</g>
			<g>
				<g>
					<path style="fill:#371880;" d="M127.475,236.427c-0.129,4.432-0.386,9.072-2.629,13.017c-2.103,3.699-6.147,6.415-10.522,5.406
						c-0.453-0.104-0.646,0.592-0.192,0.697c4.246,0.98,8.353-1.272,10.724-4.751c2.863-4.202,3.198-9.446,3.342-14.369
						C128.212,235.961,127.489,235.962,127.475,236.427L127.475,236.427z"/>
				</g>
			</g>
			<g>
				<path style="fill:#371880;" d="M138.789,425.565c-0.005,0-0.01,0-0.015,0c-0.266-0.008-0.475-0.23-0.467-0.497
					c0.1-3.295,2.469-80.772,3.339-87.215c0.864-6.403,4.864-61.999,4.904-62.56c0.019-0.266,0.249-0.467,0.515-0.446
					c0.266,0.019,0.465,0.25,0.446,0.515c-0.04,0.561-4.042,56.187-4.91,62.62c-0.863,6.393-3.306,86.309-3.331,87.116
					C139.262,425.359,139.048,425.565,138.789,425.565z"/>
			</g>
			<g>
				<g>
					<g>
						<polygon style="fill:#371880;" points="143.731,423.034 113.25,422.495 113.561,430.391 143.82,430.783 						"/>
					</g>
				</g>
			</g>
		</g>
		<g>
			<g>
				<g>
					<path style="fill:#272327;" d="M114.491,177.19c0.711,16.667-8.235,42.825-2.963,61.56c2.514,8.935,75.815,11.543,77.758-6.41
						c0.84-7.769-6.123-40.681-7.237-52.2c-0.05-0.513-0.092-1.07-0.129-1.67c-0.307-5.076-0.178-13.142-0.262-21.312
						c-0.126-12.607-0.756-25.464-4.251-27.985c-3.092-2.23-10.548-4.417-15.416-5.678c-2.646-0.689-4.528-1.103-4.528-1.103
						s-6.436-7.553-18.299,0c-2.333,1.486-4.699,2.48-7.026,3.22c-9.495,3.032-18.349,1.893-21.931,13.085
						c-1.875,5.861-1.05,10.875,0.374,16.761c1.283,5.314,3.052,11.338,3.756,19.345C114.404,175.585,114.454,176.38,114.491,177.19
						z"/>
				</g>
			</g>
			<g>
				<path style="fill:#44584F;" d="M116.02,131.014c4.987,1.597,8.348,6.148,8.409,11.388c0.004,0.38-0.585,0.38-0.59,0
					c-0.058-4.972-3.24-9.303-7.975-10.819C115.503,131.467,115.657,130.897,116.02,131.014L116.02,131.014z"/>
			</g>
			<g>
				<g>
					<g>
						<path style="fill:#44584F;" d="M165.267,185.887c4.017,6.591,11.577,10.316,19.148,10.059c-0.039-0.238-0.08-0.475-0.12-0.711
							c-3.434,0.111-6.88-0.622-9.991-2.13c-7.779-3.774-12.295-12.264-11.408-20.83c0.945-9.126,8.957-17.903,18.753-15.486h0.002
							c0.451,0.108,0.641-0.586,0.19-0.697c-0.067-0.017-0.132-0.031-0.2-0.046c-5.239-1.215-10.697,0.742-14.334,4.639
							C160.992,167.452,160.539,178.127,165.267,185.887z"/>
					</g>
				</g>
				<g>
					<g>
						<path style="fill:#44584F;" d="M133.072,245.113c0.236,0.019,0.472,0.039,0.711,0.06c-0.434-5.523-0.048-11.107,1.33-16.49
							c3.106-12.15,11.729-23.011,23.773-27.221c8.982-3.14,19.382-1.815,27.084,3.627c-0.058-0.332-0.113-0.663-0.169-0.995
							c-3.35-2.244-7.184-3.771-11.172-4.516c-12.461-2.325-24.747,3.441-32.487,13.17
							C134.863,221.892,132.226,233.638,133.072,245.113z"/>
					</g>
				</g>
				<g>
					<g>
						<path style="fill:#44584F;" d="M151.437,245.605c0.243-0.007,0.487-0.015,0.73-0.022c-0.038-0.952-0.029-1.892,0.022-2.798
							c0.569-10.396,6.497-20.337,16.367-24.313c6.519-2.624,14.03-1.986,19.792,1.67c-0.044-0.306-0.087-0.615-0.13-0.93
							c-2.2-1.328-4.639-2.265-7.184-2.75c-10.717-2.044-21.363,4.34-26.221,13.784C152.394,234.951,151.242,240.32,151.437,245.605
							z"/>
					</g>
				</g>
				<g>
					<g>
						<path style="fill:#44584F;" d="M115.486,218.325c13.184,0.543,23.881-10.935,28.4-22.333
							c4.57-11.525,3.514-24.559-3.555-34.837c-1.686-2.451-3.676-4.669-5.889-6.631c0.079-0.254,0.144-0.512,0.217-0.768
							c6.335,5.524,10.814,13.171,12.245,21.506c2.215,12.897-2.725,26.722-12.184,35.683c-5.183,4.91-11.956,8.404-19.235,8.104
							C115.023,219.029,115.02,218.306,115.486,218.325z"/>
					</g>
				</g>
				<g>
					<g>
						<path style="fill:#44584F;" d="M126.722,197.632c-2.228,2.643-5.02,4.729-8.2,6.077c-0.078,0.037-0.159,0.069-0.24,0.103
							c-0.429,0.176-0.615-0.522-0.191-0.696c0.189-0.078,0.375-0.157,0.561-0.243c6.994-3.128,11.948-10.207,12.757-17.806
							c0.505-4.724-0.583-9.572-2.929-13.688c0.103-0.299,0.203-0.598,0.304-0.897c1.701,2.807,2.824,5.971,3.263,9.244
							C132.906,186.152,130.891,192.685,126.722,197.632z"/>
					</g>
				</g>
			</g>
			<g>
				<g>
					<path style="fill:#44584F;" d="M118.949,240.142c0.157,0.441-0.542,0.63-0.696,0.194c-5.638-15.921-0.488-32.514,1.201-48.754
						c0.301-0.537,0.598-1.076,0.89-1.618c-0.378,4.302-1.027,8.604-1.691,12.909c-0.044,0.279-0.088,0.556-0.13,0.836
						c-1.088,7.05-2.167,14.105-2.091,21.167C116.487,230.07,117.211,235.235,118.949,240.142z"/>
				</g>
			</g>
			<g>
				<g>
					<g>
						<path style="fill:#44584F;" d="M163.885,136.553c-1.876,4.079-7.878,3.968-11.633,3.832
							c-5.425-0.197-10.741-1.576-15.606-3.975c-0.429-0.212-0.053-0.853,0.375-0.642c4.48,2.209,9.363,3.533,14.353,3.832
							c3.645,0.218,10.02,0.599,11.868-3.422C163.443,135.744,164.084,136.121,163.885,136.553L163.885,136.553z"/>
					</g>
				</g>
			</g>
			<g>
				<g>
					<path style="fill:#FFFFFF;" d="M132.136,125.614c3.171,4.025,11.506,9.017,18.696,8.274c10.027-1.036,12.79-6.4,11.157-10.392
						c-2.646-0.689-4.528-1.103-4.528-1.103s-6.436-7.553-18.299,0C136.828,123.88,134.462,124.873,132.136,125.614z"/>
				</g>
			</g>
		</g>
		<g>
			<g>
				<path style="fill:#272327;" d="M159.755,92.371l-15.53,15.998c0,0-2.9,4.009-5.312,3.72c-2.411-0.289-4.59-8.192-4.59-8.192
					s-4.218-1.469-2.98-10.673c1.239-9.204,8.099-11.003,8.099-11.003s3.5-0.169,5.617-2.008c2.95-2.563,3.323-5.382,5.483-5.382
					c2.16,0,1.912,2.972,1.912,2.972s3.337-1.767,5.006-0.161c1.669,1.607-0.748,3.936-0.748,3.936s4.755-1.606,5.714,0.723
					c0.96,2.329-2.672,3.729-2.672,3.729S161.788,89.238,159.755,92.371z"/>
			</g>
			<g>
				<g>
					<g>
						<g>
							<path style="fill:#DE7878;" d="M139.376,125.741c0,0,14.317,8.221,19.291-0.018l-2.611-7.207l-1.723-4.756l-1.206-3.33
								l-13.891-1.414C140.321,115.277,140.277,120.792,139.376,125.741z"/>
						</g>
					</g>
				</g>
				<g>
					<g>
						<g>
							<path style="fill:#272327;" d="M142.817,113.874c6.638,6.86,12.158,7.317,13.896,6.455l-2.38-6.569L142.817,113.874z"/>
						</g>
					</g>
				</g>
			</g>
			<g>
				<g>
					<g>
						<path style="fill:#DE7878;" d="M137.477,105.362c0.086,0.551,0.194,1.055,0.329,1.529c0.312,1.096,0.764,2.025,1.404,2.955
							c0.843,1.225,2.01,2.455,3.609,4.067c2.512,2.532,6.154,3.12,9.535,2.661c8.979-1.218,8.945-7.448,6.927-16.586
							c-1.255-5.674-0.076-9.079-1.817-11.11l-0.003,0c-0.11-0.09-0.223-0.177-0.335-0.261c-2.674-2.03-6.067-2.885-9.404-2.494
							c-0.643,0.076-1.255,0.168-1.839,0.278c-0.133,0.021-0.266,0.047-0.395,0.075c-0.055,0.009-0.109,0.02-0.161,0.033
							c-0.148,0.029-0.293,0.059-0.437,0.095c-0.104,0.021-0.207,0.046-0.307,0.072c-0.235,0.055-0.461,0.114-0.681,0.175
							c-7.041,1.973-8.221,6.589-7.876,10.937C136.259,100.744,137.199,103.573,137.477,105.362z"/>
					</g>
				</g>
				<g>
					<g>
						<g>
							<g>
								<path style="fill:#FFFFFF;" d="M157.039,105.024c0,0-2.326,0.803-6.763,0.398c0,0,0.995,3.837,4.204,3.295
									C157.201,108.257,157.039,105.024,157.039,105.024z"/>
							</g>
						</g>
					</g>
				</g>
				<g>
					<g>
						<g>
							<path style="fill:#272327;" d="M153.081,98.249c0.88,0.966,1.761,1.932,2.641,2.898c0.133,0.146,0.151,0.382,0,0.526
								c-0.454,0.434-0.846,0.902-1.189,1.43c-0.26,0.4-0.903,0.028-0.642-0.375c0.377-0.581,0.804-1.101,1.305-1.58
								c0,0.175,0,0.35,0,0.526c-0.88-0.966-1.761-1.932-2.641-2.898C152.234,98.422,152.758,97.895,153.081,98.249L153.081,98.249z
								"/>
						</g>
					</g>
				</g>
				<g>
					<g>
						<g>
							<path style="fill:#272327;" d="M151.327,99.894c0.02,0.491-0.263,0.9-0.63,0.915c-0.368,0.015-0.682-0.371-0.702-0.862
								c-0.02-0.491,0.263-0.9,0.63-0.915C150.993,99.018,151.307,99.404,151.327,99.894z"/>
						</g>
					</g>
				</g>
				<g>
					<g>
						<g>
							<path style="fill:#272327;" d="M157.208,99.205c0.02,0.491-0.263,0.9-0.631,0.915c-0.368,0.015-0.682-0.371-0.702-0.862
								c-0.02-0.491,0.262-0.9,0.63-0.915C156.874,98.328,157.188,98.714,157.208,99.205z"/>
						</g>
					</g>
				</g>
				<g>
					<g>
						<g>
							<path style="fill:#9E4950;" d="M146.781,103.234c0.076,0.491,0.902,0.77,1.845,0.624c0.942-0.147,1.644-0.664,1.568-1.155
								c-0.076-0.491-0.902-0.77-1.845-0.624C147.407,102.226,146.705,102.743,146.781,103.234z"/>
						</g>
					</g>
				</g>
				<g>
					<g>
						<g>
							<path style="fill:#9E4950;" d="M159.755,102.291c-0.281,0.258-0.746,0.466-1.29,0.55c-0.941,0.146-1.767-0.132-1.844-0.625
								c-0.076-0.49,0.626-1.006,1.567-1.153c0.518-0.081,1.002-0.032,1.345,0.11L159.755,102.291z"/>
						</g>
					</g>
				</g>
				<g>
					<g>
						<g>
							<g>
								<path style="fill:#272327;" d="M150.097,96.429c-0.582-0.143-1.381-0.007-1.551,0.674c-0.103,0.413-0.445,0.739-0.898,0.671
									c-0.391-0.058-0.775-0.479-0.671-0.898c0.371-1.485,1.84-2.385,3.348-2.016c0.414,0.101,0.738,0.446,0.671,0.898
									C150.937,96.15,150.517,96.532,150.097,96.429L150.097,96.429z"/>
							</g>
						</g>
					</g>
				</g>
				<g>
					<g>
						<g>
							<g>
								<path style="fill:#272327;" d="M156.849,96.995c-0.331-0.624-0.776-0.961-1.503-0.931c-1.02,0.041-1.109-1.542-0.089-1.583
									c1.254-0.051,2.334,0.54,2.925,1.655C158.656,97.032,157.327,97.898,156.849,96.995L156.849,96.995z"/>
							</g>
						</g>
					</g>
				</g>
			</g>
			<g>
				<g>
					<g>
						<path style="fill:#272327;" d="M141.08,107.381c-1.26,0.215-2.358,0.003-3.274-0.491c0.312,1.096,0.764,2.025,1.404,2.955
							C140.032,109.269,140.686,108.469,141.08,107.381z"/>
					</g>
				</g>
			</g>
			<g>
				<g>
					<path style="fill:#272327;" d="M138.024,97.413c3.712,0.417,5.013,6.44,6.678,5.111c1.665-1.329-3.272-10.721,1.467-11.191
						c4.74-0.47,4.296,0.511,6.469,0.33c3.696-0.308,3.411-2.135,4.824-2.785c-0.11-0.09-0.223-0.177-0.335-0.261
						c-2.674-2.03-6.067-2.885-9.404-2.494c-0.643,0.076-1.255,0.168-1.839,0.278c-0.133,0.021-0.266,0.047-0.395,0.075
						c-0.055,0.009-0.109,0.02-0.161,0.033c-0.148,0.029-0.293,0.059-0.437,0.095c-0.104,0.021-0.207,0.046-0.307,0.072
						c-0.233,0.052-0.461,0.112-0.681,0.175c-7.041,1.973-8.221,6.589-7.876,10.937C136.546,97.469,137.21,97.32,138.024,97.413z"/>
				</g>
			</g>
			<g>
				<g>
					<path style="fill:#272327;" d="M144.701,102.524c-1.665,1.327-2.963-4.694-6.677-5.111c-0.814-0.092-1.478,0.055-1.997,0.375
						c0.233,2.955,1.173,5.785,1.452,7.573c0.083,0.536,0.187,1.03,0.318,1.492c-1.947-3.493-4.161-7.627-4.765-9.424
						c-0.123-0.362-0.209-0.709-0.263-1.04c0.07-0.104,0.14-0.206,0.216-0.304c0.321-0.434,0.695-0.817,1.107-1.16
						c0.652-0.537,1.408-0.967,2.217-1.307c2.624-1.11,5.835-1.292,8.136-1.239C143.012,94.963,146.063,101.436,144.701,102.524z"/>
				</g>
			</g>
			<g>
				<g>
					<g>
						<path style="fill:#9E4950;" d="M154.665,110.493c-0.642,0.33-1.361,0.443-1.985,0.016c-0.316-0.217,0.035-0.696,0.351-0.48
							c0.445,0.305,0.947,0.15,1.39-0.078C154.762,109.775,155.005,110.318,154.665,110.493L154.665,110.493z"/>
					</g>
				</g>
			</g>
			<g>
				<g>
					<g>
						<path style="fill:#DE7878;" d="M143.576,104.725c0.259-1.512-0.255-3.051-1.283-4.19c-1.332-1.475-3.712-3.694-5.574-3.133
							c-2.736,0.825-2.68,3.37-2.01,5.867c0.671,2.497,2.853,5.564,6.261,4.483C142.674,107.212,143.364,105.964,143.576,104.725z"
							/>
					</g>
				</g>
			</g>
			<g>
				<g>
					<g>
						<g>
							<g>
								<path style="fill:#272327;" d="M140.174,104.793c-0.028-1.084-0.132-2.207-0.687-3.166c-0.496-0.857-1.722-2.02-2.831-1.454
									c-0.372,0.19-0.732-0.357-0.357-0.548c1.068-0.545,2.245-0.049,3.051,0.755c1.164,1.16,1.438,2.813,1.478,4.388
									C140.838,105.188,140.185,105.216,140.174,104.793L140.174,104.793z"/>
							</g>
						</g>
					</g>
				</g>
			</g>
		</g>
		<g>
			<g>
				<path style="fill:#44584F;" d="M181.801,138.387c1.304,10.11,1.433,20.426,0.381,30.565c-0.049,0.471-0.792,0.476-0.743,0
					c1.052-10.139,0.923-20.456-0.381-30.565C180.997,137.914,181.74,137.918,181.801,138.387L181.801,138.387z"/>
			</g>
		</g>
		<g>
			<g>
				<g>
					<g>
						<g>
							<g>
								<g>
									
										<rect x="75.811" y="199.385" transform="matrix(0.9941 -0.1088 0.1088 0.9941 -33.833 11.7045)" style="fill:#E59C25;" width="29.038" height="232.946"/>
								</g>
							</g>
						</g>
					</g>
					<g>
						<g>
							<g>
								<g>
									<g>
										
											<rect x="80.861" y="200.316" transform="matrix(0.9941 -0.1088 0.1088 0.9941 -33.9841 10.7848)" style="fill:#A8681B;" width="1.936" height="232.947"/>
									</g>
								</g>
							</g>
						</g>
						<g>
							<g>
								<g>
									<g>
										
											<rect x="89.362" y="199.385" transform="matrix(0.9941 -0.1088 0.1088 0.9941 -33.8327 11.7043)" style="fill:#A8681B;" width="1.936" height="232.946"/>
									</g>
								</g>
							</g>
						</g>
						<g>
							<g>
								<g>
									<g>
										
											<rect x="97.86" y="198.455" transform="matrix(0.9941 -0.1088 0.1088 0.9941 -33.6807 12.6234)" style="fill:#A8681B;" width="1.936" height="232.946"/>
									</g>
								</g>
							</g>
						</g>
					</g>
				</g>
				<g>
					<g>
						<g>
							<g>
								<g>
									<g>
										
											<rect x="87.822" y="419.495" transform="matrix(0.9941 -0.1088 0.1088 0.9941 -45.699 13.6621)" style="fill:#272327;" width="29.038" height="12.181"/>
									</g>
								</g>
							</g>
						</g>
					</g>
				</g>
				<g>
					<g>
						<g>
							<g>
								<path style="fill:#CB462A;" d="M89.917,444.44l-1.347-11.22l28.866-3.159l1.32,10.995c0.603,5.023-3,9.576-8.027,10.143
									l-10.741,1.212C95.011,452.972,90.514,449.412,89.917,444.44z"/>
							</g>
						</g>
					</g>
				</g>
				<g>
					<g>
						<g>
							<polygon style="fill:#CE7E5D;" points="92.089,198.497 63.224,201.657 69.675,181.338 71.016,177.111 74.809,165.169 
								80.703,176.538 82.998,180.965 							"/>
						</g>
					</g>
					<g>
						<g>
							<g>
								<g>
									<path style="fill:#1C2F35;" d="M80.703,176.538c-1.212,0.539-2.703,0.973-4.521,1.172
										c-2.169,0.237-3.863-0.067-5.165-0.598l3.793-11.942L80.703,176.538z"/>
								</g>
							</g>
						</g>
					</g>
				</g>
			</g>
		</g>
		<g>
			<g>
				<path style="fill:#DE7878;" d="M66.227,218.704c0,0,8.345,0.923,9.368,2.835c1.023,1.911-7.534,2.181-7.534,2.181
					s4.914,0.671,5.96,2.038c1.046,1.366-5.337,2.218-5.337,2.218s3.264,0.583,3.088,2.393c-0.177,1.81-1.527,2.248-3.414,2.384
					c-1.888,0.137-3.558-0.883-4.155-1.718c-0.597-0.835,0.321-2.563,0.321-2.563s-2.852-2.06-2.767-3.266
					c0.085-1.207,1.071-1.861,1.071-1.861s-1.43-0.481-1.72-1.992c-0.29-1.512,0.546-2.26,0.546-2.26s-0.803-2.86-0.942-4.471
					c-0.138-1.611,2.798-2.377,4.615-3.068c1.817-0.69,4.23,3.199,6.86,4.261c0,0,1.249,1.084-0.417,1.876
					c-1.666,0.792-4.594-1.304-5.298-1.36C65.767,216.274,66.227,218.704,66.227,218.704z"/>
			</g>
		</g>
		<g>
			<path style="fill:#44584F;" d="M131.739,155.205c-3.146,18.029-10.303,35.223-20.888,50.154
				c-0.284,0.401,0.377,0.783,0.659,0.385c10.618-14.978,17.809-32.251,20.965-50.337
				C132.559,154.927,131.824,154.721,131.739,155.205L131.739,155.205z"/>
		</g>
	</g>
	<g>
		<g>
			<g>
				<path style="fill:#6AB886;" d="M179.507,106.935c-0.237,0-0.471-0.086-0.658-0.252c-0.305-0.271-0.413-0.694-0.274-1.078
					l2.638-7.336c-1.785-2.808-2.727-6.053-2.727-9.4c0-9.679,7.876-17.554,17.557-17.554c9.679,0,17.554,7.875,17.554,17.554
					c0,9.681-7.875,17.557-17.554,17.557c-3.431,0-6.74-0.984-9.59-2.849l-6.501,3.253
					C179.81,106.9,179.658,106.935,179.507,106.935z M196.043,72.312c-9.13,0-16.559,7.427-16.559,16.557
					c0,3.236,0.934,6.37,2.7,9.063l0.136,0.208l-2.808,7.808l7.014-3.525l0.242,0.164c2.738,1.858,5.945,2.84,9.274,2.84
					c9.129,0,16.557-7.428,16.557-16.559C212.599,79.739,205.172,72.312,196.043,72.312z"/>
			</g>
			<g>
				<g>
					<g>
						<g>
							<g>
								<path style="fill:#6AB886;" d="M190.585,89.704c0,1.191-0.966,2.157-2.157,2.157c-1.191,0-2.157-0.966-2.157-2.157
									c0-1.192,0.966-2.157,2.157-2.157C189.619,87.547,190.585,88.512,190.585,89.704z"/>
							</g>
						</g>
					</g>
				</g>
			</g>
			<g>
				<g>
					<g>
						<g>
							<g>
								<path style="fill:#6AB886;" d="M205.814,89.704c0,1.191-0.966,2.157-2.157,2.157c-1.191,0-2.157-0.966-2.157-2.157
									c0-1.192,0.966-2.157,2.157-2.157C204.848,87.547,205.814,88.512,205.814,89.704z"/>
							</g>
						</g>
					</g>
				</g>
			</g>
			<g>
				<g>
					<g>
						<g>
							<g>
								<path style="fill:#6AB886;" d="M198.199,89.704c0,1.191-0.966,2.157-2.157,2.157c-1.191,0-2.157-0.966-2.157-2.157
									c0-1.192,0.966-2.157,2.157-2.157C197.233,87.547,198.199,88.512,198.199,89.704z"/>
							</g>
						</g>
					</g>
				</g>
			</g>
		</g>
		<g>
			<g>
				<rect x="264.31" y="89.622" style="fill:#D3E7E0;" width="27.689" height="35.174"/>
				<g>
					<path style="fill:#ADD1C8;" d="M287.324,94.744h-18.337c-0.312,0-0.565-0.253-0.565-0.565l0,0c0-0.312,0.253-0.564,0.565-0.564
						h18.337c0.312,0,0.565,0.253,0.565,0.564l0,0C287.888,94.491,287.635,94.744,287.324,94.744z"/>
					<path style="fill:#ADD1C8;" d="M287.324,98.373h-18.337c-0.312,0-0.565-0.253-0.565-0.565l0,0c0-0.312,0.253-0.564,0.565-0.564
						h18.337c0.312,0,0.565,0.253,0.565,0.564l0,0C287.888,98.12,287.635,98.373,287.324,98.373z"/>
					<path style="fill:#ADD1C8;" d="M287.324,102.002h-18.337c-0.312,0-0.565-0.253-0.565-0.564l0,0
						c0-0.312,0.253-0.565,0.565-0.565h18.337c0.312,0,0.565,0.253,0.565,0.565l0,0
						C287.888,101.749,287.635,102.002,287.324,102.002z"/>
					<path style="fill:#ADD1C8;" d="M287.324,105.631h-18.337c-0.312,0-0.565-0.253-0.565-0.565l0,0
						c0-0.312,0.253-0.564,0.565-0.564h18.337c0.312,0,0.565,0.253,0.565,0.564l0,0
						C287.888,105.378,287.635,105.631,287.324,105.631z"/>
					<path style="fill:#ADD1C8;" d="M287.324,109.26h-18.337c-0.312,0-0.565-0.253-0.565-0.564l0,0c0-0.312,0.253-0.564,0.565-0.564
						h18.337c0.312,0,0.565,0.253,0.565,0.564l0,0C287.888,109.008,287.635,109.26,287.324,109.26z"/>
					<path style="fill:#ADD1C8;" d="M287.324,112.89h-18.337c-0.312,0-0.565-0.253-0.565-0.565l0,0c0-0.312,0.253-0.565,0.565-0.565
						h18.337c0.312,0,0.565,0.253,0.565,0.565l0,0C287.888,112.637,287.635,112.89,287.324,112.89z"/>
					<path style="fill:#ADD1C8;" d="M287.324,116.519h-18.337c-0.312,0-0.565-0.253-0.565-0.565l0,0
						c0-0.312,0.253-0.564,0.565-0.564h18.337c0.312,0,0.565,0.253,0.565,0.564l0,0
						C287.888,116.266,287.635,116.519,287.324,116.519z"/>
					<path style="fill:#ADD1C8;" d="M287.324,120.148h-18.337c-0.312,0-0.565-0.253-0.565-0.565l0,0
						c0-0.312,0.253-0.564,0.565-0.564h18.337c0.312,0,0.565,0.253,0.565,0.564l0,0
						C287.888,119.895,287.635,120.148,287.324,120.148z"/>
				</g>
			</g>
			<rect x="264.311" y="89.691" style="fill:#ADD1C8;" width="13.844" height="28.975"/>
			<g>
				<rect x="248.384" y="81.442" style="fill:#D3E7E0;" width="27.689" height="35.174"/>
				<g>
					<path style="fill:#ADD1C8;" d="M271.398,86.563H253.06c-0.312,0-0.564-0.253-0.564-0.564l0,0c0-0.312,0.253-0.564,0.564-0.564
						h18.337c0.312,0,0.565,0.253,0.565,0.564l0,0C271.962,86.311,271.709,86.563,271.398,86.563z"/>
					<path style="fill:#ADD1C8;" d="M271.398,90.192H253.06c-0.312,0-0.564-0.253-0.564-0.564l0,0c0-0.312,0.253-0.565,0.564-0.565
						h18.337c0.312,0,0.565,0.253,0.565,0.565l0,0C271.962,89.94,271.709,90.192,271.398,90.192z"/>
					<path style="fill:#ADD1C8;" d="M271.398,93.822H253.06c-0.312,0-0.564-0.253-0.564-0.564l0,0c0-0.312,0.253-0.565,0.564-0.565
						h18.337c0.312,0,0.565,0.253,0.565,0.565l0,0C271.962,93.569,271.709,93.822,271.398,93.822z"/>
					<path style="fill:#ADD1C8;" d="M271.398,97.451H253.06c-0.312,0-0.564-0.253-0.564-0.565l0,0c0-0.312,0.253-0.564,0.564-0.564
						h18.337c0.312,0,0.565,0.253,0.565,0.564l0,0C271.962,97.198,271.709,97.451,271.398,97.451z"/>
					<path style="fill:#ADD1C8;" d="M271.398,101.08H253.06c-0.312,0-0.564-0.253-0.564-0.564l0,0c0-0.312,0.253-0.565,0.564-0.565
						h18.337c0.312,0,0.565,0.253,0.565,0.565l0,0C271.962,100.827,271.709,101.08,271.398,101.08z"/>
					<path style="fill:#ADD1C8;" d="M271.398,104.709H253.06c-0.312,0-0.564-0.253-0.564-0.564l0,0c0-0.312,0.253-0.565,0.564-0.565
						h18.337c0.312,0,0.565,0.253,0.565,0.565l0,0C271.962,104.456,271.709,104.709,271.398,104.709z"/>
					<path style="fill:#ADD1C8;" d="M271.398,108.338H253.06c-0.312,0-0.564-0.253-0.564-0.565l0,0c0-0.312,0.253-0.565,0.564-0.565
						h18.337c0.312,0,0.565,0.253,0.565,0.565l0,0C271.962,108.086,271.709,108.338,271.398,108.338z"/>
					<path style="fill:#ADD1C8;" d="M271.398,111.967H253.06c-0.312,0-0.564-0.253-0.564-0.564l0,0c0-0.312,0.253-0.564,0.564-0.564
						h18.337c0.312,0,0.565,0.253,0.565,0.564l0,0C271.962,111.715,271.709,111.967,271.398,111.967z"/>
				</g>
			</g>
		</g>
		<g style="opacity:0.5;">
			<g>
				<g>
					<g>
						<path style="fill:#ADD1C8;" d="M94.323,144.475l1.723-4.238l-3.97-1.615c0.209-1.086,0.236-2.209,0.082-3.331l3.847-1.622
							l-1.778-4.215l-3.682,1.553c-0.777-1.173-1.769-2.152-2.904-2.9l1.616-3.971l-4.238-1.723l-1.664,4.092
							c-0.914-0.126-1.847-0.129-2.783,0l-1.622-3.848l-4.215,1.778l1.553,3.682c-1.173,0.777-2.152,1.769-2.9,2.904l-3.471-1.412
							l-1.724,4.238l3.593,1.461c-0.16,1.166-0.126,2.365,0.131,3.555l-3.683,1.553l1.778,4.215l3.848-1.622
							c0.81,1.041,1.801,1.896,2.91,2.546l-1.625,3.995l4.238,1.723l1.761-4.331c0.989,0.082,1.998,0.02,2.999-0.197l1.553,3.683
							l4.215-1.778l-1.622-3.847c0.744-0.579,1.393-1.251,1.942-1.993L94.323,144.475z M83.601,140.554
							c-2.13,0.898-4.595-0.104-5.493-2.234c-0.898-2.131,0.104-4.594,2.234-5.493c2.131-0.898,4.595,0.104,5.493,2.234
							C86.734,137.191,85.732,139.655,83.601,140.554z"/>
					</g>
				</g>
			</g>
		</g>
		<g style="opacity:0.5;">
			<g>
				<g>
					<g>
						<path style="fill:#ADD1C8;" d="M596.125,112.602l1.723-4.238l-3.97-1.615c0.209-1.086,0.236-2.209,0.082-3.331l3.847-1.622
							l-1.778-4.215l-3.682,1.553c-0.777-1.173-1.769-2.152-2.904-2.9l1.616-3.971l-4.238-1.723l-1.664,4.092
							c-0.914-0.126-1.847-0.129-2.783,0l-1.622-3.848l-4.215,1.778l1.553,3.682c-1.173,0.777-2.152,1.769-2.9,2.904l-3.471-1.412
							l-1.724,4.238l3.593,1.461c-0.16,1.166-0.127,2.365,0.131,3.555l-3.683,1.553l1.778,4.215l3.848-1.622
							c0.81,1.041,1.801,1.896,2.91,2.546l-1.625,3.995l4.238,1.723l1.761-4.331c0.99,0.082,1.998,0.021,2.999-0.197l1.553,3.683
							l4.215-1.778l-1.622-3.847c0.744-0.58,1.393-1.251,1.942-1.993L596.125,112.602z M585.403,108.681
							c-2.13,0.898-4.595-0.103-5.493-2.234c-0.898-2.131,0.104-4.594,2.234-5.493c2.131-0.898,4.595,0.104,5.493,2.234
							C588.535,105.319,587.533,107.783,585.403,108.681z"/>
					</g>
				</g>
			</g>
		</g>
	</g>
	<g>
		<g>
			<g>
				<g>
					<g>
						<g>
							<g>
								<g>
									<g>
										<path style="fill:#CB462A;" d="M429.947,143.064c2.504-6.008,6.906-12.458,6.345-14.651
											c-1.931-7.543-28.647-15.302-28.647-15.302l-11.32,1.595c0,0-3.405,1.099-7.34,2.823
											c-4.688,2.056-8.767,4.666-11.434,6.758c-3.418,2.681-0.67,10.897,0.037,18.777H429.947z"/>
									</g>
								</g>
							</g>
						</g>
					</g>
					<g>
						<path style="fill:#821327;" d="M423.59,126.659c1.609-2.331,4.549-3.366,7.268-2.597c0.449,0.127,0.641-0.571,0.193-0.698
							c-3.048-0.862-6.291,0.33-8.086,2.93C422.699,126.677,423.326,127.04,423.59,126.659L423.59,126.659z"/>
					</g>
					<g>
						<g>
							<g>
								<g>
									<g>
										<path style="fill:#821327;" d="M388.21,132.659c6.727,2.016,14.087,0.993,20.007-2.785
											c0.423-0.27,0.031-0.948-0.395-0.676c-5.754,3.672-12.866,4.665-19.404,2.706
											C387.934,131.759,387.727,132.514,388.21,132.659L388.21,132.659z"/>
									</g>
								</g>
							</g>
						</g>
					</g>
					<g>
						<g>
							<g>
								<g>
									<g>
										<path style="fill:#DAA151;" d="M373.253,142.564h5.059c-0.314-4.858-0.655-9.026-0.732-9.952
											C377.63,133.539,377.532,137.463,373.253,142.564z"/>
									</g>
								</g>
							</g>
						</g>
					</g>
				</g>
			</g>
			<g>
				<g>
					<g>
						<g>
							<g>
								<path style="fill:#CB462A;" d="M378.877,142.685c0,0-16.416,12.099-27.406,13.018c-0.465,0.041-0.919,0.06-1.359,0.06
									c-5.666,0-8.705-3.355-10.137-7.142c-1.02-2.695-1.444-6.349-1.503-8.443c-0.152-5.439-1.181-20.498,0.877-27.153
									c2.759-8.909,8.98-9.244,12.125-3.534c2.659,4.831,4.315,20.678,5.174,23.121c1.026,2.916,20.998-9.679,24.524-10.057
									C386.039,122.033,378.877,142.685,378.877,142.685z"/>
							</g>
						</g>
					</g>
				</g>
				<g>
					<path style="fill:#821327;" d="M356.802,133.543c1.528,1.262,2.556,2.912,3.006,4.843c0.106,0.454,0.804,0.262,0.698-0.193
						c-0.476-2.043-1.575-3.826-3.192-5.162C356.957,132.737,356.442,133.246,356.802,133.543L356.802,133.543z"/>
				</g>
				<g>
					<path style="fill:#821327;" d="M340.002,147.69c4.454,0.357,8.053,3.467,9.095,7.801c0.109,0.453,0.807,0.261,0.698-0.192
						c-1.12-4.66-5.025-7.951-9.793-8.333C339.538,146.929,339.54,147.653,340.002,147.69L340.002,147.69z"/>
				</g>
				<g>
					<g>
						<g>
							<g>
								<g>
									<path style="fill:#821327;" d="M378.463,130.238c-0.04,4.173-2.686,8.745-0.075,12.648
										c0.279,0.417,0.957,0.025,0.676-0.395c-2.482-3.71,0.144-8.252,0.182-12.253
										C379.251,129.735,378.468,129.734,378.463,130.238L378.463,130.238z"/>
								</g>
							</g>
						</g>
					</g>
				</g>
				<g>
					<g>
						<g>
							<g>
								<g>
									<path style="fill:#7E7768;" d="M365.456,114.827l-21.411-1.828c-1.348-0.115-2.617-1.241-2.835-2.516l-4.873-28.534
										c-0.217-1.274,0.699-2.214,2.047-2.099l21.411,1.828c1.348,0.115,2.617,1.242,2.835,2.516l4.873,28.534
										C367.721,114.002,366.805,114.942,365.456,114.827z"/>
								</g>
							</g>
						</g>
					</g>
					<g>
						<g>
							<g>
								<g>
									<path style="fill:#272327;" d="M363.249,114.638l-21.411-1.828c-1.348-0.115-2.617-1.242-2.835-2.516l-4.873-28.534
										c-0.218-1.274,0.699-2.214,2.047-2.099l21.411,1.828c1.348,0.115,2.617,1.241,2.835,2.516l4.873,28.534
										C365.513,113.813,364.597,114.753,363.249,114.638z"/>
								</g>
							</g>
						</g>
					</g>
					<g>
						<g>
							<g>
								<g>
									<path style="fill:#7E7768;" d="M345.705,97.642c0.268,1.634,1.841,3.074,3.513,3.217c1.672,0.143,2.811-1.066,2.543-2.699
										c-0.268-1.634-1.841-3.074-3.513-3.216C346.576,94.8,345.437,96.009,345.705,97.642z"/>
								</g>
							</g>
						</g>
					</g>
				</g>
				<g>
					<g>
						<g>
							<g>
								<g>
									<path style="fill:#CE7E5D;" d="M337.684,99.005c0,0,6.208,0.055,7.104,1.385c0.896,1.33-5.38,2.168-5.38,2.168
										s3.666,0.126,4.537,1.053c0.872,0.927-3.761,2.031-3.761,2.031s2.445,0.185,2.451,1.53
										c0.005,1.345-0.955,1.768-2.334,2.009c-1.379,0.242-2.684-0.384-3.186-0.953c-0.502-0.569,0.045-1.91,0.045-1.91
										s-2.252-1.302-2.28-2.196c-0.028-0.894,0.649-1.45,0.649-1.45s-1.088-0.247-1.415-1.337
										c-0.326-1.09,0.233-1.703,0.233-1.703s-0.805-2.044-1.027-3.219c-0.222-1.175,1.881-1.958,3.166-2.602
										c1.285-0.644,3.351,2.037,5.365,2.622c0,0,1,0.704-0.167,1.411c-1.167,0.707-3.478-0.616-4-0.604
										C337.164,97.252,337.684,99.005,337.684,99.005z"/>
								</g>
							</g>
						</g>
					</g>
				</g>
			</g>
		</g>
		<g>
			<g>
				<g>
					<g>
						<g>
							<g>
								<g>
									<g>
										<path style="fill:#1C2F35;" d="M413.731,103.432c-1.076-3.044-1.763-6.234-2.015-9.499
											c-0.185-2.393-0.578-5.063-1.298-7.931c-0.719-2.866-2.079-5.153-3.711-6.968c-5.342-5.941-14.21-7.018-21.048-2.886
											c-3.366,2.037-7.65,3.714-8.951,11.029c-0.825,4.636,4.865,15.014,7.988,24.843L413.731,103.432z"/>
									</g>
								</g>
							</g>
						</g>
					</g>
				</g>
			</g>
			<g>
				<g>
					<g>
						<g>
							<g>
								<g>
									<path style="fill:#1C2F35;" d="M393.625,74.726c0,0-4.743-7.419,1.246-10.367c5.99-2.948,8.023,1.94,8.023,1.94
										s4.613-0.972,6.233,3.841c1.62,4.814-2.856,6.742-4.324,7.168C403.337,77.734,393.625,74.726,393.625,74.726z"/>
								</g>
							</g>
						</g>
					</g>
				</g>
			</g>
			<g>
				<g>
					<g>
						<g>
							<g>
								<g>
									<path style="fill:#1C2F35;" d="M393.705,74.348c3.582-0.491,7.205,0.54,9.952,2.902c0.532,0.457,1.285-0.337,0.749-0.798
										c-2.948-2.534-6.862-3.727-10.721-3.198C392.994,73.349,393.008,74.443,393.705,74.348L393.705,74.348z"/>
								</g>
							</g>
						</g>
					</g>
				</g>
			</g>
			<g>
				<g>
					<g>
						<g>
							<path style="fill:#D5794A;" d="M407.93,114.155c0,0-12.612,14.304-15.73,5.581l0.217-4.966l0.237-5.419l0.165-3.794
								l10.399-7.98L407.93,114.155z"/>
						</g>
					</g>
					<g>
						<g>
							<g>
								<g>
									<g>
										<path style="fill:#1C2F35;" d="M401.571,103.979c-3.548,9.794-7.739,13.653-9.278,13.647l0.362-8.275L401.571,103.979z"/>
									</g>
								</g>
							</g>
						</g>
					</g>
				</g>
				<g>
					<g>
						<g>
							<g>
								<g>
									<g>
										<path style="fill:#D5794A;" d="M405.419,93.928c-0.276,3.856-1.049,5.273-2.974,9.375
											c-1.718,3.661-5.479,6.133-7.541,6.75c-7.491,2.241-11.696-0.087-12.97-10.625c-0.789-6.543-3.331-9.745-2.23-12.573
											l0.003-0.001c0.085-0.138,0.172-0.273,0.259-0.404c2.101-3.179,5.41-5.368,9.128-6.203
											C407.572,76.099,405.815,88.394,405.419,93.928z"/>
									</g>
								</g>
							</g>
						</g>
					</g>
					<g>
						<g>
							<path style="fill:#FFFFFF;" d="M386.205,101.755c0,0,1.883-0.407,5.587-1.185c0,0,0.384,4.001-2.362,4.276
								C387.101,105.078,386.205,101.755,386.205,101.755z"/>
						</g>
					</g>
					<g>
						<g>
							<g>
								<g>
									<path style="fill:#1C2F35;" d="M380.249,94.55c0,0-3.447-4.78-2.548-8.901c0.898-4.121,5.622-7.602,5.622-7.602
										s2.36-0.285,2.396,4.525C385.719,82.572,379.274,86.796,380.249,94.55z"/>
								</g>
							</g>
						</g>
					</g>
					<g>
						<g>
							<g>
								<g>
									<path style="fill:#1C2F35;" d="M383.62,83.203c0,0,0.598,4.91,5.422,5.273c0,0-2.729-2.755-2.164-5.257
										c0,0,3.674,7.38,10.537,5.436c0,0,1.233,5.976,3.522,6.267c2.289,0.292,6.056-2.998,5.854-7.711s-5.656-10.95-14.158-9.96
										C384.131,78.241,383.62,83.203,383.62,83.203z"/>
								</g>
							</g>
						</g>
					</g>
					<g>
						<g>
							<g>
								<g>
									<g>
										<g>
											<path style="fill:#A74E26;" d="M389.115,106.437c0.811,0.112,1.623-0.037,2.13-0.729
												c0.257-0.351-0.299-0.732-0.556-0.382c-0.362,0.494-0.957,0.517-1.517,0.439
												C388.741,105.706,388.686,106.378,389.115,106.437L389.115,106.437z"/>
										</g>
									</g>
								</g>
							</g>
						</g>
					</g>
					<g>
						<g>
							<g>
								<g>
									<g>
										<path style="fill:#A74E26;" d="M396.137,96.947c0.103,0.554-0.676,1.163-1.74,1.36c-1.064,0.197-2.009-0.092-2.112-0.646
											s0.676-1.163,1.74-1.361C395.088,96.103,396.034,96.392,396.137,96.947z"/>
									</g>
								</g>
							</g>
						</g>
					</g>
					<g>
						<g>
							<g>
								<g>
									<g>
										<path style="fill:#A74E26;" d="M385.224,99.557c0.103,0.556-0.677,1.164-1.739,1.361
											c-0.501,0.093-0.975,0.078-1.346-0.021c-0.074-0.472-0.143-0.961-0.204-1.467c-0.004-0.021-0.005-0.043-0.009-0.061
											c0.307-0.204,0.721-0.37,1.188-0.456C384.175,98.715,385.121,99.003,385.224,99.557z"/>
									</g>
								</g>
							</g>
						</g>
					</g>
					<g>
						<g>
							<path style="fill:#1C2F35;" d="M391.533,95.395c0.097,0.521-0.142,1.002-0.533,1.075c-0.391,0.073-0.786-0.291-0.883-0.812
								c-0.097-0.521,0.142-1.002,0.533-1.075C391.042,94.51,391.437,94.874,391.533,95.395z"/>
						</g>
					</g>
					<g>
						<g>
							<path style="fill:#1C2F35;" d="M385.242,96.86c0.097,0.521-0.142,1.002-0.533,1.075c-0.391,0.073-0.786-0.291-0.883-0.812
								c-0.097-0.521,0.142-1.003,0.533-1.075C384.75,95.975,385.145,96.339,385.242,96.86z"/>
						</g>
					</g>
				</g>
				<g>
					<g>
						<g>
							<g>
								<g>
									<g>
										<path style="fill:#D5794A;" d="M398.684,98.221c-0.704-1.258-0.731-2.781-0.176-4.112
											c0.719-1.724,2.136-4.435,3.965-4.522c2.688-0.129,3.436,2.142,3.624,4.563c0.188,2.421-0.788,5.82-4.151,5.933
											C400.264,100.14,399.26,99.251,398.684,98.221z"/>
									</g>
								</g>
							</g>
						</g>
					</g>
					<g>
						<g>
							<g>
								<g>
									<g>
										<g>
											<path style="fill:#FFFFFF;" d="M403.45,97.98c-0.719,0.525-1.138,1.672-0.985,2.937c0.199,1.643,1.287,2.868,2.425,2.73
												s1.902-1.587,1.703-3.229c-0.129-1.063-0.63-1.949-1.276-2.406c0.069-0.114,0.137-0.23,0.194-0.351
												c0.02-0.036,0.038-0.073,0.056-0.109c0.793,0.536,1.401,1.565,1.551,2.802c0.234,1.933-0.737,3.646-2.165,3.819
												c-1.428,0.173-2.78-1.259-3.014-3.192c-0.207-1.705,0.526-3.238,1.682-3.694C403.621,97.286,403.87,97.56,403.45,97.98z"
												/>
										</g>
									</g>
								</g>
							</g>
						</g>
					</g>
					<g>
						<g>
							<g>
								<g>
									<g>
										<g>
											<g>
												<path style="fill:#1C2F35;" d="M402.194,97.228c-0.33-0.939-0.608-1.936-0.445-2.939
													c0.146-0.896,0.817-2.294,1.952-2.171c0.381,0.041,0.511-0.545,0.127-0.587c-1.094-0.119-1.941,0.691-2.37,1.643
													c-0.619,1.374-0.314,2.881,0.166,4.245C401.753,97.783,402.323,97.594,402.194,97.228L402.194,97.228z"/>
											</g>
										</g>
									</g>
								</g>
							</g>
						</g>
					</g>
				</g>
			</g>
			<g>
				<g>
					<g>
						<path style="fill:#1C2F35;" d="M384.922,93.98c-0.967-0.38-2.035,0.107-2.329,1.126c-0.19,0.658-1.252,0.486-1.06-0.177
							c0.489-1.697,2.171-2.58,3.833-1.928C386.011,93.255,385.563,94.232,384.922,93.98L384.922,93.98z"/>
					</g>
				</g>
			</g>
			<g>
				<g>
					<g>
						<path style="fill:#1C2F35;" d="M392.632,91.898c-1.32-0.903-2.978-0.901-4.207,0.168c-0.519,0.452,0.129,1.31,0.652,0.854
							c0.855-0.744,1.951-0.82,2.893-0.175C392.54,93.135,393.204,92.289,392.632,91.898L392.632,91.898z"/>
					</g>
				</g>
			</g>
			<g>
				<g>
					<path style="fill:#FFFFFF;" d="M388.344,97.756c-0.645-2.46,0.832-4.985,3.291-5.63c2.459-0.645,4.985,0.832,5.63,3.291
						c0.645,2.459-0.832,4.985-3.291,5.63C391.515,101.691,388.989,100.215,388.344,97.756z M388.85,97.623
						c0.572,2.181,2.811,3.49,4.991,2.918c2.181-0.572,3.49-2.811,2.918-4.991c-0.572-2.181-2.811-3.49-4.991-2.918
						C389.587,93.203,388.278,95.442,388.85,97.623z"/>
				</g>
			</g>
			<g>
				<g>
					<path style="fill:#FFFFFF;" d="M377.532,100.501c-0.645-2.459,0.832-4.985,3.291-5.63c2.459-0.645,4.985,0.832,5.629,3.291
						c0.645,2.459-0.832,4.985-3.291,5.63C380.702,104.437,378.177,102.961,377.532,100.501z M378.038,100.369
						c0.572,2.181,2.811,3.49,4.991,2.918c2.181-0.572,3.49-2.811,2.918-4.992c-0.572-2.181-2.811-3.49-4.991-2.918
						C378.775,95.949,377.466,98.188,378.038,100.369z"/>
				</g>
			</g>
			<g>
				<g>
					<g>
						<g>
							<path style="fill:#1C2F35;" d="M387.953,99.583c-0.037,0.006-0.076,0.002-0.113-0.013l-1.734-0.701
								c-0.074-0.03-0.125-0.098-0.133-0.177c-0.008-0.079,0.028-0.156,0.094-0.2l1.252-0.838l0.1-2.241
								c0.005-0.118,0.105-0.21,0.224-0.205c0.118,0.005,0.21,0.105,0.205,0.224l-0.104,2.35c-0.003,0.068-0.038,0.131-0.095,0.169
								l-1.006,0.673l1.358,0.549c0.11,0.044,0.163,0.17,0.118,0.279C388.09,99.524,388.025,99.572,387.953,99.583z"/>
						</g>
					</g>
				</g>
			</g>
			<g>
				<g>
					<g>
						<path style="fill:#FFFFFF;" d="M388.193,97.508c-0.716-0.174-1.42,0.065-1.9,0.619c-0.165,0.191-0.441-0.087-0.277-0.277
							c0.57-0.66,1.439-0.924,2.283-0.72C388.544,97.19,388.439,97.568,388.193,97.508L388.193,97.508z"/>
					</g>
				</g>
			</g>
			<g>
				<g>
					<g>
						<path style="fill:#FFFFFF;" d="M399.547,91.727c-1.297,0.144-2.4,0.915-2.989,2.077c-0.114,0.225-0.464,0.048-0.349-0.178
							c0.654-1.289,1.88-2.132,3.316-2.29C399.775,91.308,399.797,91.699,399.547,91.727L399.547,91.727z"/>
					</g>
				</g>
			</g>
			<g>
				<g>
					<g>
						<path style="fill:#FFFFFF;" d="M381.545,98.616c-1.52,0.205-2.752,1.246-3.182,2.721c-0.07,0.242-0.448,0.138-0.378-0.105
							c0.466-1.599,1.806-2.772,3.46-2.995C381.693,98.204,381.795,98.582,381.545,98.616L381.545,98.616z"/>
					</g>
				</g>
			</g>
		</g>
		<g>
			<g>
				<path style="fill:#CB462A;" d="M436.292,128.413c0,0,5.854,33.234-3.478,41.966c-16.135,15.101-44.351-14.918-44.033-19.136
					l6.02-4.716c0,0,21.517,10.962,23.505,10.418c1.988-0.544,0.912-23.16,0.912-23.16S426.399,120.533,436.292,128.413z"/>
			</g>
			<g>
				<path style="fill:#821327;" d="M418.533,157.226c1.393,0.632,2.614,1.506,3.657,2.625c0.318,0.342,0.829-0.171,0.512-0.512
					c-1.081-1.16-2.359-2.083-3.804-2.738C418.478,156.41,418.109,157.034,418.533,157.226L418.533,157.226z"/>
			</g>
			<g>
				<path style="fill:#821327;" d="M399.331,149.69c-0.489,3.95-4.017,6.569-7.929,6.075c-0.461-0.058-0.457,0.666,0,0.724
					c4.346,0.548,8.119-2.489,8.653-6.799C400.112,149.229,399.387,149.233,399.331,149.69L399.331,149.69z"/>
			</g>
			<g>
				<g>
					<path style="fill:#821327;" d="M435.219,165.514c-4.793,0.079-8.804,3.303-9.841,7.997c-0.11,0.496-0.891,0.366-0.781-0.133
						c1.109-5.017,5.392-8.567,10.543-8.652C435.647,164.717,435.729,165.505,435.219,165.514L435.219,165.514z"/>
				</g>
			</g>
			<g>
				<path style="fill:#821327;" d="M418.964,143.039h0.754c0.001-4.118-0.03-7.58-0.039-8.48c-0.002-0.208-0.175-0.373-0.381-0.373
					c-0.208,0.002-0.375,0.173-0.373,0.381C418.951,137.142,418.965,140.085,418.964,143.039z"/>
				<path style="fill:#A8681B;" d="M419.419,160.878l-0.003,0L419.419,160.878z"/>
			</g>
			<g>
				<g>
					<g>
						<path style="fill:#D5794A;" d="M395.662,148.208c0,0-0.803-12.464-1.51-13.713c-0.707-1.248-11.802-4.607-12.852-5.248
							c-1.05-0.64-1.064,1.614,0.875,2.518c1.939,0.903,5.328,2.977,5.328,2.977s-3.344-1.284-4.233-0.705
							c-0.89,0.579-5.479,5.304-5.515,8.221c-0.036,2.917,3.16,4.017,4.032,4.543c0.872,0.527,0.733-2.538,0.733-2.538
							s0.895,0.815,2.468,1.498c1.523,0.662,2.661,4.333,4.009,5.503C391.631,153.551,396.781,149.427,395.662,148.208z"/>
					</g>
				</g>
				<g>
					<g>
						<g>
							<path style="fill:#A74E26;" d="M390.144,136.015c-0.835-0.455-1.683-0.768-2.606-0.993c-0.337-0.082-0.231-0.611,0.106-0.528
								c0.969,0.237,1.861,0.56,2.738,1.038C390.686,135.697,390.448,136.181,390.144,136.015L390.144,136.015z"/>
						</g>
					</g>
				</g>
				<g>
					<g>
						<g>
							<path style="fill:#A74E26;" d="M386.73,137.494c-1.365-0.977-2.89-2.023-4.66-1.68c-0.336,0.065-0.507-0.447-0.167-0.512
								c1.985-0.384,3.633,0.68,5.185,1.79C387.37,137.293,387.009,137.694,386.73,137.494L386.73,137.494z"/>
						</g>
					</g>
				</g>
				<g>
					<g>
						<g>
							<path style="fill:#A74E26;" d="M384.595,139.33c-1.194-1.105-2.801-1.544-4.389-1.167c-0.335,0.08-0.505-0.432-0.167-0.512
								c1.771-0.421,3.575,0.037,4.914,1.278C385.208,139.163,384.85,139.566,384.595,139.33L384.595,139.33z"/>
						</g>
					</g>
				</g>
				<g>
					<g>
						<g>
							<path style="fill:#A74E26;" d="M382.436,144.567c-0.833-0.89-1.269-2.031-1.194-3.253c0.021-0.342,0.559-0.377,0.538-0.031
								c-0.066,1.074,0.275,2.092,1.014,2.881C383.029,144.415,382.674,144.82,382.436,144.567L382.436,144.567z"/>
						</g>
					</g>
				</g>
				<g>
					<g>
						<g>
							<path style="fill:#A74E26;" d="M381.366,142.898c-0.474-0.361-1.13-0.38-1.632-0.069c-0.294,0.182-0.589-0.269-0.293-0.452
								c0.717-0.445,1.615-0.39,2.283,0.118C382,142.705,381.641,143.106,381.366,142.898L381.366,142.898z"/>
						</g>
					</g>
				</g>
			</g>
		</g>
	</g>
</g>
</svg>
