<?xml version="1.0" encoding="utf-8"?>
<!-- Generator: Adobe Illustrator 27.5.0, SVG Export Plug-In . SVG Version: 6.00 Build 0)  -->
<svg version="1.1" xmlns="http://www.w3.org/2000/svg" xmlns:xlink="http://www.w3.org/1999/xlink" x="0px" y="0px"
	 viewBox="0 0 750 500" style="enable-background:new 0 0 750 500;" xml:space="preserve">
<g id="BACKGROUND">
	<g>
		<rect style="fill:#FDFBEC;" width="750" height="500"/>
	</g>
</g>
<g id="OBJECTS">
	<g>
		<g>
			<ellipse style="fill:#CFCBB3;" cx="375.345" cy="451" rx="325.875" ry="6.839"/>
		</g>
		<g>
			<path style="fill:#CFCBB3;" d="M493.532,450.884c0,0,28.319-24.985,22.372-32.81c-5.947-7.826-19.115,21.27-19.54,22.581
				c-0.425,1.311,3.965-18.618-1.557-17.503c-5.522,1.115-6.372,26.801-6.372,26.801L493.532,450.884z"/>
		</g>
		<g>
			<path style="fill:#CFCBB3;" d="M85.723,450.884c0,0-28.319-24.985-22.372-32.81c5.947-7.826,19.115,21.27,19.54,22.581
				c0.425,1.311-3.965-18.618,1.558-17.503c5.522,1.115,6.372,26.801,6.372,26.801L85.723,450.884z"/>
		</g>
		<g>
			<path style="fill:#CFCBB3;" d="M662.264,450.884c0,0,28.319-24.985,22.372-32.81c-5.947-7.826-19.115,21.27-19.54,22.581
				c-0.425,1.311,3.965-18.618-1.557-17.503c-5.522,1.115-6.372,26.801-6.372,26.801L662.264,450.884z"/>
		</g>
	</g>
	<g style="opacity:0.6;">
		<g style="opacity:0.5;">
			<path style="fill:#CFCBB3;" d="M240.584,156.99c-33.159,15.886-51.064,45.668-55.216,82.753
				c-12.699,113.391,126.016,124.979,156.347,92.734c56.869-60.461,28.036-54.892,164.756-54.651
				c83.004,0.146,148.671-98.483,6.46-160.791c-9.372-4.106-20.51-6.513-31.805-7.835c-27.168-3.18-50.276,7.198-72.28,18.691
				c-23.938,12.503-42.793,29.392-79.08,27.778C293.478,154.053,274.397,140.791,240.584,156.99z"/>
		</g>
		<g style="opacity:0.5;">
			<path style="fill:#CFCBB3;" d="M338.664,94.08c0,0-41.758,6.29-39.085,30.584c3.438,31.248,51.389,22.082,67.022,8.957
				C389.445,114.44,378.842,89.037,338.664,94.08z"/>
		</g>
		<g style="opacity:0.5;">
			<path style="fill:#CFCBB3;" d="M483.219,85.253c0,0-22.992-3.16-28.619,9.113s19.341,11.839,30.166,8.89
				C495.59,100.306,500.724,87.202,483.219,85.253z"/>
		</g>
		<g style="opacity:0.5;">
			<path style="fill:#CFCBB3;" d="M438.479,283.142c0,0-58.984,4.487-62.399,30.338c-3.415,25.851,44.398,24.209,67.353,16.041
				C486.757,314.106,490.043,280.329,438.479,283.142z"/>
		</g>
	</g>
	<g>
		<g>
			<g>
				<path style="fill:#E0DECA;" d="M548.011,94.383v238.301c0,3.32-2.691,6.011-6.011,6.011H226.61c-3.32,0-6.011-2.691-6.011-6.011
					V94.383c0-3.32,2.691-6.011,6.011-6.011H542C545.32,88.372,548.011,91.063,548.011,94.383z"/>
			</g>
			<g>
				<g>
					<path style="fill:#2B405C;" d="M526.152,159.419c0,0-0.47-19.54-5.33-18.792c-4.86,0.748-2.486,7.192-8.136,7.565
						c-5.651,0.373-6.037-19.823-11.98-20.522c-7.92-0.931-5.124,17.786-11.081,19.404c-5.957,1.618-5.646-27.465-14.424-27.465
						s-10.032,39.81-10.032,39.81H526.152z"/>
				</g>
			</g>
			<g>
				<g>
					<path style="fill:#272327;" d="M462.445,160.278h66.856c0.191,0,0.347-0.155,0.347-0.347v-0.166
						c0-0.191-0.155-0.347-0.347-0.347h-66.856c-0.191,0-0.346,0.155-0.346,0.347v0.166
						C462.099,160.122,462.254,160.278,462.445,160.278z"/>
				</g>
			</g>
			<g>
				<rect x="228.965" y="108.207" style="fill:#7E7768;" width="1.484" height="226.315"/>
			</g>
			<g>
				<rect x="538.43" y="108.207" style="fill:#7E7768;" width="1.484" height="226.315"/>
			</g>
			<g>
				<path style="fill:#272327;" d="M548.011,94.383v16.215H220.598V94.383c0-3.32,2.691-6.011,6.011-6.011H542
					C545.32,88.372,548.011,91.063,548.011,94.383z"/>
			</g>
		</g>
		<g>
			<path style="fill:#272327;" d="M550.435,338.695H216.383c-0.93,0-1.684-0.754-1.684-1.684v-0.805c0-0.93,0.754-1.684,1.684-1.684
				h334.051c0.93,0,1.684,0.754,1.684,1.684v0.805C552.118,337.941,551.365,338.695,550.435,338.695z"/>
		</g>
		<g>
			<g>
				<g>
					<rect x="254.192" y="255.579" style="fill:#4E4D39;" width="29.948" height="46.126"/>
				</g>
				<g>
					<rect x="304.743" y="228.264" style="fill:#2B405C;" width="29.948" height="73.441"/>
				</g>
				<g>
					<rect x="355.293" y="191.411" style="fill:#742823;" width="29.948" height="110.295"/>
				</g>
				<g>
					<rect x="405.844" y="165.303" style="fill:#4E4D39;" width="29.948" height="136.402"/>
				</g>
			</g>
			<g>
				<g>
					<path style="fill:#272327;" d="M268.138,233.777c-0.272,0-0.543-0.11-0.74-0.327c-0.372-0.409-0.341-1.041,0.067-1.413
						l33.933-30.845c0.369-0.336,0.93-0.348,1.313-0.028l11.604,9.686l42.429-42.269c0.188-0.188,0.444-0.289,0.71-0.292
						c0.266,0.001,0.52,0.108,0.707,0.297l9.45,9.562l38.042-37.547c0.189-0.186,0.439-0.301,0.71-0.288
						c0.266,0.002,0.519,0.109,0.706,0.299l10.27,10.439l24.724-21.331c0.418-0.361,1.05-0.314,1.41,0.104
						c0.361,0.418,0.314,1.05-0.104,1.41l-25.433,21.943c-0.4,0.344-0.997,0.32-1.366-0.056l-10.224-10.393l-38.04,37.545
						c-0.393,0.388-1.026,0.384-1.414-0.009l-9.447-9.559l-42.364,42.204c-0.366,0.365-0.95,0.39-1.347,0.059l-11.635-9.712
						l-33.288,30.259C268.618,233.691,268.378,233.777,268.138,233.777z"/>
				</g>
				<g>
					<path style="fill:#272327;" d="M306.189,201.932c0,2.275-1.844,4.119-4.119,4.119c-2.275,0-4.119-1.844-4.119-4.119
						c0-2.275,1.844-4.119,4.119-4.119C304.345,197.813,306.189,199.657,306.189,201.932z"/>
				</g>
				<g>
					<path style="fill:#272327;" d="M272.256,232.426c0,2.275-1.844,4.119-4.119,4.119s-4.119-1.844-4.119-4.119
						c0-2.275,1.844-4.119,4.119-4.119S272.256,230.151,272.256,232.426z"/>
				</g>
				<g>
					<path style="fill:#272327;" d="M361.063,169.424c0,2.275-1.844,4.119-4.119,4.119c-2.275,0-4.119-1.844-4.119-4.119
						s1.844-4.119,4.119-4.119C359.219,165.305,361.063,167.149,361.063,169.424z"/>
				</g>
				<g>
					<path style="fill:#272327;" d="M409.963,140.732c0,2.275-1.844,4.119-4.119,4.119c-2.275,0-4.119-1.844-4.119-4.119
						c0-2.275,1.844-4.119,4.119-4.119C408.119,136.613,409.963,138.457,409.963,140.732z"/>
				</g>
				<g>
					<path style="fill:#272327;" d="M448.352,128.419c0,2.275-1.844,4.119-4.119,4.119c-2.275,0-4.119-1.844-4.119-4.119
						c0-2.275,1.844-4.119,4.119-4.119C446.508,124.3,448.352,126.144,448.352,128.419z"/>
				</g>
			</g>
			<g>
				<path style="fill:#272327;" d="M453.607,302.767H241.633c-0.577,0-1.046-0.468-1.046-1.045v-0.5
					c0-0.577,0.468-1.046,1.046-1.046h211.974c0.577,0,1.046,0.468,1.046,1.046v0.5
					C454.653,302.299,454.185,302.767,453.607,302.767z"/>
			</g>
		</g>
		<g>
			<g>
				<rect x="451.443" y="217.723" style="fill:#2B405C;" width="15.661" height="15.661"/>
			</g>
			<g>
				<rect x="451.443" y="180.837" style="fill:#742823;" width="15.661" height="15.661"/>
			</g>
			<g>
				<rect x="451.443" y="254.609" style="fill:#4E4D39;" width="15.661" height="15.66"/>
			</g>
			<g>
				<path style="fill:#7E7768;" d="M518.003,186.93h-39.756c-0.43,0-0.778-0.348-0.778-0.778v-0.372c0-0.43,0.348-0.778,0.778-0.778
					h39.756c0.43,0,0.778,0.348,0.778,0.778v0.372C518.78,186.582,518.432,186.93,518.003,186.93z"/>
			</g>
			<g>
				<path style="fill:#7E7768;" d="M518.003,192.331h-39.756c-0.43,0-0.778-0.348-0.778-0.778v-0.372
					c0-0.43,0.348-0.778,0.778-0.778h39.756c0.43,0,0.778,0.348,0.778,0.778v0.372C518.78,191.983,518.432,192.331,518.003,192.331z
					"/>
			</g>
			<g>
				<path style="fill:#7E7768;" d="M518.003,223.817h-39.756c-0.43,0-0.778-0.348-0.778-0.778v-0.372
					c0-0.43,0.348-0.778,0.778-0.778h39.756c0.43,0,0.778,0.348,0.778,0.778v0.372C518.78,223.469,518.432,223.817,518.003,223.817z
					"/>
			</g>
			<g>
				<path style="fill:#7E7768;" d="M518.003,229.218h-39.756c-0.43,0-0.778-0.348-0.778-0.778v-0.372
					c0-0.429,0.348-0.778,0.778-0.778h39.756c0.43,0,0.778,0.348,0.778,0.778v0.372C518.78,228.869,518.432,229.218,518.003,229.218
					z"/>
			</g>
			<g>
				<path style="fill:#7E7768;" d="M518.003,260.703h-39.756c-0.43,0-0.778-0.348-0.778-0.778v-0.372
					c0-0.43,0.348-0.778,0.778-0.778h39.756c0.43,0,0.778,0.348,0.778,0.778v0.372C518.78,260.355,518.432,260.703,518.003,260.703z
					"/>
			</g>
			<g>
				<path style="fill:#7E7768;" d="M518.003,266.104h-39.756c-0.43,0-0.778-0.348-0.778-0.778v-0.372
					c0-0.43,0.348-0.778,0.778-0.778h39.756c0.43,0,0.778,0.348,0.778,0.778v0.372C518.78,265.756,518.432,266.104,518.003,266.104z
					"/>
			</g>
		</g>
		<g>
			<g>
				<g>
					<path style="fill:#2B405C;" d="M258.388,156.561c0-5.797,4.716-10.513,10.513-10.513c3.245,0,6.151,1.479,8.081,3.797
						c1.606-1.859,3.121-3.781,4.252-5.944c-3.189-3.107-7.54-5.027-12.333-5.027c-9.749,0-17.68,7.928-17.687,17.675
						c2.376,0.931,4.842,1.546,7.356,1.954C258.453,157.873,258.388,157.225,258.388,156.561z"/>
				</g>
				<g>
					<path style="fill:#742823;" d="M281.963,144.648c-1.178,2.178-2.736,4.118-4.372,6.002c1.15,1.686,1.824,3.721,1.824,5.911
						c0,5.797-4.716,10.513-10.513,10.513c-4.764,0-8.795-3.186-10.082-7.538c-2.585-0.395-5.124-0.993-7.57-1.912
						c0.552,9.259,8.257,16.624,17.652,16.624c9.753,0,17.687-7.934,17.687-17.687C286.589,151.976,284.835,147.794,281.963,144.648
						z"/>
				</g>
			</g>
			<g>
				<g>
					<path style="fill:#4E4D39;" d="M328.148,156.561c0,0.621-0.057,1.228-0.161,1.819c2.423-0.171,4.846-0.333,7.273-0.404
						c0.037-0.467,0.062-0.938,0.062-1.415c0-8.199-5.608-15.11-13.188-17.106c-0.618,2.311-1.218,4.627-1.753,6.958
						C324.849,147.624,328.148,151.714,328.148,156.561z"/>
				</g>
				<g>
					<path style="fill:#742823;" d="M317.634,174.248c8.935,0,16.34-6.662,17.519-15.279c-2.467,0.077-4.931,0.245-7.395,0.419
						c-1.238,4.428-5.307,7.686-10.124,7.686c-5.797,0-10.513-4.716-10.513-10.513c0-5.797,4.716-10.513,10.513-10.513
						c0.607,0,1.2,0.055,1.779,0.154c0.537-2.336,1.138-4.656,1.757-6.972c-1.143-0.233-2.326-0.356-3.536-0.356
						c-9.753,0-17.687,7.935-17.687,17.687C299.947,166.314,307.882,174.248,317.634,174.248z"/>
				</g>
			</g>
		</g>
		<g>
			<path style="fill:#272327;" d="M345.362,451.063c-0.214,0-0.432-0.037-0.645-0.115c-0.973-0.356-1.472-1.434-1.115-2.406
				l38.047-103.781c0.357-0.972,1.434-1.471,2.406-1.115c0.972,0.356,1.472,1.434,1.115,2.406l-38.047,103.781
				C346.844,450.592,346.126,451.063,345.362,451.063z"/>
		</g>
		<g>
			<path style="fill:#272327;" d="M407.365,451.063c-0.764,0-1.482-0.471-1.761-1.23l-38.047-103.781
				c-0.356-0.972,0.143-2.049,1.115-2.406c0.972-0.355,2.049,0.143,2.406,1.115l38.047,103.781c0.357,0.972-0.143,2.049-1.115,2.406
				C407.797,451.026,407.58,451.063,407.365,451.063z"/>
		</g>
		<rect x="358.544" y="408.855" style="fill:#272327;" width="35.691" height="3.791"/>
		<g>
			<path style="fill:#272327;" d="M347.62,338.695L347.62,338.695c0,5.073,4.112,9.185,9.185,9.185h38.176
				c5.073,0,9.185-4.112,9.185-9.185v0H347.62z"/>
		</g>
	</g>
	<g>
		<g>
			<g>
				<path style="fill:#272327;" d="M643.98,161.143c0,0,25.994,39.765,26.369,57.764s-24.23,20.392-24.23,20.392L643.98,161.143z"/>
			</g>
			<g>
				<g>
					<g>
						<g>
							<g>
								<path style="fill:#D07E5D;" d="M640.321,417.89l0.023,21.528l-10.826,0.777l-3.805-20.224
									C630.665,416.669,635.537,415.88,640.321,417.89z"/>
							</g>
						</g>
					</g>
					<g>
						<g>
							<g>
								<g>
									<path style="fill:#272327;" d="M639.968,437.171c1.065,2.841,1.135,14.466,1.135,14.466l-22.948,0.025
										c-1.363-4.204,0.746-7.073,3.423-7.454c1.15-0.162,2.503-1.343,3.49-2.375c0.007-0.134,1.41-6.591,2.277-6.9
										c0,0,0.598-0.672,1.107-0.001c0.509,0.67,0.951,2.853,0.951,2.853C632.984,433.337,636.495,433.931,639.968,437.171z"/>
								</g>
							</g>
						</g>
					</g>
					<g>
						<g>
							<g>
								<path style="fill:#FFFFFF;" d="M640.246,440.546c-2.593-0.955-5.375-0.592-7.636,0.996
									c-0.396,0.278-0.771-0.372-0.378-0.648c2.409-1.692,5.452-2.089,8.214-1.071C640.894,439.989,640.7,440.714,640.246,440.546
									L640.246,440.546z"/>
							</g>
						</g>
					</g>
					<g>
						<g>
							<path style="fill:#FFFFFF;" d="M618.224,449.962C618.224,449.962,618.224,449.962,618.224,449.962l22.61-0.024
								c0.207,0,0.375-0.168,0.375-0.375c0-0.207-0.168-0.375-0.375-0.375c0,0,0,0,0,0l-22.61,0.024
								c-0.207,0-0.375,0.168-0.375,0.375C617.849,449.794,618.017,449.962,618.224,449.962z"/>
						</g>
					</g>
				</g>
				<g>
					<g>
						<g>
							<path style="fill:#4E372A;" d="M644.337,428.494l-23.069,1.138c-5.176-15.546-10.292-71.287-10.82-88.022
								c-0.632-19.996-8.357-70.18-1.526-80.622c6.831-10.443,38.787-0.042,38.787-0.042s-4.91,59.022-3.371,78.509
								C645.67,356.346,647.734,405.994,644.337,428.494z"/>
						</g>
					</g>
				</g>
				<polygon style="fill:#8C685B;" points="618.777,424.022 620.277,431.138 645.277,430.388 646.193,423.555 				"/>
				<g>
					<g>
						<path style="fill:#8C685B;" d="M625.713,427.454c0.021,0,0.042-0.002,0.063-0.005c0.204-0.034,0.342-0.228,0.307-0.432
							c-0.098-0.583-9.833-58.729-10.946-92.397c-0.68-20.579-1.269-35.015-1.274-35.158c-0.008-0.207-0.189-0.366-0.39-0.359
							c-0.207,0.008-0.368,0.183-0.359,0.39c0.006,0.143,0.594,14.576,1.274,35.152c1.115,33.718,10.858,91.912,10.957,92.496
							C625.375,427.325,625.534,427.454,625.713,427.454z"/>
					</g>
				</g>
				<g>
					<g>
						<g>
							<path style="fill:#8C685B;" d="M632.479,265.371c0.303,3.499,2.052,7.732,6.085,8.077c1.586,0.136,3.186-0.476,4.15-1.767
								c1.114-1.491,1.207-3.484,1.266-5.271c0.015-0.458-0.697-0.457-0.711,0.001c-0.047,1.433-0.086,3.004-0.781,4.298
								c-0.776,1.446-2.304,2.184-3.923,2.027c-3.607-0.348-5.104-4.26-5.373-7.366C633.152,264.917,632.44,264.914,632.479,265.371
								L632.479,265.371z"/>
						</g>
					</g>
				</g>
				<g>
					<g>
						<g>
							<path style="fill:#8C685B;" d="M621.267,339.806c6.622-0.717,13.282-0.896,19.933-0.536c0.48,0.026,0.483,0.776,0,0.75
								c-6.651-0.36-13.311-0.181-19.933,0.536C620.788,340.608,620.792,339.858,621.267,339.806L621.267,339.806z"/>
						</g>
					</g>
				</g>
			</g>
			<g>
				<g>
					<g>
						<g>
							<g>
								<path style="fill:#D07E5D;" d="M593.617,415.082l0.026,24.297l-10.417,0.794l-5.124-22.743
									C582.284,414.322,587.141,412.799,593.617,415.082z"/>
							</g>
						</g>
					</g>
					<g>
						<g>
							<g>
								<g>
									<path style="fill:#272327;" d="M593.641,437.221c1.065,2.841,1.135,14.466,1.135,14.466l-26.363,0.029
										c-1.363-4.204,1.485-6.696,4.162-7.077c1.15-0.162,5.18-1.724,6.166-2.756c0.007-0.134,1.41-6.591,2.277-6.9
										c0,0,0.598-0.672,1.107-0.001c0.509,0.67,0.951,2.853,0.951,2.853C586.657,433.388,590.168,433.982,593.641,437.221z"/>
								</g>
							</g>
						</g>
					</g>
					<g>
						<g>
							<g>
								<path style="fill:#FFFFFF;" d="M593.919,440.597c-2.593-0.955-5.375-0.592-7.636,0.996
									c-0.396,0.278-0.771-0.372-0.379-0.648c2.409-1.692,5.452-2.089,8.214-1.071
									C594.568,440.039,594.373,440.764,593.919,440.597L593.919,440.597z"/>
							</g>
						</g>
					</g>
					<g>
						<g>
							<path style="fill:#FFFFFF;" d="M568.411,450.016C568.411,450.016,568.411,450.016,568.411,450.016l26.097-0.028
								c0.207,0,0.375-0.168,0.375-0.376c0-0.207-0.168-0.374-0.375-0.374c0,0,0,0,0,0l-26.096,0.028
								c-0.207,0-0.375,0.168-0.375,0.375C568.036,449.848,568.204,450.016,568.411,450.016z"/>
						</g>
					</g>
				</g>
				<g>
					<g>
						<g>
							<path style="fill:#4E372A;" d="M598.262,428.494l-22.87,1.138c-2.784-17.21-13.97-79.882-13.051-91.888
								c1.122-14.664,14.368-78.139,19.294-83.033c4.926-4.894,40.989,7.792,40.989,7.792s-14.822,54.583-26.508,78.191
								C593.689,345.599,600.14,407.564,598.262,428.494z"/>
						</g>
					</g>
				</g>
				<polygon style="fill:#8C685B;" points="572.777,424.555 573.943,431.138 599.36,429.633 599.872,422.741 				"/>
				<g>
					<g>
						<path style="fill:#8C685B;" d="M577.994,424.022c0.02,0,0.04-0.001,0.06-0.005c0.204-0.033,0.343-0.226,0.31-0.43
							c-0.124-0.763-12.361-76.398-11.918-84.251c0.516-9.139,11.9-47.936,12.015-48.327c0.058-0.199-0.055-0.407-0.254-0.466
							c-0.198-0.058-0.407,0.055-0.466,0.254c-0.47,1.599-11.523,39.27-12.044,48.496c-0.448,7.935,11.421,81.294,11.926,84.414
							C577.654,423.891,577.813,424.022,577.994,424.022z"/>
					</g>
				</g>
				<g>
					<g>
						<g>
							<path style="fill:#8C685B;" d="M594.839,263.617c-0.378,5.252,1.662,12.121,7.864,12.697
								c5.974,0.554,9.844-5.125,9.74-10.564c-0.009-0.457-0.72-0.458-0.711,0.001c0.097,5.049-3.435,10.408-9.03,9.852
								c-5.794-0.576-7.5-7.153-7.151-11.986C595.583,263.159,594.871,263.162,594.839,263.617L594.839,263.617z"/>
						</g>
					</g>
				</g>
				<g>
					<g>
						<g>
							<path style="fill:#8C685B;" d="M586.305,266.302c-2.042,8.045-4.814,17.453-13.389,20.689
								c-0.452,0.171-0.647-0.554-0.199-0.723c8.291-3.129,10.9-12.423,12.865-20.165
								C585.701,265.636,586.424,265.834,586.305,266.302L586.305,266.302z"/>
						</g>
					</g>
				</g>
				<g>
					<g>
						<g>
							<path style="fill:#8C685B;" d="M606.771,310.67c2.739-4.503,5.39-9.071,7.576-13.872c2.222-4.88,3.884-9.973,5.204-15.166
								c0.119-0.467,0.842-0.269,0.723,0.199c-1.306,5.136-2.951,10.169-5.126,15.005c-2.216,4.925-4.927,9.603-7.73,14.212
								C607.168,311.461,606.519,311.084,606.771,310.67L606.771,310.67z"/>
						</g>
					</g>
				</g>
				<g>
					<g>
						<g>
							<path style="fill:#8C685B;" d="M613.488,281.338c6.005,0.155,11.957-0.685,17.684-2.496c0.461-0.146,0.659,0.578,0.199,0.723
								c-5.787,1.83-11.816,2.68-17.884,2.523C613.006,282.075,613.004,281.325,613.488,281.338L613.488,281.338z"/>
						</g>
					</g>
				</g>
				<g>
					<g>
						<g>
							<path style="fill:#8C685B;" d="M592.112,340.742c-5.574-0.351-11.147-0.702-16.721-1.052c-0.479-0.03-0.483-0.78,0-0.75
								c5.573,0.351,11.147,0.702,16.721,1.052C592.592,340.022,592.595,340.772,592.112,340.742L592.112,340.742z"/>
						</g>
					</g>
				</g>
			</g>
			<g>
				<g>
					<g>
						<path style="fill:#878457;" d="M649.586,151.285c0.002-0.008,0.004-0.013,0.004-0.015c-0.002-0.002-0.006,0.004-0.011,0.015
							H649.586z"/>
					</g>
				</g>
			</g>
			<g>
				<g>
					<g>
						<g>
							<path style="fill:#D07E5D;" d="M619.012,155.757c0,0-6.315,3.071-18.347-0.153l0.469-4.766l0.004-0.826l0.024-3.741
								l0.003-0.501l0.483-3.597l13.613-4.438C615.535,144.245,617.26,150.557,619.012,155.757z"/>
						</g>
					</g>
				</g>
				<g>
					<path style="fill:#272327;" d="M604.828,146.999c-0.531,1.724-2.349,2.596-3.69,3.013l0.024-3.741
						C602.877,145.682,605.421,145.086,604.828,146.999z"/>
				</g>
				<g>
					<g>
						<path style="fill:#272327;" d="M593.489,137.392c-2.377,0-4.31-1.934-4.31-4.31c0-2.377,1.934-4.31,4.31-4.31
							c2.377,0,4.31,1.934,4.31,4.31C597.799,135.458,595.865,137.392,593.489,137.392z M593.489,129.521
							c-1.963,0-3.56,1.597-3.56,3.56c0,1.963,1.597,3.56,3.56,3.56c1.963,0,3.56-1.597,3.56-3.56
							C597.049,131.118,595.452,129.521,593.489,129.521z"/>
					</g>
					<g>
						<g>
							<g>
								<path style="fill:#D07E5D;" d="M616.396,132.91c0.067,0.568,0.099,1.096,0.096,1.601c-0.007,1.168-0.197,2.211-0.573,3.306
									c-0.495,1.441-1.31,2.978-2.445,5.011c-1.784,3.192-5.219,4.776-8.685,5.253c-9.204,1.269-10.886-4.894-11.409-14.475
									c-0.323-5.95-2.425-8.989-1.264-11.474l0.003,0c0.084-0.119,0.171-0.236,0.259-0.35c2.082-2.742,5.198-4.52,8.602-5.053
									c0.656-0.102,1.286-0.179,1.893-0.232c0.137-0.016,0.275-0.027,0.41-0.035c0.057-0.007,0.113-0.011,0.168-0.012
									c0.154-0.013,0.306-0.022,0.458-0.027c0.108-0.007,0.217-0.012,0.323-0.014c0.247-0.01,0.487-0.014,0.721-0.014
									c7.497,0.01,9.934,4.245,10.791,8.634C616.328,128.013,616.178,131.067,616.396,132.91z"/>
							</g>
						</g>
					</g>
					<g>
						<path style="fill:#D07E5D;" d="M593.197,131.205c0,0,0.131,4.259-1.133,5.842c-1.263,1.583,2.162,1.688,2.162,1.688
							L593.197,131.205z"/>
					</g>
					<g>
						<path style="fill:#272327;" d="M589.624,134.199c-0.093,0-0.187-0.035-0.259-0.104c-0.15-0.143-0.155-0.381-0.012-0.53
							c2.554-2.669,5.677-3.975,5.808-4.029c0.192-0.079,0.411,0.012,0.49,0.204c0.079,0.191-0.012,0.411-0.203,0.49
							c-0.031,0.013-3.112,1.304-5.552,3.854C589.822,134.16,589.723,134.199,589.624,134.199z"/>
					</g>
					<g>
						<path style="fill:#742823;" d="M604.131,145.696c0,0,1.806,3.143,5.131,2.268c3.326-0.875,2.49-3.831,2.49-3.831
							s3.01,3.875,5.51,3.273c2.5-0.602-0.77-4.574-0.77-4.574s5.145,3.538,6.395,0.675c0.797-1.825,0.164-2.806-1.375-4.773
							c-1.226-1.567-2.75-6.727-2.501-11.477c0.249-4.75,1.484-6.688-0.568-10.863c-4.083-8.312-11.05-3.8-11.05-3.8
							c-8.783-4.761-15.33,1.874-20.043,6.217c-1.934,1.783-1.901,4.922,0.169,6.546c0.903,0.709,2.124,1.054,3.742,0.442
							c3.276-1.239,4.125-1.667,4.25,0.833s-1.378,5.015,0.667,5.333c2.044,0.318,2.853-1.69,3.221-0.387
							c0.368,1.303-0.765,4.253-1.643,5.724c-0.878,1.471,2.089,0.122,3.679,2.247C601.436,139.549,601.846,140.633,604.131,145.696
							z"/>
					</g>
					<g>
						<g>
							<g>
								<path style="fill:#D07E5D;" d="M600.381,138.331c0.848-1.251,1.148-3.066,1.031-4.524c-0.174-2.165-1.533-3.998-3.31-4.215
									c-2.612-0.32-3.964,1.528-4.454,4.017c-0.491,2.489,0.033,6.071,3.307,6.421
									C598.593,140.204,599.687,139.355,600.381,138.331z"/>
							</g>
						</g>
					</g>
					<g>
						<g>
							<g>
								<g>
									<path style="fill:#272327;" d="M597.303,136.973c0.561-0.791,1.092-1.651,1.231-2.634c0.124-0.878-0.079-2.364-1.128-2.55
										c-0.352-0.062-0.302-0.646,0.053-0.583c1.011,0.179,1.537,1.161,1.651,2.167c0.164,1.451-0.537,2.781-1.352,3.93
										C597.539,137.609,597.084,137.281,597.303,136.973L597.303,136.973z"/>
								</g>
							</g>
						</g>
					</g>
				</g>
			</g>
			<g>
				<path style="fill:#272327;" d="M601.316,154.908c0,0-12.669,4.808-20.157,10.797c-6.69,5.351-0.859,25.718,0.194,34.018
					c0,0,43.583,3.436,54.279,0.971c10.696-2.465,8.561-23.13,9.739-31.534c1.178-8.404-5.4-14.331-11.735-14.924
					c-6.336-0.594-13.777-1.294-13.777-1.294S613.802,146.883,601.316,154.908z"/>
			</g>
			<g>
				<path style="fill:#272327;" d="M580.53,194.705c0,0,2.356,30.352-0.194,42.092c-1.979,9.111-7.259,23.013-2.82,25.617
					c4.439,2.604,71.605,12.656,73.714,1.72c2.935-15.218-6.194-54.121-4.384-69.501s0.213-27.265-2.21-30.378
					C642.215,161.143,580.53,194.705,580.53,194.705z"/>
			</g>
			<g>
				<g>
					<path style="fill:#7E7768;" d="M603.609,254.143c8.698,0.336,17.413-0.169,26.011-1.535c3.687-0.586,7.571-1.116,11.065-2.49
						c2.561-1.007,4.848-2.593,5.828-5.26c0.167-0.454-0.558-0.649-0.723-0.199c-1.117,3.038-4.198,4.494-7.113,5.351
						c-3.47,1.02-7.125,1.569-10.696,2.096c-8.063,1.189-16.228,1.602-24.371,1.287
						C603.126,253.375,603.127,254.125,603.609,254.143L603.609,254.143z"/>
				</g>
			</g>
			<g>
				<g>
					<path style="fill:#7E7768;" d="M643.082,162.683c1.458,3.599,2.356,7.361,2.662,11.233c0.038,0.478,0.788,0.482,0.75,0
						c-0.311-3.938-1.206-7.77-2.689-11.432C643.626,162.042,642.901,162.235,643.082,162.683L643.082,162.683z"/>
				</g>
			</g>
			<g>
				<g>
					<path style="fill:#7E7768;" d="M619.115,154.5c-5.577-0.818-11.233,0.357-16.001,3.372c-0.407,0.257-0.031,0.907,0.378,0.648
						c4.586-2.9,10.049-4.085,15.424-3.297C619.388,155.292,619.592,154.57,619.115,154.5L619.115,154.5z"/>
				</g>
			</g>
			<g>
				<g>
					<path style="fill:#7E7768;" d="M646.801,181.299c-0.731,9.5-0.795,19.027-0.028,28.527c0.76,9.401,2.265,18.721,3.956,27.994
						c0.086,0.474,0.809,0.273,0.723-0.199c-1.705-9.348-3.219-18.742-3.963-28.221c-0.734-9.359-0.658-18.743,0.062-28.1
						C647.588,180.818,646.838,180.82,646.801,181.299L646.801,181.299z"/>
				</g>
			</g>
			<g>
				<g>
					<path style="fill:#7E7768;" d="M647.065,210.029c1.326,0.512,3.034,1.228,3.732,2.55c0.225,0.427,0.873,0.048,0.648-0.379
						c-0.797-1.511-2.667-2.311-4.18-2.895C646.814,209.132,646.619,209.857,647.065,210.029L647.065,210.029z"/>
				</g>
			</g>
			<g>
				<g>
					<path style="fill:#7E7768;" d="M585.933,205.096c2.425,14.574,1.949,29.674-1.474,44.053c-0.967,4.063-2.186,8.061-3.655,11.97
						c-0.168,0.448-0.893,0.254-0.723-0.199c6.611-17.592,8.207-37.119,5.128-55.624
						C585.131,204.824,585.854,204.62,585.933,205.096L585.933,205.096z"/>
				</g>
			</g>
			<g>
				<g>
					<g>
						<path style="fill:#272327;" d="M599.709,181.01c0,0-21.299,55.895-37.914,56.174c-16.615,0.28-28.61-57.686-28.61-57.686
							l6.943-1.624c0,0,21.041,30.291,21.69,30.764c0.649,0.473,15.284-38.285,15.284-38.285
							C581.195,158.215,604.289,165.855,599.709,181.01z"/>
					</g>
				</g>
				<g>
					<g>
						<path style="fill:#7E7768;" d="M587.594,165.223c4.249-0.091,7.945,2.72,9.926,6.341c2.278,4.165,2.368,9.125,2.029,13.741
							c-0.035,0.482,0.715,0.479,0.75,0c0.366-4.971,0.201-10.389-2.502-14.757c-2.185-3.531-5.947-6.167-10.202-6.076
							C587.112,164.483,587.111,165.233,587.594,165.223L587.594,165.223z"/>
					</g>
				</g>
				<g>
					<g>
						<path style="fill:#7E7768;" d="M543.503,184.275c-1.734,2.32-4.232,3.826-7.076,4.336c-0.474,0.085-0.273,0.808,0.199,0.723
							c3.047-0.546,5.675-2.206,7.525-4.68C544.44,184.267,543.789,183.893,543.503,184.275L543.503,184.275z"/>
					</g>
				</g>
				<g>
					<path style="fill:#7E7768;" d="M540.324,182.769c0.378,0.557,1.001,0.794,1.392,0.528c0.391-0.265,0.402-0.932,0.024-1.489
						c-0.378-0.557-1.001-0.794-1.392-0.528C539.956,181.546,539.946,182.212,540.324,182.769z"/>
				</g>
				<g>
					<g>
						<path style="fill:#FDFBEC;" d="M542.587,170.563L542.587,170.563c0.188-0.299,0.098-0.695-0.201-0.883l-33.049-20.771
							c-0.299-0.188-0.695-0.098-0.883,0.202l0,0c-0.188,0.299-0.098,0.695,0.201,0.883l33.049,20.771
							C542.003,170.952,542.399,170.862,542.587,170.563z"/>
					</g>
					<g>
						<g>
							<path style="fill:#D07E5D;" d="M540.176,177.773c0,0-0.959-12.126-1.58-13.382c-0.621-1.257-10.404-5.216-11.393-5.899
								c-0.989-0.682-1.126,1.516,0.716,2.504c1.842,0.987,4.591,3.007,4.591,3.007s-2.748-1.247-3.647-0.731
								c-0.899,0.516-5.635,4.874-5.829,7.718s2.863,4.091,3.685,4.652c0.822,0.561,0.854-2.436,0.854-2.436
								s0.828,0.844,2.326,1.597c1.45,0.729,2.234,4.516,3.61,5.588C534.884,181.462,540.176,177.773,540.176,177.773z"/>
						</g>
					</g>
					<g>
						<g>
							<g>
								<path style="fill:#9B4731;" d="M534.688,165.746c-0.704-0.607-1.449-1.081-2.284-1.487
									c-0.304-0.148-0.095-0.631,0.211-0.482c0.876,0.426,1.662,0.92,2.401,1.557
									C535.272,165.555,534.945,165.968,534.688,165.746L534.688,165.746z"/>
							</g>
						</g>
					</g>
					<g>
						<g>
							<g>
								<path style="fill:#9B4731;" d="M532.048,166.833c-1.279-1.028-2.708-2.131-4.454-1.894
									c-0.331,0.045-0.471-0.463-0.135-0.509c1.957-0.266,3.507,0.862,4.96,2.03C532.683,166.672,532.31,167.043,532.048,166.833
									L532.048,166.833z"/>
							</g>
						</g>
					</g>
					<g>
						<g>
							<g>
								<path style="fill:#9B4731;" d="M529.865,168.507c-1.104-1.144-2.648-1.66-4.218-1.379c-0.331,0.059-0.469-0.449-0.135-0.509
									c1.751-0.313,3.485,0.232,4.724,1.515C530.472,168.378,530.101,168.751,529.865,168.507L529.865,168.507z"/>
							</g>
						</g>
					</g>
					<g>
						<g>
							<g>
								<path style="fill:#9B4731;" d="M527.473,173.498c-0.764-0.913-1.127-2.051-0.987-3.238c0.039-0.333,0.566-0.337,0.526-0.001
									c-0.123,1.044,0.154,2.056,0.832,2.866C528.06,173.383,527.69,173.758,527.473,173.498L527.473,173.498z"/>
							</g>
						</g>
					</g>
					<g>
						<g>
							<g>
								<path style="fill:#9B4731;" d="M526.52,171.811c-0.443-0.378-1.081-0.432-1.589-0.156c-0.297,0.162-0.56-0.295-0.261-0.457
									c0.724-0.395,1.597-0.292,2.221,0.24C527.149,171.658,526.776,172.03,526.52,171.811L526.52,171.811z"/>
							</g>
						</g>
					</g>
				</g>
				<g>
					<g>
						<g>
							<path style="fill:#7E7768;" d="M562.372,208.628c0.521,2.185,0.899,4.395,1.121,6.635c0.051,0.517-0.728,0.606-0.78,0.087
								c-0.215-2.169-0.57-4.315-1.074-6.431C561.52,208.422,562.251,208.123,562.372,208.628L562.372,208.628z"/>
						</g>
					</g>
				</g>
				<g>
					<g>
						<g>
							<path style="fill:#7E7768;" d="M562.773,210.691c-0.418,1.456-1.027,2.818-1.81,4.105c-0.269,0.442-0.881-0.062-0.615-0.499
								c0.746-1.226,1.308-2.54,1.706-3.925C562.197,209.873,562.915,210.197,562.773,210.691L562.773,210.691z"/>
						</g>
					</g>
				</g>
			</g>
		</g>
	</g>
	<g>
		<g>
			<path style="fill:#9E7035;" d="M504.924,448.983c-5.095,0.679-10.189,0.679-15.284,0v-6.623h15.284V448.983z"/>
		</g>
		<g>
			<path style="fill:#DCA351;" d="M522.051,393.639l-0.794,6.891l-0.099,0.849v0.003l-1.697,14.744l-0.093,0.815l-0.859,7.456
				l-0.096,0.83l-0.073,0.638l-0.114,0.976l-0.371,3.226l-0.106,0.924l-0.68,5.907l-0.101,0.885l-0.177,1.531
				c-0.402,3.483-3.351,6.109-6.854,6.109h-25.151c-3.449,0-6.361-2.546-6.831-5.951c-0.01-0.044-0.016-0.088-0.021-0.135
				l-0.096-0.812l-0.771-6.488l-0.096-0.812v-0.003l-1.485-12.52l-0.086-0.714l-0.259-2.185l-0.099-0.841l-0.696-5.865l-0.093-0.779
				l-1.067-8.988l-0.093-0.794l-0.581-4.897H522.051z"/>
		</g>
		<g>
			<g>
				<path style="fill:#9E7035;" d="M521.257,400.529l-0.099,0.849v0.003c-5.598,1.788-12.045-0.221-16.672-3.813
					c-1.505-1.171-2.87-2.497-4.126-3.929h1.043c2.577,2.816,5.65,5.201,9.263,6.525
					C514.04,401.399,517.857,401.723,521.257,400.529z"/>
			</g>
		</g>
		<g>
			<g>
				<path style="fill:#9E7035;" d="M518.509,424.396l-0.096,0.83c-9.88-5.891-17.3-15.359-27.238-21.302
					c-5.323-3.182-11.739-5.362-17.988-4.594l-0.093-0.794c13.166-1.796,24.5,8.684,33.661,16.812
					C510.458,418.632,514.281,421.85,518.509,424.396z"/>
			</g>
		</g>
		<g>
			<g>
				<path style="fill:#9E7035;" d="M481.588,434.442c-1.007,1.767-2.232,3.483-3.633,5.03c-0.01-0.044-0.016-0.088-0.021-0.135
					l-0.096-0.812c4.09-4.64,7.353-11.409,4.653-16.914c-1.58-3.221-4.256-4.96-7.35-5.808l-0.099-0.841
					c0.597,0.171,1.186,0.376,1.77,0.623c3.182,1.344,5.972,3.828,6.968,7.218C484.946,426.755,483.555,430.991,481.588,434.442z"/>
			</g>
		</g>
		<g>
			<g>
				<path style="fill:#9E7035;" d="M517.068,436.897l-0.101,0.885c-3.706-2.691-7.61-5.24-11.775-7.15
					c-4.511-2.068-10.161-3.268-14.284,0.275c-4.155,3.569-5.463,9.18-4.687,14.516h-0.81c-0.166-1.311-0.202-2.642-0.104-3.971
					c0.319-4.228,2.017-8.707,5.427-11.404c4.036-3.192,9.33-2.411,13.771-0.561C508.973,431.349,513.139,434.048,517.068,436.897z"
					/>
			</g>
		</g>
		<g>
			<path style="fill:#272327;" d="M522.052,394.153c0,1.099-11.09,1.991-24.77,1.991s-24.771-0.891-24.771-1.991
				s11.09-1.991,24.771-1.991S522.052,393.053,522.052,394.153z"/>
		</g>
		<g>
			<g>
				<g>
					<path style="fill:#4E4D39;" d="M496.042,394.818h2.043c3.305-23.484,1.241-43.388-1.131-56.118
						c-2.666-14.303-6.187-22.669-6.335-23.018c-0.219-0.514-0.814-0.754-1.327-0.535c-0.514,0.219-0.754,0.813-0.535,1.327
						c0.036,0.084,3.582,8.509,6.208,22.596C497.318,351.702,499.365,371.481,496.042,394.818z"/>
				</g>
			</g>
			<g>
				<g>
					<path style="fill:#4E4D39;" d="M498.494,375.531c0,0-6.948,1.089-16.299-10.04l6.335,0.579l-9.195-4.337
						c-9.665-14.505-7.703-39.464-7.703-39.464s7.119,5.938,13.75,15.575l1.648,8.946l0.856-5.069
						C492.974,350.124,499.119,363.925,498.494,375.531z"/>
				</g>
			</g>
			<g>
				<g>
					<path style="fill:#4E4D39;" d="M497.596,348.73c0,0,7.013-0.528,13.573-13.499l-6.035,2.011l7.961-6.323
						c6.095-16.33-1.519-40.18-1.519-40.18s-5.574,7.408-9.827,18.304l0.44,9.086l-1.992-4.739
						C497.164,322.734,494.335,337.574,497.596,348.73z"/>
				</g>
			</g>
			<g>
				<g>
					<path style="fill:#4E4D39;" d="M497.841,387.346c0,0,6.826,1.691,17.113-8.578l-6.361,0.023l9.539-3.517
						c10.895-13.606,11.12-38.641,11.12-38.641s-7.61,5.294-15.057,14.314l-2.423,8.768l-0.41-5.124
						C505.558,362.518,498.231,375.73,497.841,387.346z"/>
				</g>
			</g>
		</g>
	</g>
	<g>
		<g>
			<g>
				<g>
					<g>
						<path style="fill:#E0DECA;" d="M194.363,109.611v87.519c0,1.296-1.051,2.347-2.347,2.347h-75.399
							c-1.296,0-2.347-1.051-2.347-2.347v-87.519c0-1.296,1.051-2.347,2.347-2.347h75.399
							C193.312,107.264,194.363,108.315,194.363,109.611z"/>
					</g>
				</g>
				<g>
					<g>
						<path style="fill:#7E7768;" d="M170.154,183.567h-30.771c-0.528,0-0.955,0.428-0.955,0.955l0,0
							c0,0.528,0.428,0.955,0.955,0.955h30.825c0.545,0,0.983-0.456,0.954-1.007C171.135,183.954,170.672,183.567,170.154,183.567z"
							/>
					</g>
				</g>
				<g>
					<g>
						<path style="fill:#7E7768;" d="M170.154,178.523h-30.771c-0.528,0-0.955,0.428-0.955,0.955l0,0
							c0,0.527,0.428,0.955,0.955,0.955h30.825c0.545,0,0.983-0.456,0.954-1.007C171.135,178.91,170.672,178.523,170.154,178.523z"
							/>
					</g>
				</g>
				<g>
					<g>
						<path style="fill:#7E7768;" d="M170.154,189.001h-30.771c-0.528,0-0.955,0.428-0.955,0.955l0,0
							c0,0.528,0.428,0.955,0.955,0.955h30.825c0.545,0,0.983-0.456,0.954-1.007C171.135,189.389,170.672,189.001,170.154,189.001z"
							/>
					</g>
				</g>
				<g>
					<g>
						<path style="fill:#272327;" d="M194.363,109.611v9.643H114.27v-9.643c0-1.296,1.051-2.347,2.347-2.347h75.399
							C193.312,107.264,194.363,108.315,194.363,109.611z"/>
					</g>
				</g>
				<g>
					<g>
						<g>
							<g>
								<g>
									<path style="fill:#A8B0D5;" d="M178.419,113.259c0,1.045-0.847,1.892-1.891,1.892c-1.044,0-1.891-0.847-1.891-1.892
										c0-1.045,0.847-1.891,1.891-1.891C177.572,111.367,178.419,112.214,178.419,113.259z"/>
								</g>
							</g>
						</g>
					</g>
					<g>
						<g>
							<g>
								<g>
									<path style="fill:#AFA46E;" d="M184.548,113.259c0,1.045-0.847,1.892-1.892,1.892c-1.044,0-1.891-0.847-1.891-1.892
										c0-1.045,0.847-1.891,1.891-1.891C183.701,111.367,184.548,112.214,184.548,113.259z"/>
								</g>
							</g>
						</g>
					</g>
					<g>
						<g>
							<g>
								<g>
									<path style="fill:#E19B3F;" d="M190.382,113.259c0,1.045-0.847,1.892-1.891,1.892c-1.045,0-1.891-0.847-1.891-1.892
										c0-1.045,0.847-1.891,1.891-1.891C189.535,111.367,190.382,112.214,190.382,113.259z"/>
								</g>
							</g>
						</g>
					</g>
				</g>
			</g>
			<g>
				<g>
					<path style="fill:#2B405C;" d="M169.598,148.582c0,1.4-0.193,2.756-0.548,4.045c2.933-0.306,5.854-0.707,8.769-1.153
						c0.116-0.948,0.177-1.913,0.177-2.892c0-13.057-10.623-23.681-23.68-23.681c-0.645,0-1.284,0.027-1.916,0.078
						c-0.021,2.822-0.079,5.644-0.152,8.465c0.677-0.092,1.367-0.144,2.068-0.144C162.743,133.3,169.598,140.155,169.598,148.582z"
						/>
				</g>
				<g>
					<path style="fill:#742823;" d="M168.749,153.596c-2.08,5.97-7.762,10.268-14.433,10.268c-8.426,0-15.282-6.855-15.282-15.282
						c0-7.399,5.286-13.585,12.279-14.984c0.074-2.841,0.133-5.683,0.154-8.525c-11.719,1.411-20.832,11.415-20.832,23.509
						c0,13.057,10.623,23.68,23.68,23.68c11.745,0,21.519-8.596,23.365-19.827C174.712,152.887,171.737,153.292,168.749,153.596z"/>
				</g>
			</g>
		</g>
		<g>
			<g>
				<g>
					<g>
						<g>
							<path style="fill:#2B405C;" d="M677.996,111.745c-1.758,8.822-10.336,14.549-19.158,12.79
								c-8.822-1.758-14.549-10.336-12.79-19.158c1.758-8.822,10.336-14.549,19.158-12.79
								C674.028,94.345,679.754,102.923,677.996,111.745z"/>
						</g>
					</g>
				</g>
				<g>
					<g>
						<path style="fill:#FDFBEC;" d="M663.14,116.209l-0.072,2.329l-2.958-0.092l0.069-2.224c-2.094-0.191-4.112-0.82-5.347-1.636
							l1.706-3.56c1.359,0.861,3.19,1.443,4.805,1.493c1.406,0.044,1.919-0.235,1.934-0.738c0.057-1.846-8.109-0.608-7.94-6.084
							c0.073-2.371,1.856-4.311,5.312-4.687l0.071-2.287l2.958,0.092l-0.07,2.245c1.548,0.195,3.047,0.641,4.222,1.349l-1.601,3.542
							c-1.425-0.779-2.778-1.178-4.058-1.218c-1.448-0.045-1.922,0.36-1.938,0.864c-0.055,1.762,8.111,0.545,7.943,5.958
							C668.108,113.822,666.41,115.743,663.14,116.209z"/>
					</g>
				</g>
				<g>
					<g>
						<g>
							<path style="fill:#2B405C;" d="M657.486,91.13c0-0.266-0.252-0.459-0.509-0.392c-4.278,1.115-7.953,3.724-10.428,7.431
								c-2.32,3.475-3.344,7.553-2.961,11.656c0.018,0.192,0.162,0.358,0.354,0.382c0.26,0.031,0.476-0.184,0.453-0.436
								c-0.371-3.926,0.607-7.828,2.827-11.153c2.364-3.541,5.874-6.033,9.96-7.097C657.359,91.475,657.486,91.315,657.486,91.13
								L657.486,91.13z"/>
						</g>
					</g>
				</g>
				<g>
					<g>
						<g>
							<path style="fill:#2B405C;" d="M648.164,114.233l-4.06,10.123c-0.311,0.775,0.439,1.555,1.226,1.274l10.765-3.839
								L648.164,114.233z"/>
						</g>
					</g>
				</g>
			</g>
		</g>
		<g>
			<polygon style="fill:#272327;" points="91.318,262.402 91.318,267.652 84.496,267.652 84.496,274.475 79.246,274.475 
				79.246,267.652 72.424,267.652 72.424,262.402 79.246,262.402 79.246,255.577 84.496,255.577 84.496,262.402 			"/>
		</g>
		<g>
			<polygon style="fill:#272327;" points="683.231,150.747 683.231,155.997 676.409,155.997 676.409,162.819 671.159,162.819 
				671.159,155.997 664.336,155.997 664.336,150.747 671.159,150.747 671.159,143.922 676.409,143.922 676.409,150.747 			"/>
		</g>
		<g>
			<g>
				<path style="fill:#A9A48D;" d="M98.621,245.059c-0.652,0-1.305-0.06-1.942-0.178c-0.315-0.058-0.523-0.361-0.465-0.676
					c0.058-0.315,0.36-0.523,0.676-0.465c1.128,0.209,2.314,0.21,3.441,0.004c0.314-0.058,0.617,0.151,0.675,0.466
					c0.058,0.315-0.151,0.617-0.466,0.675C99.91,245,99.265,245.059,98.621,245.059z M103.512,243.786
					c-0.203,0-0.4-0.107-0.506-0.296c-0.157-0.279-0.057-0.633,0.222-0.789c1.011-0.567,1.902-1.307,2.646-2.199
					c0.205-0.246,0.57-0.279,0.817-0.074c0.246,0.205,0.279,0.571,0.074,0.817c-0.835,1.002-1.834,1.832-2.969,2.469
					C103.705,243.762,103.608,243.786,103.512,243.786z M93.71,243.775c-0.096,0-0.194-0.024-0.284-0.075
					c-1.134-0.639-2.131-1.472-2.964-2.476c-0.204-0.246-0.17-0.612,0.076-0.816c0.246-0.204,0.612-0.171,0.817,0.076
					c0.742,0.894,1.63,1.636,2.641,2.206c0.279,0.157,0.378,0.511,0.22,0.79C94.109,243.668,93.912,243.775,93.71,243.775z
					 M107.975,238.632c-0.069,0-0.139-0.012-0.208-0.039c-0.299-0.115-0.448-0.45-0.333-0.749c0.414-1.078,0.624-2.216,0.624-3.383
					c0-0.108-0.002-0.216-0.005-0.323c-0.011-0.32,0.24-0.588,0.56-0.599c0.317-0.01,0.588,0.239,0.599,0.56
					c0.004,0.12,0.006,0.241,0.006,0.363c0,1.309-0.236,2.587-0.701,3.799C108.428,238.491,108.208,238.632,107.975,238.632z
					 M89.259,238.611c-0.233,0-0.454-0.142-0.542-0.373c-0.46-1.205-0.693-2.476-0.693-3.776v-0.022c0-0.32,0.26-0.58,0.58-0.58
					c0.32,0,0.58,0.26,0.58,0.58v0.022c0,1.159,0.207,2.291,0.617,3.363c0.114,0.299-0.036,0.634-0.335,0.748
					C89.397,238.599,89.327,238.611,89.259,238.611z M89.142,231.794c-0.062,0-0.126-0.01-0.188-0.031
					c-0.303-0.104-0.464-0.433-0.361-0.736c0.422-1.23,1.06-2.362,1.899-3.364c0.205-0.246,0.571-0.278,0.817-0.072
					c0.245,0.206,0.278,0.571,0.072,0.817c-0.747,0.892-1.316,1.9-1.691,2.995C89.608,231.643,89.383,231.794,89.142,231.794z
					 M107.991,231.492c-0.234,0-0.454-0.143-0.542-0.374c-0.41-1.082-1.011-2.071-1.786-2.939c-0.213-0.239-0.192-0.605,0.046-0.819
					c0.239-0.213,0.605-0.193,0.819,0.046c0.87,0.974,1.545,2.085,2.005,3.3c0.113,0.299-0.037,0.634-0.337,0.748
					C108.129,231.48,108.06,231.492,107.991,231.492z M93.416,226.481c-0.196,0-0.386-0.099-0.496-0.278
					c-0.167-0.273-0.08-0.63,0.193-0.797c1.114-0.679,2.329-1.141,3.611-1.373c0.316-0.056,0.617,0.152,0.674,0.467
					c0.057,0.315-0.152,0.617-0.467,0.674c-1.141,0.206-2.222,0.617-3.214,1.222C93.623,226.454,93.519,226.481,93.416,226.481z
					 M103.55,226.319c-0.097,0-0.195-0.024-0.285-0.076c-1.01-0.572-2.104-0.948-3.252-1.117c-0.317-0.047-0.536-0.342-0.489-0.658
					c0.047-0.317,0.341-0.537,0.658-0.489c1.289,0.19,2.519,0.613,3.654,1.256c0.279,0.158,0.377,0.512,0.219,0.79
					C103.948,226.213,103.752,226.319,103.55,226.319z"/>
			</g>
		</g>
		<g>
			<g>
				<path style="fill:#A9A48D;" d="M693.993,191.38c-0.652,0-1.306-0.06-1.942-0.178c-0.315-0.058-0.523-0.361-0.465-0.676
					c0.058-0.315,0.36-0.523,0.676-0.465c1.128,0.209,2.314,0.21,3.441,0.004c0.314-0.058,0.617,0.151,0.675,0.466
					c0.058,0.315-0.151,0.617-0.466,0.675C695.283,191.322,694.638,191.38,693.993,191.38z M698.884,190.107
					c-0.203,0-0.4-0.107-0.506-0.296c-0.156-0.279-0.057-0.633,0.222-0.789c1.011-0.567,1.902-1.307,2.646-2.199
					c0.205-0.246,0.57-0.279,0.817-0.074c0.246,0.205,0.279,0.571,0.074,0.817c-0.835,1.002-1.834,1.832-2.969,2.469
					C699.077,190.083,698.98,190.107,698.884,190.107z M689.082,190.096c-0.096,0-0.194-0.024-0.284-0.075
					c-1.134-0.639-2.131-1.472-2.964-2.476c-0.204-0.246-0.17-0.612,0.076-0.816c0.246-0.204,0.612-0.171,0.816,0.076
					c0.742,0.894,1.63,1.636,2.641,2.206c0.279,0.157,0.378,0.511,0.22,0.79C689.481,189.99,689.285,190.096,689.082,190.096z
					 M703.348,184.954c-0.069,0-0.139-0.012-0.208-0.039c-0.299-0.115-0.448-0.45-0.333-0.749c0.414-1.078,0.624-2.216,0.624-3.383
					c0-0.108-0.002-0.216-0.005-0.323c-0.011-0.32,0.24-0.588,0.56-0.599c0.317-0.01,0.588,0.24,0.599,0.56
					c0.004,0.12,0.006,0.241,0.006,0.363c0,1.309-0.236,2.587-0.701,3.799C703.8,184.812,703.581,184.954,703.348,184.954z
					 M684.631,184.933c-0.234,0-0.454-0.142-0.542-0.373c-0.46-1.205-0.693-2.475-0.693-3.776v-0.022c0-0.32,0.26-0.58,0.58-0.58
					s0.58,0.26,0.58,0.58v0.022c0,1.159,0.207,2.291,0.617,3.363c0.114,0.299-0.036,0.634-0.335,0.748
					C684.77,184.92,684.7,184.933,684.631,184.933z M684.514,178.115c-0.062,0-0.126-0.01-0.188-0.032
					c-0.303-0.104-0.465-0.433-0.361-0.736c0.421-1.23,1.06-2.362,1.899-3.364c0.206-0.246,0.571-0.278,0.817-0.072
					c0.246,0.206,0.278,0.571,0.072,0.817c-0.747,0.892-1.316,1.9-1.691,2.995C684.981,177.964,684.755,178.115,684.514,178.115z
					 M703.364,177.814c-0.234,0-0.454-0.143-0.542-0.374c-0.41-1.082-1.011-2.071-1.786-2.939c-0.213-0.239-0.192-0.605,0.046-0.819
					c0.239-0.213,0.605-0.192,0.819,0.047c0.87,0.974,1.544,2.085,2.005,3.3c0.114,0.299-0.037,0.634-0.337,0.748
					C703.501,177.801,703.432,177.814,703.364,177.814z M688.789,172.803c-0.196,0-0.386-0.099-0.496-0.278
					c-0.167-0.273-0.08-0.63,0.193-0.797c1.114-0.679,2.329-1.141,3.611-1.373c0.316-0.056,0.617,0.152,0.674,0.467
					c0.057,0.315-0.152,0.617-0.467,0.674c-1.141,0.206-2.222,0.617-3.214,1.222C688.995,172.775,688.891,172.803,688.789,172.803z
					 M698.922,172.64c-0.097,0-0.195-0.024-0.285-0.076c-1.01-0.572-2.104-0.948-3.252-1.118c-0.317-0.047-0.536-0.342-0.489-0.658
					c0.047-0.317,0.341-0.537,0.658-0.489c1.289,0.19,2.519,0.613,3.654,1.256c0.279,0.158,0.377,0.512,0.219,0.79
					C699.321,172.534,699.124,172.64,698.922,172.64z"/>
			</g>
		</g>
	</g>
	<g>
		<g>
			<g>
				<g>
					<path style="fill:#4E4D39;" d="M120.457,388.231h94.664l-1.89-7.426c-3.171-12.459-12.07-20.862-22.092-20.862h-63.649
						c-7.217,0-12.502,6.798-10.722,13.793L120.457,388.231z"/>
				</g>
			</g>
			<g>
				<path style="fill:#4E4D39;" d="M116.767,373.735c0,0-16.91-46.402-10.535-54.485c6.375-8.083,32.839-9.835,52.622-0.722
					s33.044,52.801,33.044,52.801L116.767,373.735z"/>
			</g>
			<g>
				<g>
					<polygon style="fill:#4E4D39;" points="214.899,388.034 217.029,402.373 217.787,407.537 224.144,450.884 220.321,450.884 
						211.189,407.537 210.1,402.373 207.08,388.034 					"/>
				</g>
			</g>
			<g>
				<g>
					<polygon style="fill:#4E4D39;" points="199.982,388.034 202.113,402.373 202.87,407.537 209.227,450.884 205.404,450.884 
						196.272,407.537 195.184,402.373 192.163,388.034 					"/>
				</g>
			</g>
			<g>
				<g>
					<polygon style="fill:#4E4D39;" points="129.012,377.144 123.697,402.373 122.608,407.537 113.477,450.884 109.653,450.884 
						116.01,407.537 116.768,402.373 120.517,377.144 					"/>
				</g>
			</g>
			<g>
				<g>
					<polygon style="fill:#4E4D39;" points="143.929,377.144 138.614,402.373 137.525,407.537 128.393,450.884 124.57,450.884 
						130.927,407.537 131.685,402.373 135.434,377.144 					"/>
				</g>
			</g>
			<g>
				<path style="fill:#272327;" d="M210.693,379.888h-81.862c-2.18,0-4.071-1.401-4.705-3.487l-16.412-54.033l0.957-0.291
					l16.412,54.033c0.505,1.662,2.011,2.778,3.748,2.778h81.862V379.888z"/>
			</g>
		</g>
		<g>
			<g>
				<path style="fill:#272327;" d="M124.703,259.5h33.893c-0.834-3.884-1.763-8.242-2.494-11.743
					c-1.048-5.014,4.138-15.543,1.291-21.128c-3.979-7.806-14.466-4.622-14.466-4.622c-10.727-2.267-15.926,3.139-17.549,6.348
					c-2.676,5.288-2.82,13.682-2.005,19.628C123.697,250.354,124.197,254.8,124.703,259.5z"/>
			</g>
		</g>
		<g>
			<path style="fill:#272327;" d="M129.733,231.109c2.728-1.235,4.56-3.846,4.999-6.808c0.441-2.983-0.105-6.736-5.197-7.73
				c-11.951-2.333-12.873,12.027-3.98,14.922C127.023,231.971,128.476,231.679,129.733,231.109z"/>
		</g>
		<g>
			<g>
				<path style="fill:#DCA351;" d="M153.879,291.282c0,0,16.549,34.378,26.152,31.802c19.449-5.218,31.732-21.612,31.732-21.612
					l-3.651-4.137c0,0-18.698,9.582-20.532,9.415c-1.833-0.167-20.168-32.948-20.168-32.948L153.879,291.282z"/>
			</g>
			<g>
				<g>
					<path style="fill:#9E7035;" d="M173.474,320.205c3.614-2.722,8.507-2.262,11.517,1.123c0.321,0.361,0.85-0.171,0.53-0.53
						c-3.211-3.611-8.562-4.152-12.426-1.24C172.715,319.844,173.088,320.496,173.474,320.205L173.474,320.205z"/>
				</g>
			</g>
			<g>
				<g>
					<path style="fill:#DCA351;" d="M119.972,299.962c3.771,8.313,9.562,23.061,8.862,35.676
						c-0.145,2.619,19.545,4.799,26.386,4.667c12.337-0.24,16.174-10.516,16.174-10.516c-1.207-4.766-4.168-18.952-4.518-22.986
						c-1.457-16.805,2.965-27.463,0.214-33.87c-1.286-2.993-6.647-5.899-11.273-7.928c-3.884-1.702-7.244-2.786-7.244-2.786
						l-12.268-0.666c0,0-21.767,9.214-23.042,15.384C112.478,280.734,114.907,288.798,119.972,299.962z"/>
				</g>
			</g>
			<g>
				<g>
					<g>
						<path style="fill:#9E7035;" d="M166.665,309.528c-7.722,2.87-16.161,3.321-24.149,1.314c-0.463-0.116-0.267-0.832,0.197-0.715
							c7.868,1.977,16.151,1.512,23.755-1.314C166.915,308.647,167.109,309.363,166.665,309.528L166.665,309.528z"/>
					</g>
				</g>
			</g>
			<g>
				<g>
					<path style="fill:#DCA351;" d="M167.09,279.995c0,0-0.632,4.4,4.51,10.341c6.21,7.176-3.029,15.016-5.034,17.28
						C164.561,309.88,167.09,279.995,167.09,279.995z"/>
				</g>
				<g>
					<g>
						<path style="fill:#9E7035;" d="M165.032,274.77c-0.26,2.933,0.135,5.888,1.212,8.633c1.115,2.84,3.097,4.872,4.713,7.392
							c4.114,6.416-3.134,12.53-4.268,18.685c-0.087,0.472,0.636,0.674,0.723,0.199c1.082-5.876,7.552-11.378,5-17.729
							c-1.093-2.72-3.496-4.703-4.808-7.325c-1.528-3.052-2.123-6.465-1.822-9.856C165.825,274.289,165.074,274.292,165.032,274.77
							L165.032,274.77z"/>
					</g>
				</g>
			</g>
		</g>
		<g>
			<g>
				<g>
					<g>
						<g>
							<path style="fill:#A05544;" d="M133.568,265.054c3.783,1.809,19.746,11.326,16.073-0.658l-1.126-4.679l-1.229-5.106
								l-0.86-3.575l-11.36-5.659L133.568,265.054z"/>
						</g>
					</g>
					<g>
						<g>
							<path style="fill:#272327;" d="M137.818,251.158c5.185,8.65,9.883,11.542,11.345,11.251l-1.877-7.797L137.818,251.158z"/>
						</g>
					</g>
					<g>
						<path style="fill:#EEBF80;" d="M133.568,262.428c0,0-6.66,1.511-8.013,5.151c0,0,11.281,6.64,16.277,8.14
							c0,0-1.846-6.492,4.262-5.371L133.568,262.428z"/>
					</g>
					<g>
						<path style="fill:#EEBF80;" d="M148.645,261.552c0,0,6.164,0.363,7.173,3.452c0,0,1.176,4.548,0.676,8.798
							c0,0-0.452-5.711-6.816-4.468C150.558,266.991,149.758,264.163,148.645,261.552z"/>
					</g>
				</g>
				<g>
					<g>
						<path style="fill:#A05544;" d="M131.446,243.073c1.245,3.544,2.333,4.674,5.187,8.028c2.547,2.993,6.706,4.348,8.796,4.398
							c7.596,0.184,10.942-3.074,9.44-13.278c-0.934-6.336,0.629-9.987-1.126-12.357l-0.003,0c-0.115-0.107-0.231-0.212-0.346-0.313
							c-2.783-2.442-6.445-3.648-10.144-3.479C124.866,226.911,129.659,237.987,131.446,243.073z"/>
					</g>
				</g>
				<g>
					<g>
						<path style="fill:#272327;" d="M145.997,245.762c1.48,1.032,3.518,2.081,5.066,0.563c0.345-0.339-0.185-0.869-0.53-0.53
							c-1.272,1.248-2.994,0.132-4.158-0.68C145.978,244.838,145.603,245.488,145.997,245.762L145.997,245.762z"/>
					</g>
				</g>
				<g>
					<g>
						<g>
							<path style="fill:#742823;" d="M150.022,249.646c-0.732,0.313-1.531,0.38-2.184-0.139c-0.331-0.263,0.093-0.763,0.423-0.5
								c0.466,0.371,1.029,0.239,1.534,0.023C150.185,248.865,150.409,249.481,150.022,249.646L150.022,249.646z"/>
						</g>
					</g>
				</g>
				<g>
					<g>
						<path style="fill:#742823;" d="M140.92,243.528c0.045,0.546,0.932,0.918,1.979,0.83c1.048-0.087,1.86-0.6,1.814-1.146
							c-0.046-0.546-0.932-0.918-1.979-0.83C141.687,242.469,140.875,242.982,140.92,243.528z"/>
					</g>
				</g>
				<g>
					<g>
						<path style="fill:#742823;" d="M151.818,243.183c0.046,0.548,0.932,0.918,1.978,0.831c0.493-0.041,0.934-0.177,1.257-0.365
							c-0.051-0.461-0.112-0.937-0.184-1.428c-0.002-0.021-0.006-0.041-0.007-0.059c-0.34-0.112-0.77-0.162-1.23-0.124
							C152.586,242.125,151.773,242.638,151.818,243.183z"/>
					</g>
				</g>
				<g>
					<g>
						<path style="fill:#272327;" d="M130.292,228.68c5.532-4.642,15.944-8.434,23.894-1.061c3.387,0.874,0.602,10.14,0.4,7.796
							c-0.476-5.522-3.2-8.704-4.318-7.085c0,0-9.148,11.033-15.243,10.814c0,0-0.961,4.6-4.331,6.127
							C128.104,240.266,127.635,233.688,130.292,228.68z"/>
					</g>
				</g>
				<g>
					<g>
						<path style="fill:#272327;" d="M144.695,240.375c0.043,0.513,0.39,0.903,0.775,0.871s0.662-0.474,0.62-0.987
							c-0.043-0.513-0.389-0.903-0.774-0.871C144.93,239.419,144.653,239.861,144.695,240.375z"/>
					</g>
				</g>
				<g>
					<g>
						<path style="fill:#272327;" d="M150.968,240.138c0.043,0.513,0.389,0.903,0.775,0.871c0.385-0.032,0.662-0.474,0.62-0.987
							c-0.043-0.513-0.39-0.903-0.775-0.871C151.203,239.182,150.926,239.624,150.968,240.138z"/>
					</g>
				</g>
				<g>
					<g>
						<g>
							<path style="fill:#272327;" d="M145.234,237.637c-0.764-0.221-1.741-0.012-1.994,0.845c-0.236,0.8-1.527,0.568-1.288-0.242
								c0.446-1.511,2.005-2.332,3.525-1.891C146.278,236.581,146.046,237.872,145.234,237.637L145.234,237.637z"/>
						</g>
					</g>
				</g>
				<g>
					<g>
						<g>
							<path style="fill:#272327;" d="M152.838,237.973c-0.553-0.578-1.257-1.42-2.149-1.121c-0.799,0.268-1.253-0.962-0.452-1.23
								c1.42-0.476,2.514,0.375,3.447,1.351C154.263,237.577,153.422,238.583,152.838,237.973L152.838,237.973z"/>
						</g>
					</g>
				</g>
			</g>
			<g>
				<g>
					<g>
						<g>
							<path style="fill:#A05544;" d="M138.858,245.375c0.338-1.359-0.026-2.794-0.887-3.9c-1.115-1.432-3.137-3.61-4.874-3.225
								c-2.552,0.567-2.673,2.887-2.23,5.204c0.443,2.317,2.227,5.255,5.409,4.5C137.868,247.578,138.581,246.488,138.858,245.375z"
								/>
						</g>
					</g>
				</g>
				<g>
					<g>
						<g>
							<path style="fill:#FFFFFF;" d="M132.17,246.423c0.279,0.273,0.567,0.552,0.826,0.843c-1.855,0.378-3.255,2.1-3.116,4.038
								c0.151,2.106,1.987,3.695,4.093,3.544c2.105-0.151,3.695-1.988,3.544-4.093c-0.104-1.448-1.005-2.651-2.241-3.213
								c-0.606-0.244-1.105-0.636-1.149-1.353c2.336,0.205,4.251,2.079,4.424,4.491c0.193,2.676-1.828,5.009-4.503,5.201
								c-2.676,0.193-5.009-1.828-5.201-4.503C128.685,249.13,130.13,247.119,132.17,246.423z"/>
						</g>
					</g>
				</g>
				<g>
					<g>
						<g>
							<g>
								<path style="fill:#272327;" d="M135.419,245.208c0.07-0.964,0.074-1.97-0.335-2.869c-0.366-0.803-1.353-1.941-2.386-1.536
									c-0.346,0.136-0.618-0.38-0.269-0.517c0.995-0.391,1.996,0.151,2.642,0.934c0.932,1.13,1.032,2.621,0.931,4.022
									C135.974,245.616,135.392,245.584,135.419,245.208L135.419,245.208z"/>
							</g>
						</g>
					</g>
				</g>
			</g>
			<g>
				<g>
					<path style="fill:#272327;" d="M149.371,243.615c0.002,0,0.004-0.001,0.005-0.001c0.444-0.072,1.272-0.439,1.229-1.314
						c-0.041-0.827-0.779-1.141-1.273-1.212l-0.465-1.069c-0.054-0.125-0.2-0.182-0.325-0.128c-0.125,0.054-0.183,0.2-0.128,0.326
						l0.522,1.202c0.038,0.087,0.121,0.144,0.215,0.149c0.037,0.002,0.925,0.056,0.96,0.757c0.033,0.657-0.779,0.796-0.814,0.802
						c-0.135,0.022-0.226,0.149-0.205,0.284C149.114,243.543,149.238,243.634,149.371,243.615z"/>
				</g>
			</g>
		</g>
		<g>
			<g>
				<path style="fill:#A05544;" d="M235.529,422.93l-2.26,15.432c0,0-5.478,2.68-10.124-0.531l0.437-20.278
					C227.028,408.626,231.127,412.75,235.529,422.93z"/>
			</g>
			<g>
				<path style="fill:#272327;" d="M237.664,425.228h-7.11l-2.085-9.81l-2.163,9.81h-4.642l-3-60.228c0,0-45.165,5.392-54.503,0.517
					s8.512-29.585,34.925-26.822c0,0,37.35-3.445,42.077,4.592C245.891,351.325,237.664,425.228,237.664,425.228z"/>
			</g>
			<g>
				<g>
					<path style="fill:#7E7768;" d="M219.259,364.874c0.097-2.541,0.195-5.082,0.292-7.623c0.018-0.483-0.732-0.482-0.75,0
						c-0.097,2.541-0.195,5.082-0.292,7.623C218.491,365.357,219.241,365.356,219.259,364.874L219.259,364.874z"/>
				</g>
			</g>
			<g>
				<path style="fill:#4E372A;" d="M222.414,433.25c0,0,0.005-2.693,0.88-2.318s7.226,4.066,8.601,4.816s2.874-5.623,3.634-5.623
					c0.76,0,0.885,2.75,1.635,5.625s14.25,10.5,19,13.125c4.75,2.625-8.445,2.875-13.535,2.625c-5.09-0.25-11.59-0.5-11.59-0.5
					s-2.625-7.75-3.5-7.75s-0.875,7.644-2.375,7.634c-1.5-0.009-3.75,0-3.75,0L222.414,433.25z"/>
			</g>
		</g>
		<g>
			<g>
				<path style="fill:#A05544;" d="M284.344,378.844l10.324,11.69c0,0-1.491,5.913-6.942,7.387l-15.202-13.428
					C268.953,376.974,275.621,377.138,284.344,378.844z"/>
			</g>
			<g>
				<path style="fill:#4E372A;" d="M283.755,395.523c0,0-2.053-1.743-1.201-2.169c0.851-0.426,7.77-2.892,9.231-3.457
					c1.461-0.566-2.438-5.826-1.947-6.406c0.491-0.58,2.671,1.1,5.351,2.384c2.68,1.284,17.219-4.1,22.291-6.032
					s-3.258,8.305-6.736,12.03c-3.478,3.725-7.866,8.527-7.866,8.527s-7.613-3-8.178-2.332s5.272,5.604,4.296,6.743
					c-0.976,1.139-2.422,2.863-2.422,2.863L283.755,395.523z"/>
			</g>
			<g>
				<path style="fill:#272327;" d="M281.011,384.328l-7.283-3.548l4.872,5.892l-2.97,2.89c-6.73-3-48.15-49.253-48.15-49.253
					s-60.5,35.69-82.322,30.19c-21.82-5.5-16.325-34.862-16.325-34.862L166.916,332c0,0,62.065-29.7,70.565-23.212
					c8.5,6.49,48.75,70.462,48.75,70.462L281.011,384.328z"/>
			</g>
			<g>
				<path style="fill:#7E7768;" d="M166.462,332.184c-4.447,2.287-9.213,3.699-13.891,5.415c-0.449,0.165-0.255,0.89,0.199,0.723
					c4.739-1.739,9.567-3.175,14.07-5.491C167.27,332.611,166.891,331.964,166.462,332.184L166.462,332.184z"/>
			</g>
			<g>
				<path style="fill:#7E7768;" d="M142.507,335.177c0.876,7.889-4.357,14.729-12.263,15.736c-0.472,0.06-0.478,0.811,0,0.75
					c8.302-1.058,13.94-8.133,13.013-16.486C143.205,334.702,142.454,334.697,142.507,335.177L142.507,335.177z"/>
			</g>
			<g>
				<g>
					<path style="fill:#7E7768;" d="M170.914,366.215c15.352-6.646,30.507-13.767,45.225-21.728
						c4.235-2.291,8.431-4.651,12.589-7.079c0.417-0.243,0.04-0.892-0.378-0.648c-14.45,8.438-29.39,15.998-44.609,22.944
						c-4.381,2-8.785,3.95-13.205,5.863C170.094,365.758,170.475,366.405,170.914,366.215L170.914,366.215z"/>
				</g>
			</g>
			<g>
				<g>
					<path style="fill:#7E7768;" d="M228.863,337.273c1.165-2.458,2.625-4.755,3.79-7.212c0.206-0.434-0.441-0.815-0.648-0.379
						c-1.164,2.458-2.625,4.754-3.79,7.212C228.009,337.328,228.656,337.709,228.863,337.273L228.863,337.273z"/>
				</g>
			</g>
			<g>
				<g>
					<path style="fill:#7E7768;" d="M228.439,337.445c1.839,0.671,3.689,1.306,5.542,1.936c2.249,0.764,4.283,1.482,6.007,3.209
						c3.324,3.33,1.868,8.727,2.335,12.901c0.053,0.474,0.804,0.48,0.75,0c-0.482-4.313,0.907-9.576-2.29-13.153
						c-1.544-1.728-3.485-2.616-5.629-3.349c-2.176-0.744-4.355-1.478-6.516-2.267C228.184,336.556,227.989,337.28,228.439,337.445
						L228.439,337.445z"/>
				</g>
			</g>
		</g>
		<g>
			<g>
				<path style="fill:#7E7768;" d="M179.741,309.564l25.139-0.519c1.583-0.033,3.15-1.252,3.5-2.724l7.843-32.949
					c0.35-1.471-0.649-2.638-2.232-2.605l-25.139,0.519c-1.583,0.033-3.15,1.252-3.5,2.724l-7.843,32.949
					C177.159,308.43,178.158,309.597,179.741,309.564z"/>
			</g>
			<g>
				<path style="fill:#272327;" d="M182.333,309.511l25.139-0.519c1.583-0.033,3.15-1.252,3.5-2.724l7.843-32.949
					c0.35-1.472-0.649-2.638-2.232-2.605l-25.139,0.519c-1.583,0.033-3.15,1.252-3.5,2.724l-7.843,32.949
					C179.751,308.377,180.75,309.543,182.333,309.511z"/>
			</g>
			<g>
				<path style="fill:#7E7768;" d="M204.099,290.989c-0.436,1.887-2.381,3.45-4.345,3.491c-1.964,0.04-3.202-1.456-2.766-3.344
					c0.436-1.887,2.381-3.45,4.345-3.491C203.297,287.605,204.535,289.102,204.099,290.989z"/>
			</g>
		</g>
		<g>
			<g>
				<path style="fill:#A05544;" d="M213.362,293.186c0,0-7.253-0.404-8.4,1.081c-1.146,1.485,6.118,2.937,6.118,2.937
					s-4.29-0.129-5.377,0.888c-1.088,1.017,4.238,2.655,4.238,2.655s-2.869,0.031-2.977,1.601c-0.108,1.57,0.982,2.136,2.573,2.522
					c1.591,0.386,3.163-0.245,3.791-0.872c0.629-0.627,0.092-2.233,0.092-2.233s2.728-1.35,2.828-2.392
					c0.1-1.042-0.648-1.741-0.648-1.741s1.289-0.206,1.753-1.454c0.464-1.249-0.143-2.006-0.143-2.006s1.094-2.326,1.442-3.681
					c0.348-1.355-2.048-2.428-3.5-3.277c-1.452-0.849-4.066,2.126-6.463,2.657c0,0-1.221,0.746,0.088,1.66
					c1.309,0.914,4.107-0.457,4.716-0.404S213.362,293.186,213.362,293.186z"/>
			</g>
		</g>
		<g>
			<g>
				<path style="fill:#DCA351;" d="M113.118,277.531c0,0-9.378,40.217-5.534,52.34c6.326,19.95,55.438-20.928,55.813-24.917
					l-5.917-4.038c0,0-28.356,12.315-30.126,11.491c-1.769-0.824,4.865-25.347,4.865-25.347S123.608,271.75,113.118,277.531z"/>
			</g>
			<g>
				<g>
					<path style="fill:#9E7035;" d="M107.213,325.969c4.462,0.837,7.693,4.485,7.914,9.032c0.023,0.48,0.774,0.483,0.75,0
						c-0.236-4.86-3.67-8.856-8.465-9.755C106.94,325.157,106.738,325.88,107.213,325.969L107.213,325.969z"/>
				</g>
			</g>
			<g>
				<g>
					<path style="fill:#9E7035;" d="M127.153,312.122c-2.291,0.969-4.301,2.392-5.981,4.226c-0.326,0.355,0.203,0.887,0.53,0.53
						c1.64-1.79,3.594-3.164,5.829-4.109C127.975,312.583,127.593,311.936,127.153,312.122L127.153,312.122z"/>
				</g>
			</g>
			<g>
				<g>
					<path style="fill:#9E7035;" d="M125.733,312.912c-1.583-0.837-3.236-1.49-4.965-1.958c-0.466-0.126-0.665,0.597-0.199,0.723
						c1.667,0.451,3.258,1.075,4.785,1.882C125.781,313.785,126.16,313.138,125.733,312.912L125.733,312.912z"/>
				</g>
			</g>
			<g>
				<path style="fill:#9E7035;" d="M127.786,312.969c-0.282,0-0.4-0.058-0.491-0.103c-0.159-0.079-0.268-0.211-0.306-0.372
					c-0.44-1.865,3.37-23.086,3.805-25.5c0.037-0.204,0.234-0.337,0.436-0.302c0.204,0.037,0.339,0.232,0.303,0.436
					c-1.662,9.205-4.011,23.248-3.83,25.087c1.91,0.349,18.817-6.791,29.199-11.456c0.19-0.085,0.411,0,0.496,0.188
					c0.085,0.189,0.001,0.411-0.188,0.496c-0.069,0.031-6.99,3.138-14.064,6.085C131.859,312.23,128.788,312.969,127.786,312.969z
					 M127.719,312.321h0.002H127.719z"/>
			</g>
			<g>
				<g>
					<path style="fill:#9E7035;" d="M120.441,273.573c4.656,0.091,9.18,3.718,9.866,8.391c0.07,0.476,0.793,0.273,0.723-0.199
						c-0.734-5-5.631-8.845-10.589-8.942C119.958,272.813,119.958,273.563,120.441,273.573L120.441,273.573z"/>
				</g>
			</g>
			<g>
				<g>
					<g>
						<path style="fill:#A05544;" d="M157.48,300.917c0,0,2.821-11.873,3.706-12.96c0.885-1.086,12.123-2.499,13.24-2.943
							c1.117-0.445,0.759,1.729-1.256,2.281c-2.015,0.552-5.621,1.992-5.621,1.992s3.432-0.688,4.193,0.016
							c0.762,0.704,4.406,6.008,3.962,8.824c-0.445,2.816-3.703,3.35-4.63,3.714s-0.289-2.565-0.289-2.565s-0.996,0.638-2.623,1.038
							c-1.576,0.387-3.184,3.905-4.765,4.642C161.817,305.692,157.48,300.917,157.48,300.917z"/>
					</g>
				</g>
				<g>
					<g>
						<g>
							<path style="fill:#742823;" d="M164.798,290.078c0.879-0.301,1.747-0.463,2.673-0.529c0.338-0.024,0.323-0.55-0.016-0.526
								c-0.972,0.069-1.885,0.234-2.808,0.55C164.327,289.684,164.477,290.188,164.798,290.078L164.798,290.078z"/>
						</g>
					</g>
				</g>
				<g>
					<g>
						<g>
							<path style="fill:#742823;" d="M167.843,292.064c1.476-0.717,3.115-1.474,4.764-0.853c0.313,0.118,0.562-0.347,0.245-0.466
								c-1.848-0.696-3.611,0.058-5.287,0.873C167.26,291.765,167.541,292.211,167.843,292.064L167.843,292.064z"/>
						</g>
					</g>
				</g>
				<g>
					<g>
						<g>
							<path style="fill:#742823;" d="M169.597,294.182c1.331-0.869,2.952-1.027,4.419-0.404c0.31,0.132,0.557-0.333,0.245-0.466
								c-1.637-0.696-3.449-0.551-4.943,0.423C169.035,293.921,169.313,294.368,169.597,294.182L169.597,294.182z"/>
						</g>
					</g>
				</g>
				<g>
					<g>
						<g>
							<path style="fill:#742823;" d="M170.817,299.581c0.948-0.72,1.556-1.748,1.684-2.937c0.036-0.333-0.477-0.455-0.513-0.118
								c-0.113,1.045-0.609,1.97-1.45,2.609C170.27,299.338,170.546,299.786,170.817,299.581L170.817,299.581z"/>
						</g>
					</g>
				</g>
				<g>
					<g>
						<g>
							<path style="fill:#742823;" d="M172.122,298.149c0.516-0.269,1.15-0.18,1.583,0.202c0.253,0.224,0.611-0.163,0.356-0.388
								c-0.618-0.546-1.491-0.641-2.219-0.261C171.542,297.86,171.823,298.305,172.122,298.149L172.122,298.149z"/>
						</g>
					</g>
				</g>
			</g>
		</g>
		<g>
			<path style="fill:#9E7035;" d="M128.839,331.745c-0.145,0-0.282-0.084-0.344-0.225c-0.083-0.19,0.004-0.411,0.193-0.494
				c18.874-8.249,33.893-25.324,34.042-25.496c0.136-0.156,0.373-0.173,0.529-0.036c0.156,0.136,0.172,0.373,0.036,0.529
				c-0.151,0.173-15.275,17.372-34.307,25.69C128.94,331.735,128.889,331.745,128.839,331.745z"/>
		</g>
		<g>
			<g>
				<path style="fill:#9E7035;" d="M159.072,276.417c-4.972,5.604-11.62,9.457-18.954,10.986c-0.472,0.098-0.272,0.822,0.199,0.723
					c7.447-1.553,14.236-5.489,19.285-11.179C159.921,276.588,159.393,276.056,159.072,276.417L159.072,276.417z"/>
			</g>
		</g>
	</g>
</g>
</svg>
